<?xml version="1.0" encoding="utf-8"?>
<!-- Generator: Adobe Illustrator 19.2.1, SVG Export Plug-In . SVG Version: 6.00 Build 0)  -->
<svg version="1.1" id="Layer_1" xmlns="http://www.w3.org/2000/svg" xmlns:xlink="http://www.w3.org/1999/xlink" x="0px" y="0px"
	 viewBox="0 0 1379 800" style="enable-background:new 0 0 1379 800;" xml:space="preserve">
<style type="text/css">
	.st0{fill:#F7D56B;}
	.st1{fill:#F15A24;}
	.st2{fill:#9E005D;}
</style>
<g>
	<path class="st0" d="M205.1,267.8c-2.4-56.6,7.9-113.8,29.9-166c29.1,27.8,58.2,55.6,87.3,83.5c5.2,5,10.9,10.2,18.1,11.1
		c8.1,1,15.7-3.9,22.4-8.5c56.5-39,112.9-77.9,169.4-116.9c3.5-2.4,7.1-4.8,11.3-5.1c9.4-0.5,15.2,9.7,18.9,18.4
		c18.1,42.4,39.4,83.5,63.8,122.7c3.1,4.9,6.5,10.1,11.9,12.2c8.3,3.3,17.3-1.9,24.7-7c61.1-42,118.9-89,172.5-140.3
		c10.6,48.2,21.1,96.3,31.7,144.5c88.4-48.9,181.1-90,276.7-122.7c14.2-4.8,33-8.1,41.4,4.3c3.8,5.6,4,12.8,3.8,19.5
		c-0.7,22.7-5,45.2-12.6,66.6c45.7,16.4,91.5,32.8,137.2,49.2c3.4,1.2,7.3,2.8,8.7,6.2c1.7,4.2-1.1,8.8-3.8,12.4
		c-20.3,27.2-40.5,54.4-60.8,81.6c-7.3,9.8-14.9,20.6-14.7,32.8c0.1,8.4,4,16.2,7.7,23.7c20.4,40.6,40.8,81.3,61.1,121.9
		c-34.6,8.1-69.3,16.2-103.9,24.2c-16.1,3.7-33.8,8.6-42.5,22.7c-7,11.3-6.2,25.5-5.1,38.7c2.2,28.6,4.5,57.1,6.7,85.7
		c-53.3-24.4-106.5-48.8-159.8-73.1c-12.1-5.5-24.6-11.2-37.9-11.6c-34.6-1-59.3,31.9-77.7,61.3c-3.1-40.1-19.1-79.2-44.9-110
		c-36.7,50.3-73.4,100.6-110.1,150.8c-4.1,5.6-9,11.6-15.9,12.1c-5.8,0.4-11-3.5-15.3-7.5c-19.5-18.5-30.7-43.9-46.4-65.7
		s-39.8-41.4-66.5-38.7c-16.2,1.6-30.3,11.1-43.5,20.7c-52.8,38.4-101.6,82.3-145.3,130.8c-6.8-48.1-13.5-96.1-20.3-144.2
		c-1.5-10.3-5.4-23.2-15.8-24.2c-6.5-0.6-12.2,4.2-17,8.6c-38.6,35.8-77.1,71.6-115.7,107.3c-1.4-32.5-2.9-65-4.3-97.5
		c-0.4-8-1-16.7-6.4-22.7c-3.8-4.2-9.3-6.2-14.6-8.1C151.7,550.7,93.7,529.9,35.8,509c35.5-32,71.1-64,106.6-96
		c3.2-2.8,6.5-5.9,7.6-10c1.3-4.9-0.7-9.9-2.7-14.6c-19.5-45.1-39.1-90.2-58.6-135.3c37.3-3.6,75.3,0.9,110.6,13.2"/>
	<g>
		<path class="st1" d="M215.6,267.8c-2.2-56,7.9-111.5,29.5-163.2c-5.8,1.5-11.7,3.1-17.5,4.6c21.7,20.7,43.3,41.4,65,62.2
			c9.9,9.5,19.4,20,30.3,28.3c10.5,8,22.5,9.1,34.5,3.7c12.4-5.7,23.6-15.3,34.7-23c12.2-8.4,24.4-16.8,36.6-25.2
			c23.7-16.4,47.4-32.7,71.1-49.1c12.2-8.4,24.4-16.9,36.6-25.2c3.2-2.2,6.7-5.9,9.5-3.4c3.6,3,5.5,8.1,7.4,12.3
			c10.9,24.8,22.3,49.2,35.1,73.1C595,175,601.8,187.1,609,199c6.2,10.4,12.3,23.8,23.7,29.2c12.2,5.8,25,0,35.3-7
			c11.1-7.5,22-15.4,32.8-23.3c49.8-36.4,97.2-76,141.8-118.7c-5.8-1.5-11.7-3.1-17.5-4.6c10.6,48.2,21.1,96.3,31.7,144.5
			c1.5,6.8,9.8,9.4,15.4,6.3c49.8-27.5,101-52.7,153.3-75.1c26-11.2,52.4-21.7,79-31.6c13.2-4.9,26.4-9.6,39.6-14.2
			c8.1-2.8,19.7-7.3,28.3-3.7c4.5,1.8,5.6,6,5.9,10.5c0.5,7.6-0.3,15.5-1.2,23.1c-1.8,16-5.7,31.7-11,46.8c-2,5.6,2.3,11.1,7.3,12.9
			c29.7,10.6,59.4,21.3,89.1,31.9c14.8,5.3,29.7,10.6,44.5,16c1.3,0.5,2.7,1.2,4.1,1.5c0.2,0.1,0.3,0.1,0.5,0.2
			c2.2,1.6,2.3,1.1,0.4-1.6c-0.3,0-3.8,5.6-4.4,6.4c-5,6.8-10.1,13.6-15.2,20.4c-9.1,12.2-18.2,24.5-27.3,36.7
			c-8.7,11.7-18.7,23.2-25.9,36c-7.1,12.8-9,26.7-3.7,40.5c5.2,13.8,12.9,26.9,19.5,40c15.9,31.6,31.7,63.2,47.6,94.8
			c2.1-5.1,4.2-10.3,6.3-15.4c-26.4,6.2-52.8,12.3-79.2,18.5c-20.8,4.8-45.1,7.7-62.4,21.1c-19.5,15.1-19,38.8-17.2,61.2
			c2.1,26.9,4.2,53.8,6.4,80.7c5.3-3,10.5-6,15.8-9.1c-44.4-20.3-88.8-40.6-133.1-61c-21-9.6-42.9-22.7-66.3-25
			c-18.6-1.8-36,5.9-50.2,17.3c-16.5,13.2-28.9,31.2-40,48.9c6.5,1.8,13,3.5,19.6,5.3c-3.6-43.4-20.3-84-48-117.5
			c-4.7-5.7-12.9-2.8-16.5,2.1c-27.1,37.2-54.3,74.4-81.4,111.6c-6.8,9.3-13.6,18.6-20.4,27.9c-3,4.1-5.8,8.3-9,12.3
			c-1.6,2-4.4,6-7.1,6c-3.3,0-7-4.6-9.1-6.7c-3.4-3.4-6.6-7.1-9.5-10.9c-5.8-7.5-10.7-15.6-15.7-23.6c-19-30.8-42-65.9-81.3-70.5
			c-20.2-2.4-38.7,6.8-54.9,18c-17.2,12-33.8,25-50,38.3c-36.7,30-71.1,62.9-102.9,98.1c5.8,1.5,11.7,3.1,17.5,4.6
			c-3.6-25.7-7.2-51.4-10.9-77.1c-1.8-13.1-3.7-26.1-5.5-39.2c-1.6-11.3-2.4-23.1-5.1-34.2c-2.1-8.7-6.5-17.9-14.5-22.5
			c-10.2-5.9-21.4-2.1-30,4.8c-9.5,7.6-18.1,16.5-27,24.7c-9.3,8.7-18.7,17.3-28,26c-21.8,20.2-43.6,40.4-65.3,60.6
			c6,2.5,11.9,4.9,17.9,7.4c-1-22.7-2-45.3-3-68c-0.5-10.8-0.8-21.7-1.5-32.6c-0.6-9.7-2.4-19.7-9.3-27.1
			c-6.3-6.8-15.6-9.5-24.1-12.5c-10.9-3.9-21.7-7.8-32.6-11.7c-21.3-7.7-42.6-15.3-64-23c-24.1-8.7-48.3-17.4-72.4-26
			c1.5,5.8,3.1,11.7,4.6,17.5c33-29.7,66-59.4,99-89.2c6.6-5.9,14.9-11.8,17.6-20.7c3.2-10.4-2-20-6-29.3
			c-8.8-20.2-17.5-40.4-26.3-60.6c-9.9-22.9-19.9-45.9-29.8-68.8c-3,5.3-6,10.5-9.1,15.8c36.6-3.4,73.1,0.9,107.9,12.9
			c12.8,4.4,18.3-15.9,5.6-20.2c-36.3-12.4-75.2-17.1-113.4-13.6c-8.5,0.8-12.4,8.2-9.1,15.8c10.4,24.1,20.9,48.2,31.3,72.3
			c5.1,11.7,10.1,23.3,15.2,35c2.7,6.2,5.4,12.4,8.1,18.7c1.7,3.8,6.3,10.8,5.7,15.1c-0.6,3.8-6.1,7.1-8.7,9.5
			c-5.1,4.6-10.2,9.1-15.2,13.7c-9.5,8.6-19,17.1-28.5,25.7c-19.7,17.7-39.3,35.4-59,53.1c-6.3,5.7-2.3,15,4.6,17.5
			c50.7,18.2,101.4,36.5,152.1,54.7c6.4,2.3,12.9,4.6,19.3,6.9c4.1,1.5,9.5,2.8,12.4,6.3c2.4,3,2.8,7.5,3.1,11.2
			c0.5,6.5,0.6,13,0.9,19.5c1.2,27.4,2.4,54.8,3.6,82.1c0.4,9.2,11.1,13.7,17.9,7.4c34.2-31.7,68.4-63.5,102.7-95.2
			c4-3.8,8.1-7.5,12.1-11.3c2.1-2,6.5-6.8,9.3-6.5c4.2,0.4,5.8,10.8,6.4,14.2c4,22.5,6.5,45.5,9.6,68.1c3.7,26.1,7.4,52.3,11.1,78.4
			c1.1,7.8,12.7,10,17.5,4.6c28.4-31.4,58.9-61,91.2-88.4c15.9-13.5,32.3-26.4,49.2-38.7c14.8-10.9,32.1-24.1,51.6-21.2
			c37.1,5.4,54.9,47.1,73.2,74.5c9.4,14.1,24.2,37.1,43.3,37.2c9.8,0,17.4-6.3,23.1-13.6c7-8.9,13.4-18.3,20.1-27.4
			c30.9-42.4,61.8-84.7,92.7-127.1c-5.5,0.7-11,1.4-16.5,2.1c24,28.9,38.7,65.2,41.9,102.6c0.9,10.2,13.8,14.5,19.6,5.3
			c15.3-24.4,37.9-58.8,71-55.9c9.8,0.8,19.2,5,28.1,9c10.4,4.7,20.7,9.5,31.1,14.2c20.5,9.4,40.9,18.7,61.4,28.1
			c23.2,10.6,46.3,21.2,69.5,31.8c6.6,3,16.5-0.4,15.8-9.1c-1.9-24.4-3.8-48.7-5.8-73.1c-1.4-17.8-7-42.7,11-54
			c7.4-4.6,15.9-6.9,24.3-9c11.5-2.8,23-5.4,34.5-8.1c24.3-5.7,48.7-11.3,73-17c7-1.6,9.2-9.6,6.3-15.4
			c-14.3-28.6-28.7-57.2-43-85.8c-7-14-14.9-27.9-21.1-42.3c-2.5-5.7-4.1-11.5-2.6-17.8c1.7-6.8,6-12.8,10.1-18.4
			c18.7-25.9,38.2-51.3,57.3-76.9c4.1-5.4,9.1-10.9,11-17.6c2.2-7.7-0.5-15.5-7-20.2c-5.4-3.9-12.5-5.6-18.7-7.9
			c-8-2.9-16.1-5.8-24.1-8.6c-34.5-12.4-69-24.7-103.5-37.1c2.4,4.3,4.9,8.6,7.3,12.9c5.4-15.5,9.1-31.3,11.2-47.6
			c1.8-13.6,4.4-30.2-1.6-43.1c-12.3-26.6-45.6-16-66.5-8.7c-59.1,20.7-117.1,44.5-173.7,71.5c-31.9,15.2-63.2,31.3-94.1,48.4
			c5.1,2.1,10.3,4.2,15.4,6.3c-10.6-48.2-21.1-96.3-31.7-144.5c-1.7-8-12.1-9.8-17.5-4.6c-38.1,36.5-78.3,70.9-120.4,102.7
			c-10.4,7.8-20.9,15.5-31.5,23.1c-5.1,3.7-10.3,7.3-15.5,10.9c-4.4,3-9.8,7.8-15.3,8.4c-4.4,0.5-6.6-2.9-8.8-6.3
			c-3.8-5.9-7.4-11.9-10.9-18c-6.7-11.3-13.1-22.7-19.3-34.3c-12.6-23.5-23.8-47.6-34.5-72c-4-9-9.6-18.3-19.3-22
			c-12.9-5-23.6,3.7-33.7,10.7c-46.7,32.2-93.4,64.4-140.1,96.7c-6.3,4.3-12.5,8.7-18.8,13c-4.7,3.2-10.6,8.5-16.6,8.6
			c-5.3,0.2-9.7-4.8-13.3-8.2c-5.6-5.3-11.1-10.7-16.7-16c-23.5-22.5-47-45-70.6-67.5c-6.2-6-14.6-2.5-17.5,4.6
			c-22.2,53.3-32.5,111.2-30.2,168.8C195.1,281.3,216.1,281.3,215.6,267.8L215.6,267.8z"/>
	</g>
</g>
<g>
	<g>
		<path class="st2" d="M284,494c-1.6-46.9-3.3-94.9,7.8-140.9c2.7-11.3,6-22.6,10.6-33.3c3.1-7.1,8-15.2,16-8.6
			c8.2,6.8,14.1,17.3,18.9,26.6c5.3,10.3,9.3,21.1,13.1,32c9,26.2,16.1,52.9,21.3,80.1c1.8,9.5,16.3,5.5,14.5-4
			c-5.2-27.2-12.2-54-21.3-80.1c-7.8-22.5-17.1-48.3-35.2-64.7c-9-8.2-21.4-10.7-31.1-2.1c-8.3,7.3-11.8,19.3-15.2,29.5
			c-8.3,24.7-12.3,50.8-14.1,76.7c-2,29.6-1.1,59.2-0.1,88.8C269.3,503.6,284.3,503.6,284,494L284,494z"/>
	</g>
</g>
<g>
	<g>
		<path class="st2" d="M278,423.5c31.3,0,62.7,0,94,0c9.7,0,9.7-15,0-15c-31.3,0-62.7,0-94,0C268.3,408.5,268.3,423.5,278,423.5
			L278,423.5z"/>
	</g>
</g>
<g>
	<g>
		<path class="st2" d="M386.4,350c3.8,29.5-9.2,63.3,12.3,88.5c8.3,9.8,21.9,16.1,34.8,13.1c15.2-3.6,17.2-21.6,19.4-34.5
			c3.2-18.2,4-36.7,2.3-55.1c-0.9-9.5-15.9-9.6-15,0c1.6,16.7,1.2,33.6-1.6,50.2c-0.7,4.3-1.6,8.6-2.6,12.8c-0.7,3-1.1,7-2.8,9.6
			c-2.9,4.6-10.5,2.7-14.6,0.8c-13.3-6.3-17.4-21.7-17.9-35.2c-0.6-16.7,2.8-33.4,0.6-50.1c-0.5-4-3.1-7.5-7.5-7.5
			C390.3,342.5,385.9,346,386.4,350L386.4,350z"/>
	</g>
</g>
<g>
	<g>
		<path class="st2" d="M506.5,292c0,50.7,0,101.3,0,152c0,9.7,15,9.7,15,0c0-50.7,0-101.3,0-152C521.5,282.3,506.5,282.3,506.5,292
			L506.5,292z"/>
	</g>
</g>
<g>
	<g>
		<path class="st2" d="M460,349.5c34.7,0,69.3,0,104,0c9.7,0,9.7-15,0-15c-34.7,0-69.3,0-104,0C450.3,334.5,450.3,349.5,460,349.5
			L460,349.5z"/>
	</g>
</g>
<g>
	<g>
		<path class="st2" d="M585.4,368c-6.4-4.3-13.6-0.7-17.5,5.1c-4.3,6.3-4.9,15-5.8,22.3c-1.8,15.8,1.9,32.1,15.6,41.6
			c12.6,8.7,28.4,5.1,37.3-6.9c8.5-11.4,11.3-28.4,7.4-42.1c-4.6-16.2-20.9-28.3-38-23.7c-9.3,2.5-5.4,17,4,14.5
			c10.8-2.9,18.9,7.2,20.3,16.8c1.4,9.4-1,22.9-9,29c-8.3,6.4-18.3-1.8-21.4-9.9c-2.3-6.1-2.1-13-1.3-19.4c0.4-3.5,0.9-7.2,1.8-10.6
			c0.3-1.1,0.7-2,1.1-3c0.1-0.2,0.2-0.4,0.3-0.6c1.8-1.5,0.9-1.6-2.6-0.2C585.9,386.3,593.4,373.3,585.4,368L585.4,368z"/>
	</g>
</g>
<g>
	<g>
		<path class="st2" d="M634.5,372c0,20.9-0.1,41.8-0.1,62.7c0,9.8,14.1,9.5,15,0c0.9-10,3.3-19.8,7.1-29.1c1.8-4.3,3.9-8.6,6.3-12.6
			c1.4-2.3,5.5-10.6,7.9-10.3c-1.3-0.3-2.5-0.7-3.8-1c1.5,0.7,1.5,3.2,1.8,4.7c0.7,3.1,1.4,6.3,2,9.5c1.2,6.3,2.3,12.7,3.1,19.1
			c1,7.2,13.5,7.2,14.5,0c1.4-10.3,5.2-20,11.7-28.1c5.9-7.4,15.5-16.1,25.2-17.6c-1.3,0-2.7,0-4,0c-1.1-1.8-1.4-1.9-0.8-0.2
			c0.1,1,0.3,2,0.4,3c0.3,2.6,0.5,5.1,0.8,7.7c0.5,5.1,0.8,10.3,1,15.4c0.4,10.3,0.3,20.6-0.2,30.8c-0.5,9.6,14.5,9.6,15,0
			c0.8-15.4,0.6-30.9-0.8-46.2c-0.6-6.2-0.2-14.2-3.6-19.7c-4.2-6.8-11.8-5.8-18.1-3.1c-21.7,9.4-37.8,30.7-41,54.1
			c4.8,0,9.6,0,14.5,0c-0.8-6.1-1.8-12.1-3-18.2c-1-5.4-1.8-11.1-3.9-16.2c-2-4.9-5.9-8.9-11.5-9.1c-5.4-0.2-9.8,3-13,7.1
			c-13.4,17-20.6,38.6-22.6,60c5,0,10,0,15,0c0-20.9,0.1-41.8,0.1-62.7C649.5,362.3,634.5,362.3,634.5,372L634.5,372z"/>
	</g>
</g>
<g>
	<g>
		<path class="st2" d="M803.8,389.3c6.4-12.7-3.5-27.3-17.5-27.2c-15.4,0.1-24.2,14.2-28.1,27.3c-2.3,7.5-3.7,15.3-4.7,23.1
			c-0.9,6.8-2.3,14.9-0.1,21.6c5.6,17,24.6,4.5,32.6-3.2c10.9-10.4,17.2-24.7,18-39.7c-4.9,0.7-9.8,1.3-14.7,2
			c4.8,11.7,9.6,23.5,14.5,35.2c1.5,3.7,5,6.4,9.2,5.2c3.5-1,6.8-5.4,5.2-9.2c-4.8-11.7-9.6-23.5-14.5-35.2
			c-3.1-7.6-14.2-6.9-14.7,2c-0.5,9.2-4.1,18.3-10.1,25.4c-3.1,3.6-6.6,6.8-10.7,9.2c-0.3,0.2-3.8,1.8-3.9,2.1
			c1.1,0.6,2.2,1.1,3.3,1.7c-0.1-0.4-0.2-0.8-0.3-1.2c0.9-1.8,0.2-6.2,0.3-8.3c0.9-11.3,2.6-24.5,8-34.6c2.1-3.9,5.4-8,10.1-8.3
			c2-0.1,6.5,1.7,5,4.6C786.5,390.3,799.5,397.9,803.8,389.3L803.8,389.3z"/>
	</g>
</g>
<g>
	<g>
		<path class="st2" d="M844.5,294c0,44.7,0,89.3,0,134c0,9.7,15,9.7,15,0c0-44.7,0-89.3,0-134C859.5,284.3,844.5,284.3,844.5,294
			L844.5,294z"/>
	</g>
</g>
<g>
	<g>
		<path class="st2" d="M814,347.5c29.3,0,58.7,0,88,0c9.7,0,9.7-15,0-15c-29.3,0-58.7,0-88,0C804.3,332.5,804.3,347.5,814,347.5
			L814,347.5z"/>
	</g>
</g>
<g>
	<g>
		<path class="st2" d="M906.5,372c0,13.3,0,26.7,0,40c0,9.7,15,9.7,15,0c0-13.3,0-26.7,0-40C921.5,362.3,906.5,362.3,906.5,372
			L906.5,372z"/>
	</g>
</g>
<g>
	<g>
		<path class="st2" d="M918,344.7c1.7,1.2,3.8,3.1,5.8,3.6c2.5,0.6,5.2,0,7.5-1.3c3.4-1.9,6-5.4,6.7-9.2c0.8-4.3-0.6-8.9-3.9-11.8
			c-3.5-3-7.5-3.9-12-3.2c-3.9,0.6-6.4,5.7-5.2,9.2c1.4,4.2,5.1,5.9,9.2,5.2c-0.4,0.1-2.2-0.1-1.5,0.1c1,0.3-1.2-0.5-0.3-0.1
			c0.6,0.3-0.6-0.7-0.9-1c0.7,0.9,0-0.1-0.1-0.7c0-0.3,0.3-1.6,0.1-0.9c-0.3,0.8,0.7-1-0.1,0.1c0.3-0.4,0.6-0.7,1-1
			c-0.6,0.4-0.7,0.4-0.2,0.1c0.5-0.2,0.4-0.3-0.3-0.1c1.9,0.3,3.9,0.5,5.8,0.8c-1.4-1-2.7-1.9-4.1-2.9c-3.2-2.3-8.5-0.7-10.3,2.7
			C913.3,338.3,914.6,342.3,918,344.7L918,344.7z"/>
	</g>
</g>
<g>
	<g>
		<path class="st2" d="M967.7,348.1c-12.9,2.7-16.2,16.7-17.5,27.9c-1.6,14.5-1.6,30.9,10,41.6c10.5,9.7,25.4,9,35.8-0.6
			c10.4-9.7,13.2-26.5,12.4-40.1c-0.9-15.5-10.8-32.2-28.3-31.4c-9.6,0.5-9.7,15.5,0,15c12.1-0.6,13.8,14.4,13.3,23.4
			c-0.6,9.3-3.2,24.5-14.8,26c-11.1,1.4-14.2-13.9-14.2-21.8c0.1-5.8-0.5-23.8,7.4-25.5C981.1,360.6,977.1,346.1,967.7,348.1
			L967.7,348.1z"/>
	</g>
</g>
<g>
	<g>
		<path class="st2" d="M1026.3,354c0.2,19.9,0.4,39.8,0.7,59.8c0.1,7.3,10.3,10.4,14,3.8c6.4-11.4,12.7-22.8,19.2-34.1
			c2.3-3.9,4.6-7.9,7.6-11.3c2.4-2.7,6.8-7.2,10.8-6.9c1.4,0.1,1.3,0.3,1.7,2c0.5,2.3,0.2,4.9,0.3,7.3c0.1,6.6,0,13.2-0.1,19.8
			c-0.3,13.2-1.2,26.4-2.4,39.6c-0.9,9.6,14.1,9.5,15,0c1.6-16.5,2.5-33,2.6-49.5c0.1-11.9,2.3-31.6-13.8-34
			c-13.3-2-24.1,9.1-30.7,19.1c-8.5,12.9-15.5,27-23.1,40.5c4.7,1.3,9.3,2.5,14,3.8c-0.2-19.9-0.4-39.8-0.7-59.8
			C1041.2,344.4,1026.2,344.3,1026.3,354L1026.3,354z"/>
	</g>
</g>
<g>
	<g>
		<path class="st2" d="M1134.5,286c0,38.7,0,77.3,0,116c0,9.7,15,9.7,15,0c0-38.7,0-77.3,0-116
			C1149.5,276.3,1134.5,276.3,1134.5,286L1134.5,286z"/>
	</g>
</g>
<g>
	<g>
		<path class="st2" d="M1139.9,443.3c4.2,1.3,9-1.2,10.2-5.5c0.7-2.7,0.2-5.2-0.9-7.7c-1.1-2.4-3.3-4.3-5.9-5
			c-2.9-0.8-6.1-0.2-8.6,1.4c-5.1,3.3-7.7,10.9-2.8,15.6c2.3,2.2,5.9,3.1,8.9,2.2c1.4-0.4,2.9-1.2,4-2.3c1.6-1.7,2.2-3.6,2.4-5.9
			c0.2-1.8-0.9-4.1-2.2-5.3c-1.3-1.3-3.4-2.3-5.3-2.2c-1.9,0.1-4,0.7-5.3,2.2c-1.4,1.5-2,3.2-2.2,5.3c0,0.1,0,0.1,0,0.2
			c0.1-0.7,0.2-1.3,0.3-2c0,0.1,0,0.1,0,0.2c0.3-0.6,0.5-1.2,0.8-1.8c0,0.1-0.1,0.2-0.1,0.3c0.4-0.5,0.8-1,1.2-1.5
			c-0.1,0.1-0.1,0.1-0.2,0.2c0.5-0.4,1-0.8,1.5-1.2c-0.1,0.1-0.2,0.1-0.3,0.1c0.6-0.3,1.2-0.5,1.8-0.8c-0.1,0-0.2,0.1-0.3,0.1
			c0.7-0.1,1.3-0.2,2-0.3c-0.2,0-0.5,0-0.7,0c0.7,0.1,1.3,0.2,2,0.3c-0.2,0-0.3-0.1-0.5-0.1c0.6,0.3,1.2,0.5,1.8,0.8
			c-0.1,0-0.2-0.1-0.3-0.2c0.5,0.4,1,0.8,1.5,1.2c-0.1-0.1-0.2-0.1-0.2-0.2c0.4,0.5,0.8,1,1.2,1.5c-0.1-0.1-0.1-0.2-0.2-0.3
			c0.3,0.6,0.5,1.2,0.8,1.8c0-0.1-0.1-0.2-0.1-0.3c0.1,0.7,0.2,1.3,0.3,2c0-0.1,0-0.1,0-0.2c-0.1,0.7-0.2,1.3-0.3,2
			c0.1-0.4,0.2-0.8,0.3-1.2c-0.3,0.6-0.5,1.2-0.8,1.8c0.1-0.2,0.3-0.5,0.4-0.7c-0.4,0.5-0.8,1-1.2,1.5c0.2-0.3,0.5-0.5,0.8-0.8
			c-0.5,0.4-1,0.8-1.5,1.2c0.3-0.2,0.6-0.4,0.9-0.6c-0.6,0.3-1.2,0.5-1.8,0.8c0.3-0.1,0.7-0.2,1-0.3c-0.7,0.1-1.3,0.2-2,0.3
			c0.3,0,0.5,0,0.8,0c-0.7-0.1-1.3-0.2-2-0.3c0.2,0,0.4,0.1,0.5,0.1c-0.6-0.3-1.2-0.5-1.8-0.8c0.1,0,0.1,0.1,0.2,0.1
			c-0.5-0.4-1-0.8-1.5-1.2c0.2,0.1,0.3,0.3,0.4,0.4c-0.4-0.5-0.8-1-1.2-1.5c0.2,0.3,0.4,0.6,0.5,0.9c-0.3-0.6-0.5-1.2-0.8-1.8
			c0.1,0.3,0.2,0.6,0.3,1c-0.1-0.7-0.2-1.3-0.3-2c0,0.2,0,0.3,0,0.5c0.1-0.7,0.2-1.3,0.3-2c0,0.2-0.1,0.3-0.1,0.4
			c0.3-0.6,0.5-1.2,0.8-1.8c0,0,0,0.1-0.1,0.1c0.4-0.5,0.8-1,1.2-1.5c0,0-0.1,0.1-0.1,0.1c0.5-0.4,1-0.8,1.5-1.2
			c-0.1,0.1-0.1,0.1-0.2,0.1c0.6-0.3,1.2-0.5,1.8-0.8c0,0-0.1,0-0.1,0c0.7-0.1,1.3-0.2,2-0.3c0,0-0.1,0-0.1,0c0.7,0.1,1.3,0.2,2,0.3
			c-0.1,0-0.2,0-0.3-0.1c-3.8-1.1-8.3,1.4-9.2,5.2C1133.7,438.1,1135.9,442,1139.9,443.3L1139.9,443.3z"/>
	</g>
</g>
</svg>
