<?xml version="1.0" encoding="utf-8"?>
<!-- Generator: Adobe Illustrator 19.2.1, SVG Export Plug-In . SVG Version: 6.00 Build 0)  -->
<svg version="1.1" id="Layer_1" xmlns="http://www.w3.org/2000/svg" xmlns:xlink="http://www.w3.org/1999/xlink" x="0px" y="0px"
	 viewBox="0 0 1156.4 705.6" style="enable-background:new 0 0 1156.4 705.6;" xml:space="preserve">
<style type="text/css">
	.st0{fill:none;stroke:#FFFFFF;stroke-width:3;stroke-linecap:round;stroke-linejoin:round;stroke-miterlimit:10;}
	.st1{fill:#FF7BAC;stroke:#FFFFFF;stroke-width:3;stroke-linecap:round;stroke-linejoin:round;stroke-miterlimit:10;}
	.st2{fill:#911C4C;stroke:#FFFFFF;stroke-width:3;stroke-linecap:round;stroke-linejoin:round;stroke-miterlimit:10;}
	.st3{fill:#72334D;stroke:#FFFFFF;stroke-width:3;stroke-linecap:round;stroke-linejoin:round;stroke-miterlimit:10;}
	.st4{fill:#563442;stroke:#FFFFFF;stroke-width:3;stroke-linecap:round;stroke-linejoin:round;stroke-miterlimit:10;}
	.st5{fill:#EDBCD0;stroke:#FFFFFF;stroke-width:3;stroke-linecap:round;stroke-linejoin:round;stroke-miterlimit:10;}
	.st6{fill:#CC3673;stroke:#FFFFFF;stroke-width:3;stroke-linecap:round;stroke-linejoin:round;stroke-miterlimit:10;}
	.st7{fill:#99174C;stroke:#FFFFFF;stroke-width:3;stroke-linecap:round;stroke-linejoin:round;stroke-miterlimit:10;}
	.st8{fill:#C11E60;stroke:#FFFFFF;stroke-width:3;stroke-linecap:round;stroke-linejoin:round;stroke-miterlimit:10;}
	.st9{fill:none;}
	.st10{font-family:'BalooThambi-Regular';}
	.st11{font-size:36px;}
	.st12{fill:#C11E60;}
	.st13{font-size:45px;}
	.st14{opacity:0.7;fill:#5D5D5D;enable-background:new    ;}
	.st15{fill:none;stroke:#F15A24;stroke-width:3;stroke-miterlimit:10;}
</style>
<g>
	<path class="st0" d="M779.2,375.7l13-1L779.2,375.7L779.2,375.7z"/>
	<polygon class="st1" points="719.9,258.2 719.9,258.2 607.5,388.7 	"/>
	<polygon class="st1" points="746,286.4 746,286.4 607.5,388.7 	"/>
	<polygon class="st1" points="518,241.6 518,241.6 607.5,388.7 	"/>
	<path class="st1" d="M779.2,378.2v-1.3l-171.7,12.4L504.4,251.1c-42,31.4-69.1,81.4-69.1,137.8c0,95.1,77.1,174.6,172.2,174.6
		c95,0,172.1-75.5,172.2-169.5l-0.5-7.5V378.2z"/>
	<path class="st2" d="M518,241.6c-4.7,2.8-9.2,5.9-13.6,9.2l103.1,138L518,241.6z"/>
	<path class="st3" d="M556,224.4c-13.4,4.2-26.2,10-38,17.2l89.5,147.2L556,224.4z"/>
	<path class="st4" d="M556,224.4l51.5,164.4l112.4-130.5c-30.2-26-69.4-41.7-112.4-41.7C589.5,216.5,572.2,219.3,556,224.4z"/>
	<path class="st3" d="M556,224.4l51.5,164.3L556,224.4z"/>
	<path class="st5" d="M746,286.4c-7.7-10.4-16.4-19.8-26.2-28.2L607.5,388.7L746,286.4z"/>
	<path class="st6" d="M779.2,375.7c-2.5-33.3-14.5-63.9-33.2-89.2L607.5,388.7L779.2,375.7z"/>
	<path class="st7" d="M779.2,377.2L607.4,389l172.3,4c0-1,0-1.4,0-1.5C779.7,387.1,779.5,381.5,779.2,377.2z"/>
</g>
<circle class="st8" cx="475" cy="628.8" r="16.2"/>
<rect x="113.5" y="533.6" class="st9" width="315" height="42.4"/>
<text transform="matrix(1 0 0 1 113.4965 557.3908)" class="st10 st11">Images - 1699 KB</text>
<rect x="171.3" y="241.2" class="st9" width="238.5" height="42.4"/>
<text transform="matrix(1 0 0 1 171.2682 265.0258)" class="st10 st11">HTML - 26 KB</text>
<rect x="73" y="199.5" class="st9" width="362.3" height="42.4"/>
<text transform="matrix(1 0 0 1 73.0116 223.3083)" class="st10 st11">Stylesheets - 59 KB</text>
<rect x="812.5" y="195.3" class="st9" width="362.3" height="42.4"/>
<text transform="matrix(1 0 0 1 812.4747 219.1147)" class="st10 st11">Scripts - 346 KB</text>
<rect x="812.5" y="250.2" class="st9" width="362.3" height="42.4"/>
<text transform="matrix(1 0 0 1 812.4747 274.0258)" class="st10 st11">Fonts - 95 KB</text>
<rect x="812.5" y="312.4" class="st9" width="362.3" height="42.4"/>
<text transform="matrix(1 0 0 1 812.4747 336.1872)" class="st10 st11">Video - 703 KB</text>
<rect x="812.5" y="371.8" class="st9" width="362.3" height="42.4"/>
<text transform="matrix(1 0 0 1 812.4747 395.6147)" class="st10 st11">Other - 15 KB</text>
<rect x="500.5" y="614.3" class="st9" width="453" height="61.5"/>
<text transform="matrix(1 0 0 1 500.4735 638.135)" class="st10 st11">Total - 2987 KB</text>
<rect x="-3" y="37.9" class="st9" width="1159.4" height="81.5"/>
<text transform="matrix(1 0 0 1 161.7583 67.6191)" class="st12 st10 st13">Average Bytes per Page by Content Type</text>
<rect x="430.5" y="660.7" class="st9" width="1159.4" height="65.6"/>
<text transform="matrix(1 0 0 1 877.6312 684.477)" class="st14 st10 st11">June 15, 2017</text>
<line class="st15" x1="405" y1="216.5" x2="546" y2="241.2"/>
<line class="st15" x1="409.8" y1="258.2" x2="518" y2="258.2"/>
<line class="st15" x1="693.5" y1="251.1" x2="795.2" y2="213.5"/>
<line class="st15" x1="727.7" y1="282" x2="799.5" y2="267.4"/>
<line class="st15" x1="755.1" y1="332.9" x2="801.5" y2="329.6"/>
<line class="st15" x1="802.5" y1="385.1" x2="766.4" y2="385.1"/>
<line class="st15" x1="417" y1="546.6" x2="500.5" y2="501.6"/>
</svg>
