<?xml version="1.0" encoding="utf-8"?>
<!-- Generator: Adobe Illustrator 19.2.1, SVG Export Plug-In . SVG Version: 6.00 Build 0)  -->
<svg version="1.1" id="Layer_1" xmlns="http://www.w3.org/2000/svg" xmlns:xlink="http://www.w3.org/1999/xlink" x="0px" y="0px"
	 viewBox="0 0 1117.1 741.1" style="enable-background:new 0 0 1117.1 741.1;" xml:space="preserve">
<style type="text/css">
	.st0{fill:#FBBC7D;stroke:#776232;stroke-width:2;stroke-miterlimit:10;}
	.st1{fill:#1C120D;}
	.st2{fill:#42210B;stroke:#3B2314;stroke-width:4;stroke-miterlimit:10;}
	.st3{fill:#603813;}
	.st4{fill:#3B2314;}
	.st5{fill:#42210B;}
	.st6{opacity:0.24;fill:#FFFFFF;enable-background:new    ;}
	.st7{opacity:0.36;fill:#FFFFFF;enable-background:new    ;}
	.st8{opacity:0.31;fill:none;stroke:#603813;stroke-miterlimit:10;enable-background:new    ;}
	.st9{fill:#FFFFFF;stroke:#A6A8AB;stroke-miterlimit:10;}
	.st10{opacity:0.43;fill:#FFFFFF;enable-background:new    ;}
	.st11{fill:#729AB6;stroke:#303F49;stroke-width:3;stroke-miterlimit:10;}
	.st12{fill:none;stroke:#303F49;stroke-width:3;stroke-miterlimit:10;}
	.st13{fill:none;stroke:#000000;stroke-width:4;stroke-miterlimit:10;}
	.st14{fill:#776232;}
	.st15{opacity:0.44;fill:#EC297B;enable-background:new    ;}
	.st16{fill:#FBBC7D;}
	.st17{fill:#303F49;stroke:#121112;stroke-width:3;stroke-miterlimit:10;}
	.st18{fill:#C4C4C4;}
	.st19{fill:#231F20;}
</style>
<polygon class="st0" points="364.6,433.8 381.3,466 399.7,454.9 375.7,411.2 349.9,416.5 "/>
<path class="st1" d="M350.2,519.6c0,0-12.3,30.9-21.2,31.5c-8.9,0.7-4.1-25.5-4.1-25.5s26.4-1.2,13.1-17.6
	C324.8,491.6,350.2,519.6,350.2,519.6z"/>
<polygon class="st0" points="293.2,421.3 288.8,457.3 267.7,453.3 275.1,404 301,400 "/>
<path class="st2" d="M370.3,128.7c0,0,54.4-32,97.9,27.3s-11.9,110.5-5.9,115.9s21.3,16.8,22.7,46.1c1.3,29.3-2,44.7-32.3,53
	s-53-3-62.3,9s-42,8-65,6.7s-23.6,2.1-37-1.3c-17.4-4.5-12.7-2.7-36-4.7s-32.7-10-39.3-5c-6.7,5-29.3-5.8-28-23.4
	c0,0-57.3-7.2-14.5-58.9c0,0,17.7-15.6,5.8-44.1c-21.7-52,34.1-68.4,36.9-88c3.4-24,27.1-48.7,73.7-62.7
	C329.8,85.8,340.3,99.3,370.3,128.7z"/>
<path class="st0" d="M341.6,363.3c0,0,0.7,7.4,0,12.7c-0.7,5.3,0.3,38.3,0.3,38.3l-19-6.6l-4.7-25.7l8.7-6v-15.7L341.6,363.3z"/>
<path class="st0" d="M247.6,210c0,0-40,43.3-10.7,102s98.6,52.4,98.6,52.4s77.6-1.1,78.5-76.8c0,0,24.2,5.5,29.6-15.8
	s-7.3-39.7-24.7-30.8l0.7-31.1l-22-71.3l-29.3-3.3L335.5,114L247.6,210z"/>
<path class="st3" d="M342.7,202.6c-1.5,2.2-2.2,11.5,0,10.6c2.2-0.8,35.8-8.3,38.5-7.3s24.2,6.2,24.2,6.2s-17.4-15.2-24.2-15.2
	S342.7,202.6,342.7,202.6z"/>
<path class="st3" d="M302.5,202.3c0,0,1.5,8.5,0,10s-29-13.5-29-13.5l3.5-6L302.5,202.3z"/>
<g>
	<path class="st4" d="M260,206.5c-1.4,0.7-2.8,1.4-4.3,2.1c-1.4,0.7-2.8,1.5-4.2,2.3c-2.7,1.6-5.4,3.2-8,5c-1.3,0.9-2.6,1.8-3.8,2.7
		c-1.3,0.9-2.5,1.9-3.7,2.8l-1.8,1.5l-1.7,1.5c-1.1,1-2.3,2.1-3.4,3.2c-1.1,1.1-2.1,2.2-3.1,3.4l-1.5,1.8l-1.4,1.8
		c-0.5,0.6-0.9,1.3-1.3,1.9c-0.4,0.6-0.8,1.3-1.2,1.9c-0.4,0.7-0.8,1.3-1.1,2l-1,2c-0.5,1.4-1.2,2.8-1.6,4.2
		c-0.5,1.4-0.8,2.9-1.1,4.4l-0.3,2.2c-0.1,0.7-0.1,1.5-0.2,2.2c-0.2,1.5,0,3,0,4.5v-0.3c0.2,0.7,0.4,1.4,0.7,2.2
		c0.3,0.7,0.6,1.5,0.9,2.2c0.3,0.7,0.7,1.4,1,2.1c0.4,0.7,0.8,1.4,1.2,2s0.9,1.3,1.4,1.8c0.5,0.6,1,1.1,1.6,1.6s1.2,1,1.8,1.4
		s1.3,0.8,2,1.1c0.4,0.1,0.7,0.3,1.1,0.4l1.1,0.3c0.7,0.2,1.5,0.3,2.3,0.4c0.4,0.1,0.8,0.1,1.2,0.1s0.8,0,1.2,0
		c0.8-0.1,1.6-0.1,2.4-0.3c0.8-0.1,1.6-0.3,2.4-0.5c0.8-0.2,1.5-0.5,2.3-0.7l2.3-0.9l2.2-1.1l-2.1,1.4c-0.7,0.4-1.4,0.9-2.2,1.3
		s-1.5,0.8-2.3,1.1c-0.8,0.3-1.6,0.6-2.4,0.9c-0.8,0.3-1.7,0.4-2.5,0.6c-0.4,0.1-0.9,0.1-1.3,0.2c-0.4,0.1-0.9,0.1-1.3,0.1
		c-0.9,0-1.8-0.1-2.6-0.2l-1.3-0.3c-0.4-0.1-0.9-0.3-1.3-0.4c-0.8-0.3-1.7-0.7-2.5-1.1s-1.5-0.9-2.2-1.5c-0.7-0.5-1.4-1.2-2-1.8
		c-0.6-0.6-1.2-1.3-1.7-2c-1.1-1.4-2-2.9-2.8-4.5c-0.4-0.8-0.7-1.6-1.1-2.4c-0.3-0.8-0.6-1.6-0.9-2.5v-0.1v-0.1
		c-0.1-1.7-0.3-3.3-0.2-5c0.1-0.8,0-1.7,0.1-2.5l0.3-2.5c0.3-1.6,0.6-3.3,1.2-4.9c0.4-1.6,1.1-3.2,1.7-4.7l1.1-2.2
		c0.4-0.7,0.8-1.4,1.2-2.2c0.4-0.7,0.9-1.4,1.3-2.1c0.5-0.7,0.9-1.4,1.4-2l1.5-2l1.6-1.9c1.1-1.2,2.2-2.4,3.4-3.5s2.4-2.2,3.7-3.2
		s2.6-2,3.9-2.9c1.3-0.9,2.7-1.8,4-2.7c1.4-0.9,2.8-1.7,4.2-2.4c2.8-1.6,5.7-2.9,8.7-4.2c1.5-0.6,3-1.2,4.5-1.7
		C257,207.4,258.5,206.9,260,206.5z"/>
</g>
<polygon class="st5" points="368.3,135.3 380.2,139.4 388.1,145.5 394.3,154 397.5,167.7 399.2,188 403,206.6 410.3,220.2 
	423.1,230.3 452.6,167.7 394.3,130 383.8,127.3 369.2,131.8 346.3,114 335.5,114 252.3,168.5 210.4,217.2 241,220 252.3,217.8 
	265.8,210.9 279.4,199 302.6,168.5 322.2,138 333,126.7 346.3,124.2 358.7,128.5 "/>
<g>
	<path class="st4" d="M462.3,224c-1,3.2-3.1,6.2-5.9,8.2s-6.3,3-9.7,3.4c-3.4,0.4-6.9,0.2-10.3-0.5l-2.5-0.5
		c-0.8-0.2-1.7-0.3-2.5-0.6c-1.7-0.5-3.4-0.9-5-1.5c-3.3-1.1-6.4-2.8-9.3-4.7l-2.1-1.5c-0.7-0.6-1.3-1.1-2-1.7
		c-0.7-0.6-1.3-1.2-1.9-1.8s-1.2-1.3-1.7-2c-2.3-2.7-4.1-5.7-5.6-8.9s-2.7-6.5-3.5-9.8c-0.9-3.4-1.6-6.8-2-10.2
		c-0.5-3.4-0.9-6.8-1.2-10.2l-0.8-10.2c-0.3-3.4-0.6-6.7-1.3-9.9c-0.2-0.8-0.3-1.6-0.5-2.4c-0.1-0.4-0.2-0.8-0.3-1.2l-0.4-1.1
		l-0.2-0.6l-0.2-0.5l-0.2-0.5l-0.1-0.3l-0.1-0.1v-0.1l0,0c0,0,0-0.1,0,0l-1.3-2.2c-0.4-0.8-0.9-1.4-1.4-2s-0.9-1.3-1.5-1.9
		c-0.5-0.6-1.1-1.2-1.6-1.8l-1.7-1.7c-2.4-2.1-5.1-3.9-8-5.3c-1.5-0.7-3-1.3-4.5-1.7c-0.8-0.2-1.5-0.4-2.3-0.6
		c-0.8-0.2-1.6-0.3-2.3-0.4l-0.7-0.1l-0.5-0.5c-1.7-1.6-3.7-3.1-5.7-4.4c-2-1.3-4.1-2.5-6.3-3.5c-4.4-1.9-9.1-3-13.7-2.6
		c-2.3,0.2-4.5,0.8-6.6,1.8l-0.4,0.2l-0.2,0.1h-0.1l0,0c0.3-0.1,0,0,0.1,0l-0.8,0.5l-0.8,0.5l-0.6,0.5c-0.8,0.6-1.6,1.5-2.5,2.3
		c-3.2,3.6-6.1,7.7-8.8,11.8c-5.5,8.3-10.7,17-16.3,25.4c-2.8,4.2-5.7,8.4-8.6,12.5c-3,4.1-6.1,8.1-9.4,12s-6.8,7.6-10.6,11
		c-1,0.8-1.9,1.7-2.9,2.5l-3,2.4l-3.1,2.2c-1,0.8-2.2,1.4-3.3,2.1c-4.4,2.6-9.2,4.7-14.3,5.9c-1.3,0.2-2.5,0.5-3.8,0.7l-3.9,0.3
		c-1.3,0-2.5,0-3.8,0.1c-1.3,0-2.6-0.1-3.8-0.1c-5.1-0.2-10.2-0.9-15.1-2.1c-4.9-1.2-9.8-3-14.2-5.4c-4.5-2.4-8.6-5.5-12.2-9.1
		c-1.8-1.8-3.4-3.8-4.8-5.9c-1.4-2.1-2.7-4.3-3.6-6.6c2.1,4.6,5.3,8.6,8.9,12c3.6,3.5,7.8,6.3,12.2,8.5c4.5,2.2,9.2,3.8,14.1,4.8
		c4.9,1,9.8,1.5,14.8,1.6c1.2,0,2.5,0,3.7,0c1.2-0.1,2.5-0.1,3.7-0.2l3.6-0.4c1.2-0.2,2.4-0.5,3.6-0.8c4.7-1.2,9.2-3.3,13.4-5.9
		c1-0.7,2.1-1.3,3.1-2l3-2.2l2.8-2.4c1-0.8,1.8-1.7,2.7-2.5c3.6-3.4,7-7,10.2-10.9c3.2-3.8,6.2-7.8,9.1-11.9
		c2.9-4.1,5.7-8.2,8.4-12.5c2.7-4.2,5.4-8.5,8-12.7c2.7-4.3,5.3-8.6,8.1-12.8c2.8-4.2,5.7-8.5,9.2-12.4c1-1,1.8-1.9,3-2.8l0.9-0.7
		l0.8-0.5l0.8-0.5l0.2-0.1h0.1l0.1-0.1l0.2-0.1l0.5-0.2c2.5-1.1,5.2-1.8,7.9-2.1c5.5-0.5,10.9,0.8,15.7,2.9c2.4,1.1,4.7,2.4,6.9,3.8
		c2.2,1.5,4.2,3,6.2,4.8l-1.2-0.5c2,0.2,3.6,0.6,5.4,1.2c1.7,0.5,3.4,1.2,5,2c3.2,1.6,6.2,3.6,8.9,6l1.9,1.9c0.6,0.7,1.2,1.3,1.8,2
		c0.6,0.6,1.1,1.4,1.6,2.2c0.5,0.7,1.1,1.5,1.5,2.2l1.3,2.2c0.1,0.1,0,0.1,0.1,0.1l0,0v0.1l0.1,0.2l0.1,0.3l0.3,0.6l0.3,0.6l0.2,0.6
		l0.4,1.3c0.1,0.4,0.2,0.9,0.3,1.3c0.2,0.9,0.4,1.7,0.6,2.6c0.6,3.5,0.9,6.9,1.2,10.3l0.7,10.2c0.2,3.4,0.5,6.7,1,10.1
		c0.4,3.3,1,6.6,1.8,9.9c0.8,3.3,1.8,6.4,3.1,9.5c1.3,3,3,5.9,5,8.5c0.5,0.7,1,1.3,1.6,1.9c0.6,0.6,1.1,1.2,1.7,1.8s1.2,1.1,1.8,1.7
		l2,1.5c2.7,1.9,5.6,3.6,8.7,4.8c3.1,1.3,6.3,2.1,9.7,2.9c3.2,0.8,6.6,1,10,0.8c3.3-0.3,6.7-1.1,9.5-2.9
		C459,230,461.1,227.2,462.3,224z"/>
</g>
<path class="st6" d="M397.6,138.7c0,0,16.2-3.9,16.4,19.7s4.8,48.8,24.3,39.7c14.3-6.7,14.3-18.2,14.3-18.2s-13,11.6-21.7,8.2
	C414.1,181.3,429.6,117.3,397.6,138.7z"/>
<path class="st7" d="M410.3,199.9c0,0,11.2,14,25,21.5c9,4.9,19.6,5.9,27,2.5C462.3,224,429,242.5,410.3,199.9z"/>
<path class="st6" d="M273,150.7l4.7-16.3l-13.3,18.3c-0.5-25.3,31.3-33.3,31.3-33.3c-26.7-2-36.8,21.4-40.4,33
	c-8.6,27.4-34.9,45.7-34.9,45.7c10.6,1.4,21.1-3.7,26-10l18.7-24c-1,14.8-16,34-16,34c11.3,0.7,28-14.7,36-42s42-42,42-42
	S285.6,132.9,273,150.7z"/>
<path class="st8" d="M419,250.7c0,0,7-5.2,11-4s6.3,10.5,6.3,17.3s-2.3,12.5-4.3,12.4s-5-9.6-10.5-6.6"/>
<path class="st3" d="M421.7,268.2c0,0,3.3-3.3,3.4-3.9s-3.3-4.6,0-4.6s5.3,3,4.8,4.6S421.7,268.2,421.7,268.2z"/>
<circle class="st9" cx="422" cy="279.1" r="6"/>
<path class="st10" d="M206.7,231.1c0,0-20,22.5-3.3,41.2C203.3,272.4,174.7,256.3,206.7,231.1z"/>
<path class="st6" d="M183.6,302c0,0-28.6,17.3-13.6,33.8C170,335.8,162.6,322.7,183.6,302z"/>
<path class="st6" d="M203.3,272.4c0,0,29.3,19.9,17,23.5c-12.3,3.5-25.6,6.2-25.6,6.2s18.4-6.3,18.6-12.1
	C213.3,284,203.3,272.4,203.3,272.4z"/>
<path class="st10" d="M451.2,295.8c0,0,27.3,17.5,24.4,28.9c-2.9,11.3-26.3,6.7-26.3,14s6.3,6.7,6.3,6.7s-8,12-30.5,12.6
	c0,0,15.3-5.9,19.7-12.6c4.4-6.7-4.9-16-1.2-16s25,2.7,25-6C468.7,314.7,464.3,304.3,451.2,295.8z"/>
<path class="st10" d="M226.2,326.9c0,0-27.9,17.2-12.7,18.5s34,5.7,23.3,8.5c-10.8,2.8-20.1,8.3-20.1,8.3l7.8-8.3
	c0,0-29.1,2.2-18.1-11.2S226.2,326.9,226.2,326.9z"/>
<path class="st10" d="M206.7,183.6c0,0,34.1,8.5,33.2-15.8c-1.6-42.9,35.8-45.6,8.7-36c0,0-14.7,11.4-15.4,24.3
	C232.3,172.4,235.4,184.7,206.7,183.6z"/>
<polygon class="st11" points="279.5,397.7 288.5,387.5 307.8,385.6 328.3,412 350,388.4 370,388.4 375.3,407.7 361,421.3 347,479 
	307.3,474.6 293.3,412.7 286.9,416.3 "/>
<polygon class="st11" points="324.7,410.2 330.1,412 328.3,475.8 324.3,477 "/>
<polygon class="st11" points="304.8,382 320.2,377.4 326.1,407.7 "/>
<polygon class="st11" points="328.3,412 344.1,375.7 360.6,388.4 "/>
<polygon class="st11" points="271.1,410.1 277.7,398.2 297.7,415.1 292.9,421.5 "/>
<line class="st12" x1="355" y1="414.3" x2="358.4" y2="432"/>
<polygon class="st11" points="355,421.3 362.6,432 380.6,417 375.3,407.7 "/>
<path class="st13" d="M241,225.7"/>
<path class="st13" d="M296.3,230.7"/>
<g>
	<path class="st14" d="M317.6,242.7c0,0-0.1,1-0.3,2.7c-0.2,1.7-0.6,4.1-1.4,7c-0.4,1.4-0.8,3-1.4,4.6s-1.3,3.3-2.3,5
		c-0.5,0.9-1.1,1.7-1.9,2.5s-1.9,1.7-3.6,1.9c-1.7,0.2-3.5,0.5-5.2,1s-3.4,1.1-4.9,1.9c-1.4,0.8-2.6,1.8-2.8,2.7
		c-0.1,0.4-0.1,0.9,0.1,1.5l0.2,0.4l0.3,0.4v0.1l0,0l0,0c0,0,0,0.1,0,0l0.1,0.1l0.2,0.2l0.4,0.5c0.3,0.4,0.5,0.6,0.7,0.9
		s0.5,0.5,0.7,0.8c0.5,0.5,1,1,1.6,1.4c1.1,0.8,2.2,1.5,3.2,2s1.9,0.9,2.7,1.2c1.6,0.6,2.5,0.8,2.5,0.8s-0.2,0-0.7,0.1
		c-0.5,0-1.1,0-2,0c-1.7-0.1-4.2-0.6-7-2.1c-0.7-0.4-1.4-0.8-2-1.3c-0.4-0.2-0.7-0.5-1-0.8s-0.7-0.6-1-0.9l-0.4-0.4l-0.2-0.2
		l-0.1-0.1l-0.2-0.2c-0.2-0.2-0.3-0.4-0.5-0.6l-0.4-0.7c-0.6-1-0.9-2.3-0.7-3.7c0.2-1.4,1-2.5,1.7-3.3c0.8-0.9,1.7-1.5,2.6-2.1
		c1.8-1.1,3.8-1.8,5.8-2.4c2-0.5,4-0.9,6.1-1c0.2,0,0.8-0.2,1.3-0.7s1-1.1,1.5-1.8c0.9-1.3,1.8-2.8,2.5-4.3c0.7-1.4,1.4-2.8,2-4.1
		c1.2-2.6,2.1-4.8,2.8-6.4C317.3,243.6,317.6,242.7,317.6,242.7z"/>
</g>
<circle class="st15" cx="259.1" cy="273.1" r="9.1"/>
<circle class="st15" cx="388.3" cy="275.8" r="9.5"/>
<g>
	<polygon points="363,255.7 374.6,258 382.2,253.9 392.9,246.5 399.6,236.9 390.9,239.8 382.7,243.9 368.5,247.9 346.3,242.5 	"/>
	<path d="M397.1,238.1c9.8-1.4,11.7,1.3,11.7,1.3c-5.1-0.8-11.3,2.6-11.3,2.6"/>
	<path class="st16" d="M327.9,239.1c0,0,45,20.3,79.1,4.7c7.2-3.3-17.6,21.4-17.6,21.4l-35.5-3.8L327.9,239.1z"/>
	<path d="M333.9,237.7c0,0,58.7,4.4,65.9,0.6c-7.1,3.4-18,13.8-40.4,7.7C344.2,241.7,333.9,237.7,333.9,237.7z"/>
</g>
<path class="st0" d="M242.3,228.3c0,0,6.8-5.6,33.5-7.6"/>
<path class="st0" d="M362.3,225.3c9.7,0,24.3,7,33,10.6"/>
<path class="st0" d="M295.2,308.4c0,0,5.1,15.5,24.1,15.5s25.5-25.5,25.5-25.5"/>
<path class="st17" d="M307.3,472.6c0,0-54.3-52.9-71.5-22.4c-17.2,30.5,88.5,72.2,88.5,72.2h11.2c0,0,112-40.3,100.8-63.7
	C419.3,423.1,347,477,347,477S320.6,479.2,307.3,472.6z"/>
<polygon class="st0" points="315.5,494 308,515.4 324.3,522.4 331.5,506 "/>
<polygon class="st0" points="341.3,498.7 348.5,517.5 330.1,530.7 328.2,544.5 308,534 318.2,522.4 341.3,498.7 "/>
<path class="st4" d="M306,534c0,0,12.3,30.9,21.2,31.5c8.9,0.7,4.1-25.5,4.1-25.5s-26.4-1.2-13.1-17.6S306,534,306,534z"/>
<path class="st17" d="M381.6,465.4L331.5,506c0,0,2,16.2,18.7,13.6"/>
<path class="st17" d="M288.8,457.3l26.6,36.7c0,0,6.6,16.8-7.4,21.4"/>
<path class="st0" d="M252.6,435.2c0,0-8.4-1.6-8.5,3.9c-0.2,5.5,1.4,12,10.6,13c9.2,1,11.6-10,14-8.5
	C271.1,445.3,266.8,435.3,252.6,435.2z"/>
<path class="st0" d="M414.4,440.4c0,0,8.4-1.6,8.5,3.9s-1.4,12-10.6,13c-9.2,1-11.6-10-14-8.5C395.9,450.4,400.2,440.5,414.4,440.4z
	"/>
<ellipse class="st18" cx="338.5" cy="617.3" rx="71.8" ry="20.2"/>
<g>
	<g>
		<path class="st19" d="M553,319.6c30.5-10.6,57.8-29.5,78.3-54.5c4.9-6,9.6-12.2,13.5-18.9c2.9-5,5.7-12,2.2-17.4
			c-8.8-13.8-26.9,5-33.6,11.4c-24.4,23.1-44.4,50.8-58.9,81.1c-7.2,15-13.1,30.6-17.5,46.7c-2.1,7.6-8.7,28.8,5.1,30
			c8.1,0.8,13.9-9.6,17.9-15.3c5.5-7.8,10.2-16.2,13-25.4c4.7-15.8,2.5-33.9-9.4-46c-1,1.3-2,2.6-3,3.9
			c32.5,15.6,68.9,1.5,98.6-13.9c-1.1-1.1-2.3-2.3-3.4-3.4c-5.3,9-8.8,18.7-10.5,29c-0.2,1.3,0.3,2.7,1.7,3.1
			c30.5,8.2,45.4-28.8,70.1-37.8c-1-0.6-2.1-1.2-3.1-1.7c4.1,10.3,6,20.9,5.6,32c-0.1,2.9,4.1,3.3,4.9,0.7
			c4.8-15,17.4-26.1,32.8-29.2c-0.9-1.2-1.9-2.4-2.8-3.7c-7.5,17.8,6.2,42.9,26.7,43c8.9,0.1,16.7-6.6,22.6-12.7
			c6.2-6.5,11.5-14,16.4-21.6c7.8-12,21-16,34.7-12.4c0.4-1.6,0.9-3.2,1.3-4.8c-12.4-3.2-26,0.8-34.7,10.2
			c-7.2,7.7-11.8,21.6-4,30.6c9.1,10.5,24.7,0,31.7-7.9c8.9-10,13-23.3,11.1-36.6c-0.6,1-1.2,2.1-1.7,3.1
			c24.1-6.3,45.1-21.5,59.3-41.9c6.8-9.8,13.3-22.1,15.1-34.1c0.7-4.7-1.1-9.2-6.1-10.1c-5-0.9-9.9,2.3-14,4.8
			c-22.2,13.8-39.8,34.6-50,58.6c-8.6,20.2-18.5,53.6,4.2,68.1c27.3,17.4,55.6-5.2,75.1-23.4c2.4-2.2-1.2-5.7-3.5-3.5
			c-16.1,15.1-36.4,33.4-60.4,26.5c-10.9-3.1-18.9-11.2-19.8-22.7c-1-11.4,2.2-23.8,5.8-34.5c7.2-21,20.2-40,37.1-54.4
			c4.1-3.4,8.3-6.6,12.8-9.5c2-1.3,4.1-2.7,6.3-3.7c1.1-0.5,3.4-1.6,4.7-1.3c2.7,0.5,3,3.5,2.7,6c-0.6,4.9-3.3,10.6-5.3,15
			c-2.2,4.8-4.8,9.5-7.7,13.9c-13.4,20.2-34,35.3-57.5,41.4c-1.4,0.4-1.9,1.7-1.7,3.1c1.4,10.2-1.5,20.6-7.6,28.9
			c-4.7,6.4-19.7,20-27,10.5c-6.1-7.9-0.2-19.5,6.1-25.2c7.5-6.8,18.1-9.6,27.9-7c3.1,0.8,4.4-4,1.3-4.8
			c-11.8-3.1-25.6-1.5-34.7,7.2c-3.3,3.2-5.6,7.4-8.1,11.2c-3.1,4.6-6.3,9-9.9,13.2c-7.4,8.7-17.4,18.5-29.6,13.1
			c-12.3-5.4-20.6-20.8-15.1-33.7c0.9-2-0.5-4.1-2.8-3.7c-17.1,3.4-31.1,16.1-36.3,32.7c1.6,0.2,3.3,0.4,4.9,0.7
			c0.4-11.4-1.5-22.6-5.8-33.3c-0.5-1.2-1.7-2.2-3.1-1.7c-11.7,4.3-20.3,13-29.2,21.5c-10.1,9.7-23.3,20.3-38.3,16.3
			c0.6,1,1.2,2.1,1.7,3.1c1.6-9.9,4.9-19.2,10-27.8c1.3-2.2-1.3-4.5-3.4-3.4c-27.9,14.5-62.9,28.6-93.6,13.9c-2.5-1.2-5.1,1.8-3,3.9
			c9.6,9.6,12.1,24,9.2,37c-1.6,7.3-4.7,14.1-8.4,20.4c-3.7,6.3-8,13.4-13.4,18.3c-8.2,7.5-9.4-5-8.3-10.4
			c1.3-6.6,3.3-13.1,5.2-19.5c4.1-13.2,9.1-26,15.2-38.4c12.1-24.7,27.8-47.7,46.6-67.7c4.6-4.9,9.4-9.6,14.4-14.2
			c4.6-4.2,11-11.4,17.7-11.2c10.7,0.3,2.5,14.2-0.2,18.4c-3.7,5.7-7.8,11.2-12.2,16.4c-19.7,23.2-45.4,40.8-74.1,50.8
			C548.7,315.9,550,320.7,553,319.6L553,319.6z"/>
	</g>
</g>
<g>
	<g>
		<path class="st19" d="M665.1,273.6c0.9-3.5,0.5-7-1.2-10.2c-0.8-1.5-2.7-1.5-3.9-0.5c-3,2.6-4.2,7.1-2.7,10.8
			c0.5,1.2,1.7,2.1,3.1,1.7c1.2-0.3,2.3-1.8,1.7-3.1c-0.9-2.2-0.4-4.4,1.4-5.9c-1.3-0.2-2.6-0.3-3.9-0.5c1.1,2,1.3,4.2,0.7,6.4
			C659.5,275.4,664.3,276.8,665.1,273.6L665.1,273.6z"/>
	</g>
</g>
<g>
	<g>
		<path class="st19" d="M603.2,380.8c0,34,0,68.1,0,102.1c0,3.2,5,3.2,5,0c0-34,0-68.1,0-102.1C608.2,377.5,603.2,377.5,603.2,380.8
			L603.2,380.8z"/>
	</g>
</g>
<g>
	<g>
		<path class="st19" d="M607.8,379.9c2.6-0.5,4.3-1.1,6.4-2.5c2.2-1.4,4.4-1.9,7.2-2.1c10.6-1,11.1,9.5,10.1,17.4
			c-1.6,12.4-7.8,27.5-19.8,33.2c-2.3,1.1-1.1,4.7,1.3,4.7c12.4-0.1,24.1-2.4,34.9,5.3c9.4,6.7,14.2,18,11.6,29.3
			c-2.6,11.7-11.8,18.9-23.3,21c-3.2,0.6-6.5,0.8-9.8,0.9c-2.4,0.1-5.6,0.6-7.9,0c-2.5-0.7-4.8-3.2-7.2-4.5
			c-2.8-1.5-5.4,2.8-2.5,4.3c3.3,1.7,5.5,4.7,9.3,5.1c6.7,0.8,14.4,0.1,21-1.3c12.5-2.8,22.3-11.5,25.2-24.2
			c2.8-12-1.4-24.3-10.7-32.4c-4.6-4-10.1-6.9-16.1-8.3c-8.1-1.9-16.4-0.3-24.6-0.3c0.4,1.6,0.8,3.1,1.3,4.7
			c14.5-6.9,22.1-26.3,22.6-41.5c0.2-7.5-1.9-16.6-10.4-18.2c-3.8-0.7-9.3-0.2-12.9,1.4c-2.8,1.2-3.6,2.6-7,3.2
			C603.3,375.7,604.7,380.5,607.8,379.9L607.8,379.9z"/>
	</g>
</g>
<g>
	<g>
		<path class="st19" d="M684.2,484.3c-1.9-20.1-2.6-40.3-2-60.5c0.3-9.8,0.4-19.8,2.1-29.5c1.3-7.5,4.3-18.5,12.2-21.7
			c9.7-3.9,10,12.6,10.4,18.1c0.7,10.1,1.4,20.2,2,30.3c1.2,20.5,1.9,41.1,2.4,61.7c0.1,3.2,5.1,3.2,5,0
			c-0.4-18.9-1.1-37.9-2.1-56.8c-0.5-9.5-1.1-18.9-1.7-28.4c-0.5-7.1-0.2-15-2.7-21.8c-1.6-4.4-4.8-8.5-9.8-8.9
			c-5.9-0.5-10.9,4.3-14,8.7c-8.6,12.3-8,29.9-8.6,44.2c-0.8,21.5-0.2,43,1.8,64.4C679.5,487.5,684.5,487.5,684.2,484.3L684.2,484.3
			z"/>
	</g>
</g>
<g>
	<g>
		<path class="st19" d="M677.8,437.3c10,0,20,0,30,0c3.2,0,3.2-5,0-5c-10,0-20,0-30,0C674.6,432.3,674.6,437.3,677.8,437.3
			L677.8,437.3z"/>
	</g>
</g>
<g>
	<g>
		<path class="st19" d="M735.2,371.8c0.2,27.5,0.3,55.1,0.5,82.6c0.1,9.1-2.2,22.5,5.9,29.1c8.2,6.7,19,3.4,27.8,0
			c3-1.2,1.7-6-1.3-4.8c-8.5,3.3-23.5,8-26.7-4.8c-1.2-4.9-0.6-10.5-0.7-15.6c0-5.9-0.1-11.8-0.1-17.7c-0.1-23-0.3-45.9-0.4-68.9
			C740.2,368.5,735.2,368.5,735.2,371.8L735.2,371.8z"/>
	</g>
</g>
<g>
	<g>
		<path class="st19" d="M785.4,482.9c0-19.7,0-39.3,0-59c0-9.4-0.6-19.1,1-28.5c0.8-4.8,2.3-9.6,4.5-14c1.1-2.1,5-10.5,7.1-10.6
			c2.3-0.1,1.9,3.1,2.3,5c0.4,1.9,0.7,3.9,1.1,5.8c1,5.2,2,10.4,3,15.6c1.7,9.1,3.5,18.2,5.2,27.2c3.7,19.3,7.6,38.7,7,58.4
			c-0.1,3.2,4.9,3.2,5,0c0.5-17.2-2.3-34.3-5.5-51.1c-3.3-17.5-6.7-34.9-10-52.4c-0.8-4-0.7-13.3-6.2-14.4c-5.2-1-9.6,7.4-11.7,11
			c-8.3,14.2-7.8,30-7.8,45.9c0,20.3,0,40.6,0,60.9C780.4,486.1,785.4,486.1,785.4,482.9L785.4,482.9z"/>
	</g>
</g>
<g>
	<g>
		<path class="st19" d="M785.9,425.3c8.5,0,17,0,25.5,0c3.2,0,3.2-5,0-5c-8.5,0-17,0-25.5,0C782.7,420.3,782.7,425.3,785.9,425.3
			L785.9,425.3z"/>
	</g>
</g>
<g>
	<g>
		<path class="st19" d="M836.1,371.8c-0.5,36.6-0.4,73.1,0.4,109.7c0.1,3.2,5.1,3.2,5,0c-0.8-36.5-0.9-73.1-0.4-109.7
			C841.2,368.5,836.2,368.5,836.1,371.8L836.1,371.8z"/>
	</g>
</g>
<g>
	<g>
		<path class="st19" d="M837.6,368.8c-1,9.4,2.7,18,6.1,26.6c3.5,8.9,7,17.8,10.5,26.7c7.3,18.8,14.7,37.5,22,56.3
			c1,2.5,4.8,2.3,4.9-0.7c0.8-35.4,2.2-70.7,5-106c0.3-3.2-4.7-3.2-5,0c-2.8,35.3-4.3,70.6-5,106c1.6-0.2,3.3-0.4,4.9-0.7
			c-7.1-18.2-14.2-36.3-21.3-54.5c-3.5-8.9-7-17.9-10.5-26.8c-3.4-8.7-7.5-17.5-6.6-27C842.9,365.6,837.9,365.6,837.6,368.8
			L837.6,368.8z"/>
	</g>
</g>
<g>
	<g>
		<path class="st19" d="M944.7,377.7c-5.2-6.8-21.7-19.7-28.9-9c-7.1,10.5-10.4,24.9-11.8,37.3c-0.8,7-0.9,14-1,21
			c-0.1,6.3-0.5,12.9,0.6,19.1c2.1,11.4,9.4,24.9,19.6,31c5.6,3.3,12,2.5,17-1.4c6-4.7,7.9-12.2,10.1-19.1c1-3.1-3.8-4.4-4.8-1.3
			c-2.1,6.6-3.7,14.6-10.6,17.9c-7.8,3.8-14.9-4.3-18.9-10.3c-3.4-5-6.1-11.1-7.4-17.1c-1.2-5.5-0.7-11.5-0.6-17.1
			c0.1-12.4,0.4-24.8,3.7-36.9c1.6-5.9,3.6-13.9,7.4-18.8c5.7-7.4,17.3,2,21.3,7.3C942.3,382.8,946.6,380.3,944.7,377.7L944.7,377.7
			z"/>
	</g>
</g>
<g>
	<g>
		<path class="st19" d="M969.8,371.8c-0.5,23.2-0.4,46.3,0.4,69.5c0.2,5.8,0.4,11.5,0.7,17.3c0.2,3.7-0.8,9.9,2,13
			c2.8,3,8.3,2,11.8,1.9c6.3,0,12.7-0.1,19-0.1c3.2,0,3.2-5,0-5c-5.4,0-10.8,0.1-16.2,0.1c-2.5,0-5.1,0.1-7.6,0
			c-3.8,0-3.8-2.9-3.9-6.1c-0.5-10.2-0.9-20.4-1.1-30.6c-0.5-20-0.5-40-0.1-60C974.9,368.5,969.9,368.5,969.8,371.8L969.8,371.8z"/>
	</g>
</g>
<g>
	<g>
		<path class="st19" d="M975.2,419.3c6.5,0,13,0,19.5,0c3.2,0,3.2-5,0-5c-6.5,0-13,0-19.5,0C972,414.3,972,419.3,975.2,419.3
			L975.2,419.3z"/>
	</g>
</g>
<g>
	<g>
		<path class="st19" d="M972.2,371.2c7.5,0,15,0,22.5,0c3.2,0,3.2-5,0-5c-7.5,0-15,0-22.5,0C969,366.2,969,371.2,972.2,371.2
			L972.2,371.2z"/>
	</g>
</g>
<g>
	<polygon points="288.8,238.8 266,241.3 252.4,235.4 244.9,230.3 236.7,226.2 242,236.6 251.7,245.4 258.6,250.5 270.4,249.7 	"/>
	<path d="M238.1,231.5c0,0-5.7-4.2-10.9-4c0,0,2.2-2.5,11.7,0.2"/>
	<path class="st16" d="M307.5,237.9c0,0-53.5,18-69.3-6.4c-4.3-6.7,4.8,24.1,4.8,24.1l35.7,1L307.5,237.9z"/>
	<path d="M301.7,235.7c0,0-58.8-3.5-65.4-8.2c6.6,4.3,16,16.1,39,13C290.9,238.4,301.7,235.7,301.7,235.7z"/>
</g>
</svg>
