<?xml version="1.0" encoding="utf-8"?>
<!-- Generator: Adobe Illustrator 19.2.1, SVG Export Plug-In . SVG Version: 6.00 Build 0)  -->
<svg version="1.1" id="Layer_1" xmlns="http://www.w3.org/2000/svg" xmlns:xlink="http://www.w3.org/1999/xlink" x="0px" y="0px"
	 viewBox="0 0 1187 800" style="enable-background:new 0 0 1187 800;" xml:space="preserve">
<style type="text/css">
	.st0{fill:#AAE2E5;stroke:#0071BC;stroke-width:21;stroke-linecap:round;stroke-linejoin:round;stroke-miterlimit:10;}
	.st1{fill:#9E005D;}
</style>
<path class="st0" d="M987.2,367.9c-0.1-14,16.6-20.9,30.2-24.2c37.2-8.9,74.4-17.9,111.6-26.8c-52.9-49.2-130.1-59.2-202-66.8
	c30.8-56.7,61.6-113.5,92.4-170.2c-108,38.2-215.9,76.4-323.9,114.6c-4.6,1.6-9.7,3.2-14.2,1.4c-5.2-2.1-7.5-8-9.4-13.3
	c-12.8-36-27.5-71.4-44-105.8c-4.2-8.6-10-18.4-19.6-19.2c-5.6-0.5-10.9,2.4-15.7,5.3c-49.9,30.3-88.9,76.5-139.5,105.6
	c-7.5,4.3-16.6,8.4-24.6,5c-7.1-3-10.8-10.7-13.7-17.8c-12.6-30.6-23.2-62-31.8-94c-38,54.2-76.1,108.3-114.1,162.5
	c-3.2,4.6-7.2,9.7-12.8,10.2c-4.9,0.4-9.3-2.8-13.2-5.9c-24.9-20-49.7-39.9-74.6-59.9c-2.9,61.8,9.5,116.5,29.2,174.8
	c0.8,0.3,1.7,0.6,2.5,0.9c-0.8-0.3-1.7-0.6-2.5-0.9c0.5,1.6,1.1,3.3,1.7,4.9c-0.6-1.6-1.1-3.3-1.7-4.9
	c-39-13.6-80.5-19.5-121.7-17.5c23.9,24.6,47.8,49.1,71.7,73.7c5.1,5.3,10.5,10.9,12.6,17.9c4.2,14.1-5.6,28.1-14.8,39.6
	c-36.2,45-72.3,90-108.5,135.1c93.4-3.3,186.4-19.6,275.4-48.4c6.1,53.9,12.2,107.9,18.3,161.8c0.4,3.5,1,7.4,3.7,9.6
	c4.2,3.6,10.5,1.2,15.4-1.3c56.8-29,113.7-57.9,170.5-86.9c16.9-8.6,38-17.1,53.8-6.6c8,5.3,12.6,14.5,16.4,23.3
	c13.2,30.8,21.9,63.6,25.8,96.9c38-39.4,75.9-78.8,113.9-118.2c5-5.2,10.7-10.8,18-11.2c6.8-0.4,12.9,3.8,18.2,7.9
	c42.3,32.6,78,73.8,104.3,120.2c4.3-76.9,8.6-153.7,12.9-230.6c0.3-4.9,0.7-10.2,3.8-14.1c4.2-5.3,11.7-6.1,18.4-6.6
	c53.3-3.6,106.5-7.2,159.8-10.7c-23.2-30.5-46.4-61-69.6-91.5C991.5,380.5,987.2,374.6,987.2,367.9z"/>
<g>
	<g>
		<path class="st1" d="M307.6,285c-2.3,34.6,1.2,69.5,10.4,103c2,7.2,12.4,7.1,14.5,0c5-17.3,1.1-34.6,1.1-52.2
			c0-13.3,4-31.8,19.9-34.3c14-2.1,19.3,15.9,22.3,26.1c5.1,17.4,8.3,35.3,9.7,53.4c0.7,9.6,15.7,9.6,15,0
			c-1.3-16.9-3.9-33.7-8.2-50.1c-3.4-12.9-7.2-28-17.7-37.1c-10.4-9.1-25-9.5-36.5-1.9c-12.9,8.6-18.3,22.8-19.3,37.8
			c-1.3,18.1,4.4,36.5-0.8,54.3c4.8,0,9.6,0,14.5,0c-8.8-32.3-12.1-65.6-9.8-99C323.3,275.4,308.3,275.4,307.6,285L307.6,285z"/>
	</g>
</g>
<g>
	<g>
		<path class="st1" d="M408.7,356.1c16.6-5.4,36.4-13.7,39.8-33.2c1.5-8.8-1.2-17.2-6.4-24.3c-5.4-7.4-14.9-14.5-23.3-6.5
			c-12.5,12-15.1,32.6-15.6,48.9c-0.4,16.3-2.2,38.3,15.4,46.3c14.5,6.6,38.9,6,46.5-10.6c1.7-3.7,1-8-2.7-10.3
			c-3.2-1.9-8.6-1-10.3,2.7c-3.2,7-11.8,7.6-18.6,6.9c-3.9-0.4-8.8-1.4-11.7-4.3c-3.1-3.1-3.2-8-3.3-12.1
			c-0.4-10.1-0.7-20.4,0.6-30.5c0.6-4.9,1.7-9.8,3.4-14.4c0.9-2.6,4-11,6.8-11.5c-1.3,0-2.7,0-4,0c3.8,0.6,7,7.2,8.1,10.7
			c1.3,4.3,0.3,8.5-2.1,12.2c-5.8,9-17,12.3-26.6,15.5C395.6,344.6,399.5,359.1,408.7,356.1L408.7,356.1z"/>
	</g>
</g>
<g>
	<g>
		<path class="st1" d="M457.7,305c-2.6,20.2,4.2,40.4,17.6,55.5c3.7,4.2,11.3,2,12.5-3.3c1.4-6.3,4.4-20.2,12.8-20.6
			c6-0.3,13.7,4.7,19.1,7c7,3,13.9,6.1,20.9,9.2c4.6,2.1,11.9-0.2,11.3-6.5c-2.5-27.8-8.5-55.1-18.2-81.2c-3.3-9-17.8-5.1-14.5,4
			c9.2,24.9,15.2,50.8,17.6,77.2c3.8-2.2,7.5-4.3,11.3-6.5c-8.7-3.9-17.4-7.7-26.1-11.5c-8.1-3.5-16.7-8.3-25.9-6.3
			c-14,3.1-20,18.7-22.8,31.1c4.2-1.1,8.4-2.2,12.5-3.3c-11-12.3-15.3-28.6-13.2-44.9c0.5-4-3.8-7.5-7.5-7.5
			C460.7,297.5,458.3,301,457.7,305L457.7,305z"/>
	</g>
</g>
<g>
	<g>
		<path class="st1" d="M649.3,374.9c-1.7-17.6-3.4-35.2-5.2-52.9c-1.6-16.5-3.8-33.1-4.7-49.7c-0.6-11.1-0.5-25.6,9.6-32.9
			c10.4-7.4,24.8-2.6,34.1,4.1c7.9,5.6,15.4-7.4,7.6-13c-12.5-8.9-29.8-12.9-44.3-6.7c-14.8,6.4-20.9,21.6-21.9,36.7
			c-1.2,17.7,2.2,36,3.9,53.6c2,20.2,4,40.5,5.9,60.7c0.4,4,3.2,7.5,7.5,7.5C645.5,382.4,649.7,379,649.3,374.9L649.3,374.9z"/>
	</g>
</g>
<g>
	<g>
		<path class="st1" d="M625,306.5c9.7,0,9.7-15,0-15C615.3,291.5,615.3,306.5,625,306.5L625,306.5z"/>
	</g>
</g>
<g>
	<g>
		<path class="st1" d="M615,308.5c23.3,0,46.7,0,70,0c9.7,0,9.7-15,0-15c-23.3,0-46.7,0-70,0C605.3,293.5,605.3,308.5,615,308.5
			L615,308.5z"/>
	</g>
</g>
<g>
	<g>
		<path class="st1" d="M687.5,305c0,9.2,0,18.4-0.1,27.6c0,8.1-0.9,16.8,0.8,24.8c2.6,13.1,14.8,21.2,27.7,21.6
			c13.5,0.4,25.1-8.5,31.7-19.7c8.2-13.9,8.5-30.4,8.5-46.1c0-9.7-15-9.7-15,0c0,11.9,0.5,25-5,36c-3.9,7.7-10.9,15.3-20.2,14.9
			c-3.5-0.2-7.1-1.3-9.8-3.7c-3.9-3.6-3.7-8.9-3.7-13.8c0-13.8,0.1-27.6,0.1-41.4C702.5,295.3,687.5,295.3,687.5,305L687.5,305z"/>
	</g>
</g>
<g>
	<g>
		<path class="st1" d="M767.2,317c-0.4,23.8,4.5,47,14,68.8c3.5,8.1,15.4,2.1,13.7-5.8c-4.7-21.7-6.6-51.5,15.3-65
			c3.6-2.2,9.2-5.1,13.5-3.7c4.7,1.4,4.7,10,5.4,14c2.7,14.6,5.5,29.2,8.2,43.8c1.8,9.5,16.2,5.5,14.5-4c-1.7-9.1-3.4-18.2-5.1-27.3
			c-1.6-8.5-2.6-17.5-5-25.9c-4.9-17.4-22.5-18.6-36.6-11.3c-12.4,6.4-21.1,18.8-25.2,31.9c-5.3,16.7-3.1,34.7,0.6,51.5
			c4.6-1.9,9.1-3.9,13.7-5.8c-8.4-19.3-12.3-40.2-12-61.3C782.4,307.3,767.4,307.3,767.2,317L767.2,317z"/>
	</g>
</g>
<g>
	<g>
		<path class="st1" d="M445.4,552.5c-8.8-22-14.9-45.1-17.6-68.6c-0.6-5.7-1.2-11.4-1.4-17.2c-0.1-4.3,0.1-9,3.6-12
			c5.9-5,15.7-4.3,22.8-4c9.7,0.4,9.6-14.6,0-15c-10.2-0.4-21.8,0-30.5,6.1c-11.1,7.8-11.5,20.6-10.5,32.9
			c2.2,28.1,8.6,55.6,19,81.8c1.5,3.7,5,6.4,9.2,5.2C443.7,560.8,446.9,556.3,445.4,552.5L445.4,552.5z"/>
	</g>
</g>
<g>
	<g>
		<path class="st1" d="M387,510.5c25.3,0,50.7,0,76,0c9.7,0,9.7-15,0-15c-25.3,0-50.7,0-76,0C377.3,495.5,377.3,510.5,387,510.5
			L387,510.5z"/>
	</g>
</g>
<g>
	<g>
		<path class="st1" d="M528.1,497.4c-8.4-3.8-17.4-7.8-26.9-6.8c-7.4,0.8-14,4.4-18.8,10.1c-4.6,5.4-7.4,12.1-9.5,18.8
			c-2.2,7.2-5.5,16.6-0.5,23.3c5,6.7,14.7,6.8,21.2,2.5c6.9-4.6,11.6-13,16.5-19.4c3.1-4,6.1-8,9.2-12c0.6-0.9,1.3-1.7,2-2.5
			c-2.1-0.3-4.3-0.7-6.4-1c-0.3,0.4,0.4,3.9,0.4,4.4c0.7,10.1,1.4,20.2,2,30.3c0.6,9.6,15.7,9.7,15,0c-0.6-8.2-1.1-16.4-1.7-24.6
			c-0.4-6.5,0.3-14.9-4.6-20c-5.7-6-13.1-2.7-17.4,2.9c-5.2,6.7-10.3,13.5-15.5,20.3c-2.1,2.7-4,5.8-6.5,8.1c-0.5,0.5-2,1.2-2.4,1.7
			c-0.4,0.4,0.2,0.8,0.6,0c1.2-2.3,1.3-6,2.1-8.5c0.8-2.7,1.6-5.3,2.8-7.8c2-4.4,5-9.1,9.8-10.8c6.9-2.5,14.8,1.4,20.9,4.2
			c3.7,1.7,8,1,10.3-2.7C532.7,504.5,531.7,499.1,528.1,497.4L528.1,497.4z"/>
	</g>
</g>
<g>
	<g>
		<path class="st1" d="M586.9,499.1c-8.8-8.2-21.8-10.8-33.1-6.5c-11.7,4.5-18.8,15.4-19.1,27.8c-0.7,26.8,30.5,41.6,52,27
			c7.9-5.4,0.4-18.4-7.6-13c-11.4,7.8-29,2.7-29.4-12.6c-0.2-6.4,2.8-12.5,9-15c5.8-2.4,12.9-1.3,17.6,3
			C583.4,516.3,594,505.7,586.9,499.1L586.9,499.1z"/>
	</g>
</g>
<g>
	<g>
		<path class="st1" d="M610.9,445c0.6,32.7,1.2,65.3,1.8,98c0.2,9.6,15.2,9.7,15,0c-0.6-32.7-1.2-65.3-1.8-98
			C625.7,435.4,610.7,435.3,610.9,445L610.9,445z"/>
	</g>
</g>
<g>
	<g>
		<path class="st1" d="M585,480.5c19.3,0,38.7,0,58,0c9.7,0,9.7-15,0-15c-19.3,0-38.7,0-58,0C575.3,465.5,575.3,480.5,585,480.5
			L585,480.5z"/>
	</g>
</g>
<g>
	<g>
		<path class="st1" d="M691.3,493.3c-4.5-12.4-21.4-18.1-31.5-8.3c-10.8,10.5-4.6,27.5,6,35.4c6.6,4.9,14.8,6.8,22.5,9
			c3.4,0.9,7.2,1.7,10.1,3.7c2,1.4,2.7,1.8,1.1,3c-4.8,3.6-11.5,4.7-17.3,5.5c-6.1,0.9-13.6,1.1-18.7-3.1c-7.4-6.1-18,4.4-10.6,10.6
			c11.7,9.7,26.6,8.8,40.6,5.5c12.1-2.8,28.1-13,19.6-27.5c-8.1-13.7-27.1-10.2-38.5-18.7c-2.8-2-8.2-9.1-4.6-12.5
			c1.7-1.6,6-0.8,6.8,1.4C680.1,506.3,694.6,502.4,691.3,493.3L691.3,493.3z"/>
	</g>
</g>
<g>
	<g>
		<path class="st1" d="M724.9,450c-2.1,21.4-0.9,42.9,3.2,64.1c1.8,9.5,16.3,5.5,14.5-4c-3.9-19.8-4.6-40-2.7-60.1
			c0.4-4-3.7-7.5-7.5-7.5C728,442.5,725.3,446,724.9,450L724.9,450z"/>
	</g>
</g>
<g>
	<g>
		<path class="st1" d="M730.2,544c0.3,3.5,0.5,7.1,0.8,10.6c0.2,3.3,2.2,6.4,5.5,7.2c6.3,1.6,13.5-2,15-8.6c0.8-3.4,0-7-2.1-9.8
			c-2.4-3.1-5.4-4.5-9.3-4.9c-3.9-0.5-7.7,3.8-7.5,7.5c0.2,4.5,3.3,7,7.5,7.5c-1.1,0-2-0.3-2.7-1.1c0.6,0.6,0.6,0.5-0.1-0.2
			c-0.3-0.9-0.6-1.5-0.4-2.5c0.2-0.8,0.7-1.6,1.4-2.1c1-0.3,1.1-0.4,0.3-0.2c0.6-0.2,1.2-0.2,1.9-0.1c1.8,2.4,3.7,4.8,5.5,7.2
			c-0.3-3.5-0.5-7.1-0.8-10.6c-0.3-3.9-3.2-7.7-7.5-7.5C733.9,536.7,729.9,539.8,730.2,544L730.2,544z"/>
	</g>
</g>
</svg>
