<?xml version="1.0" encoding="utf-8"?>
<!-- Generator: Adobe Illustrator 19.2.1, SVG Export Plug-In . SVG Version: 6.00 Build 0)  -->
<svg version="1.1" xmlns="http://www.w3.org/2000/svg" xmlns:xlink="http://www.w3.org/1999/xlink" x="0px" y="0px"
	 viewBox="0 0 1160 751.6" style="enable-background:new 0 0 1160 751.6;" xml:space="preserve">
<style type="text/css">
	.st0{display:none;}
	.st1{fill:none;stroke:#87171D;stroke-width:4;stroke-linecap:round;stroke-linejoin:round;stroke-miterlimit:10;}
	.st2{fill:#87171D;}
	.st3{fill:#3C2415;stroke:#3C2415;stroke-width:4;stroke-miterlimit:10;}
	.st4{fill:#FCBD7D;stroke:#786232;stroke-width:2;stroke-miterlimit:10;}
	.st5{fill:#603913;}
	.st6{fill:#3C2415;}
	.st7{opacity:0.24;fill:#FFFFFF;}
	.st8{opacity:0.36;fill:#FFFFFF;}
	.st9{fill:#FFFFFF;}
	.st10{opacity:0.31;fill:none;stroke:#603913;stroke-miterlimit:10;}
	.st11{fill:#FFFFFF;stroke:#A7A9AC;stroke-miterlimit:10;}
	.st12{fill:#D6B670;stroke:#918E35;stroke-width:2;stroke-miterlimit:10;}
	.st13{fill:#BE1E2D;}
	.st14{fill:#F15A29;}
	.st15{fill:#FFDE17;}
	.st16{fill:#009444;}
	.st17{fill:#2B3990;}
	.st18{fill:#0B0806;}
	.st19{fill:#D52127;}
	.st20{opacity:0.43;fill:#FFFFFF;}
	.st21{fill:none;stroke:#786232;stroke-width:2;stroke-miterlimit:10;}
	.st22{fill:#729BB7;stroke:#303F49;stroke-width:3;stroke-miterlimit:10;}
	.st23{fill:#303F49;stroke:#121212;stroke-width:3;stroke-miterlimit:10;}
	.st24{stroke:#603913;stroke-width:7;stroke-miterlimit:10;}
	.st25{fill:none;stroke:#000000;stroke-width:4;stroke-miterlimit:10;}
	.st26{fill:#786232;}
	.st27{opacity:0.44;fill:#EE2A7B;}
</style>
<g id="Layer_1" class="st0">
	
		<image style="display:inline;overflow:visible;" width="3264" height="2448" xlink:href="../../../Downloads/IMG_0434 2.JPG"  transform="matrix(1.947721e-11 0.4338 -0.4338 1.947721e-11 1126.0005 -293.0001)">
	</image>
</g>
<g id="text_outline">
	<path class="st1" d="M684.1,217.6c0,0-21.9,34.3-9,48"/>
	<path class="st1" d="M726,203.3l15.3-8c0,0-25.3,42.2-4.7,45.1"/>
	<path class="st1" d="M758.1,217.6c0,0-21.5,111.8-80.1,158.2"/>
	<path class="st1" d="M626.9,237.3c0,0-53.5,14.8-46.9-52.7s59.4-86.8,77.1-75c25.6,17.1-24.4,290.3-77.6,241.5
		c-44.8-41,104.6-133.5,104.6-133.5s-22.5,18-24,33s6,18,15,15c9-3,22.5-13.5,22.5-30s-19.7-19.4-13.5,0
		c6.2,19.4,41.9-32.3,41.9-32.3s-6.6,7-8.3,28.3c-1.8,22.6,24.9,7,24.9,7l30-40.5c0,0-39,188.9-94.5,177.7
		c-55.5-11.2-7.5-137.2,66-123.7c0,0,36,4.5,43.5,33"/>
	<path class="st1" d="M650.1,106.4c6.9,3.4-8.7,233.7-72.1,240"/>
	<g>
		<g>
			<path class="st2" d="M688.4,219.6c-8.8-7.2-17.4,15.2-16.2,21.4c1,5.2,7,6.8,11.6,6.3c6-0.7,10.8-4.7,14.3-9.4
				c1.9-2.6-2.4-5.1-4.3-2.5c-1.9,2.6-4.2,4.7-7.1,6c-3.5,1.5-9.2,2.3-9.4-3.4c-0.1-1.7,6.3-15.9,7.6-14.8
				C687.4,225.2,690.9,221.7,688.4,219.6L688.4,219.6z"/>
		</g>
	</g>
	<g>
		<g>
			<path class="st2" d="M733.3,242.6c6.8-0.7,11.8-4.3,16.4-9.2c6.2-6.7,11.7-14,17.4-21.1c2-2.5-1.5-6-3.5-3.5
				c-4.8,5.8-9.5,11.7-14.4,17.5c-4.2,5-9,10.6-15.9,11.3C730.2,238,730.1,243,733.3,242.6L733.3,242.6z"/>
		</g>
	</g>
	<path class="st1" d="M825.3,203.3c0,0-24-0.6-29.3,22s4,24.6,14.7,25.3c10.7,0.7,14.7-8.6,22-25.3c7.3-16.7-6-25-14.7-14.8
		c-4.9,5.8,4.7,21.4,34.7,10.1s108-55.3,93.3-94S764.7,294,836.7,314.7c0,0,22.3,2,34.5-32c12.2-34-12.5-57.3-12.5-57.3
		s19.1,7.3,77.6-21.5c51.1-25.2,82.4,2.8,82.4,33.1c0,30.4-46,60.4-71.4,21.1"/>
	<path class="st1" d="M825.3,203.3c0,0-30.7,23.3-14.7,47.3"/>
	<path class="st1" d="M818,210.6c0,0-10,10.1,0.3,17.2c2.4,1.7,6.6,1.7,14.3-2.5"/>
	<path class="st1" d="M946,126.7c-22.3,11-130.3,121.7-116,183"/>
	<path class="st1" d="M503.5,400"/>
	<path class="st1" d="M507.8,399.2c-21-4.6-57.3,5.3-84.8,45.8s-26,77.5,3,82.5s61.9-25.8,84-59.5C528,440.5,530,404,507.8,399.2z"
		/>
	<path class="st1" d="M493,403c0,0-9,8.5,5.5,12c14.5,3.5,24.7-8,30-12c6.6-4.9,30.5-37,55-21c0,0,13,10,0,22"/>
	<path class="st1" d="M503.5,399c0,0-104,42.5-77.5,128.5"/>
	<path class="st1" d="M490.2,399.6c0,0-13.7,24.9,3.8,24.9s30-17.9,30-17.9"/>
	<path class="st1" d="M1080.5,487c14.5,30-15,43-15,43c-15.5,8-21.5,2.5-71.5-1s-70,41.5-70,41.5c-18,50,25.5,50.5,25.5,50.5
		c76,4.5,107-163.5,107-163.5c-30,35.5-76.8,33.5-66,15.5c32-53.5,55-27,55-27c-10.1-16.4-32.8,1.2-52.6,20.9
		c-16.3,16.4-30.6,34.2-33.9,35.6c-7.5,3,24-47.5,15-56.5s-60.5,52.5-60.5,52.5l23-60c0,0-58.5,59.5-65,61s22.5-55,22.5-55L862,484
		c-100,76-127.6,119.8-97,126.5c36.5,8,87.5-147.4,87.5-147.4L828,497.5c0,0,3,0,2-19s-23,15-23,15l25-49.5c0,0-48,70-63,64
		s25.5-59,25.5-59s-63,78.5-76.3,76.5c-13.4-2,35.9-61.5,26.9-62.4S690,514,690,514s30.5-52,23-50.2S666.5,516,666.5,516l26.5-55.5
		c0,0-49.5,57.5-61,53.5s13.5-45,13.5-45S594,534.5,589,518.5S648.5,384,648.5,384C597.5,491,553,499.5,526,520.5s-8.5,29-8.5,29
		c24.5,3.5,40.5-14,46.5-29s2-26-10-29.5s-36,17.5-36,17.5c-57.5,38-98,115.5-73.5,116.5S531,482,531,482l-15.2,7.9
		c0,0-50.1,116.6-74.3,133.1"/>
	<path class="st1" d="M549,491c0,0,24.5,26-31.5,58.5"/>
	<path class="st1" d="M648.5,384l-15,6.5c-11.4,17.3-72.1,124.4-43.5,131"/>
	<path class="st1" d="M645.1,468.6l-16,5.5c-11.4,17.3-14.3,35.4,2.9,39.9"/>
	<path class="st1" d="M792.9,449.9l-16,5.5c-11.4,17.3-32.4,49.1-7.9,52.6"/>
	<polyline class="st1" points="692.7,461 677.7,467.5 651.6,520.5 666.5,516 	"/>
	<path class="st1" d="M893.2,444.4l-15,6.5c-11.4,17.3-23.9,44.1-6.7,48.6"/>
	<polyline class="st1" points="832,443.8 817,450.2 792.9,502.2 806.8,493.8 	"/>
	<polyline class="st1" points="913.5,498.5 899.8,504.5 917.2,458.2 	"/>
	<path class="st1" d="M731.1,471.9c0,0-45.9,63.1-13,53.6"/>
	<polyline class="st1" points="696.8,478.9 677.6,520.5 690,514 	"/>
	<path class="st1" d="M961.5,449.9c10,2.9-19.5,46.6-15.5,54.6s13-2,13-2"/>
	<path class="st1" d="M1029.1,440.3c0,0-39.7,35.2-14.7,44.2"/>
	<path class="st1" d="M1056.5,457.5l-8-8.5c0,0-49,184-99,172"/>
	<path class="st1" d="M765,610.5c35.5-31,71.5-141.9,71.5-141.9l16-5.5"/>
	<path class="st1" d="M554.3,410.6c0,0-16.8,18.9,7.7,23.9S669.5,433,726,402s142.1-92.9,196-87.3c41.6,4.3,46.3,48.3,46.1,53.3
		c-2,39.6-57.1,66-85.1,16"/>
	<path class="st1" d="M1044.6,398.1c0,0-70.2-44.9-30.6-83.4s41.5,31.7,41.5,31.7s41.6-68.8,61.1-32S1044.6,398.1,1044.6,398.1z"/>
</g>
<g id="text_inline">
	<path class="st2" d="M651.6,107.2c0,0,16.9,0.3,12.1,46.3c-4.8,46-22.9,152.9-40.3,172.5c-17.4,19.5-6.4,26.4-30.9,31
		c0,0-14.1-4.7-14.5-10.6l16.5-6.4l8.5-10.5l8-8l5-14l5.3-11.1l7.2-15.9l6-19l2.6-19.9l10.7-52.8l1.5-9.8L651.6,107.2z"/>
	<polygon class="st2" points="679.8,225.4 671,247 674.5,265 669,265.6 662.9,264.1 659.9,253.5 663.2,241.3 669.8,231.7 	"/>
	<polygon class="st2" points="684.1,220.9 684.1,235.6 689.4,242.8 678.5,244.4 673.5,240.1 	"/>
	<polygon class="st2" points="724.5,203.3 741.3,195.3 730,220.7 728.8,232.7 730.5,237.1 736.3,241.6 726,243.9 720,241.6 
		717.6,232.8 718.1,214 	"/>
	<polygon class="st2" points="756.6,219.7 768.7,203.3 770.5,207.6 760.9,245.5 749.4,282.1 738,311.8 725,338.8 713.2,356.9 
		697.9,371.5 684.1,376.3 678.1,375.8 702.5,352 710,341.5 720,324.5 727.1,309.7 733.7,295.3 739,279.5 748,258 	"/>
	<polygon class="st2" points="823.2,205.2 815.7,214 811,219.6 806.4,232.1 809.7,249.1 803.9,249.8 796.7,245.5 794.5,232.8 
		798.6,218.3 808.8,207.7 	"/>
	<polygon class="st2" points="820.6,220.9 832.7,225.4 820.6,228.9 811,219.6 815.7,214 	"/>
	<polygon class="st2" points="946,126.7 925.3,142.8 906.6,161.4 887.3,182.9 866.6,209.6 842.2,249.8 831.3,278.6 828.7,296.7 
		830,309.7 821.8,303.3 818.7,289.8 820.9,272.6 831,245.5 841.6,225.4 863.6,191.8 890.6,158.6 921.6,129.7 937.4,122 	"/>
	<polygon class="st2" points="479.6,400.8 494.5,398.1 504.5,398.1 490.2,406.4 462.9,424.5 439.1,449 426.3,473 421.7,494.5 
		424.3,521.5 428,528 412.6,521.5 403.3,502.2 405.6,481.4 413.5,461 429.6,436 445.5,419.6 462.6,407.8 	"/>
	<polygon class="st2" points="490.2,402 492.8,412.7 503.5,415.7 514.7,413 522.6,407.9 512.4,419.4 494,424.5 485.1,420.5 
		485.1,404.5 	"/>
	<polygon class="st2" points="515.8,489.9 531,482 516.5,514 495.6,556.5 473.6,595.1 456.7,617.7 444.5,625 466.5,589.8 
		481.2,563.1 503.9,518.9 	"/>
	<polygon class="st2" points="549,491 554.9,491.3 562.9,496.5 566.8,507.6 565.4,516.3 560.2,528 554.3,536.8 535.9,549.5 
		517.5,549.5 536,536.8 548.7,524.5 554.3,514 554.3,499.7 	"/>
	<polygon class="st2" points="633.5,390.5 648.5,384 619.3,440.3 596,491.3 589.3,511.7 590,521.5 582.4,511 589.3,473 601.3,449.9 
			"/>
	<polygon class="st2" points="629.1,474.1 645.1,468.6 632.4,494.8 629.1,513 619.1,499.7 	"/>
	<polygon class="st2" points="677.7,467.5 692.7,461 666.5,516 651.6,520.5 	"/>
	<polygon class="st2" points="695.9,480 713,463.8 712.1,471.9 690,514 677.6,520.5 	"/>
	<polygon class="st2" points="726,476.6 745,463.1 743.3,471.9 721.5,508 716,520.5 716,526 709.5,526 706.2,521.5 708,511 	"/>
	<polygon class="st2" points="776.9,455.4 792.9,449.9 770.5,486.7 765.4,502.2 769,508 758.1,502.2 758.4,487 	"/>
	<polygon class="st2" points="814.5,449.9 830.5,444.4 807,493.5 794.5,499.7 	"/>
	<polygon class="st2" points="836.5,468.6 850.6,463.8 836.5,508 821.5,541.8 804.4,575 789.3,596.9 775.3,608.9 765,610.5 785,589 
		797,568.5 810.9,535.3 822.2,508 	"/>
	<polygon class="st2" points="878.2,450.9 893.2,444.4 878.1,477.5 870.5,499.2 863.3,491 863.3,481.4 	"/>
	<polygon class="st2" points="917.2,458.2 936.5,438.5 913.5,498.5 899.8,504.5 	"/>
	<polygon class="st2" points="961.5,449.9 970.8,445.2 975.4,449 974.6,458.2 958.3,499.5 954.6,506.2 947.1,506.2 945.6,499.7 
		954.6,478.9 959.5,469.5 963.6,458.2 	"/>
	<polygon class="st2" points="1029.1,440.3 1010.2,462.4 1006.1,475.7 1014.4,484.5 1003,485.6 991.8,483 989.3,475.7 1000.6,458.2 
			"/>
	<polygon class="st2" points="1049.3,449.9 1056.5,457.5 1043.6,507.6 1022.8,559.9 1006.1,587.7 983.7,610.5 973.4,616.5 
		976.3,610.5 1006.1,569 1023.2,526 	"/>
	<g>
		<path class="st2" d="M496.2,266.7c-0.2,0.1-0.5,0.3-0.9,0.5c-0.4,0.2-0.9,0.5-1.6,0.7c-0.6,0.2-1.3,0.4-2.1,0.6s-1.6,0.3-2.5,0.3
			s-1.8-0.1-2.6-0.4c-0.8-0.3-1.5-0.7-2.1-1.2c-0.6-0.5-1.1-1.1-1.4-1.9c-0.3-0.7-0.5-1.6-0.5-2.6v-25.5h-4.7v-2.7h4.7V223h3.3v11.6
			h7.9v2.7h-7.9v24.7c0,1.3,0.4,2.2,1.3,2.8c0.9,0.6,1.8,0.9,2.9,0.9c1.3,0,2.5-0.2,3.5-0.7c1-0.5,1.6-0.7,1.8-0.9L496.2,266.7z"/>
		<path class="st2" d="M529.6,268.4h-3.3v-18.9c0-8.4-2.8-12.6-8.4-12.6c-1.4,0-2.7,0.3-4.1,0.8c-1.3,0.5-2.6,1.3-3.7,2.2
			c-1.2,1-2.2,2.1-3,3.4c-0.9,1.3-1.5,2.7-2,4.1v21h-3.3v-47.5h3.3v21.7c1.4-2.6,3.3-4.7,5.8-6.3c2.5-1.6,5.1-2.3,7.9-2.3
			c1.9,0,3.5,0.3,4.8,1c1.3,0.7,2.5,1.7,3.4,3c0.9,1.3,1.5,2.9,2,4.7c0.4,1.8,0.6,3.9,0.6,6.2V268.4z"/>
		<path class="st2" d="M553.8,269c-2.4,0-4.6-0.5-6.6-1.4c-2-0.9-3.8-2.2-5.3-3.8c-1.5-1.6-2.7-3.5-3.5-5.6
			c-0.8-2.1-1.3-4.4-1.3-6.8c0-2.4,0.4-4.6,1.3-6.7c0.8-2.1,2-3.9,3.5-5.5c1.5-1.6,3.2-2.8,5.2-3.7c2-0.9,4.2-1.4,6.5-1.4
			c2.4,0,4.6,0.5,6.6,1.4c2,0.9,3.8,2.2,5.3,3.8c1.5,1.6,2.6,3.4,3.4,5.5c0.8,2.1,1.2,4.3,1.2,6.7c0,0.2,0,0.5,0,0.8
			c0,0.3,0,0.5-0.1,0.6h-29.7c0.1,2,0.6,3.8,1.4,5.4c0.8,1.7,1.8,3.1,3,4.3c1.2,1.2,2.6,2.2,4.1,2.9c1.6,0.7,3.2,1,5,1
			c1.2,0,2.3-0.2,3.4-0.5c1.1-0.3,2.2-0.8,3.2-1.3c1-0.6,1.8-1.2,2.6-2c0.8-0.8,1.4-1.7,1.8-2.6l2.9,0.8c-0.5,1.2-1.2,2.3-2.1,3.4
			c-0.9,1-2,1.9-3.3,2.6c-1.2,0.7-2.6,1.3-4.1,1.7C556.9,268.8,555.4,269,553.8,269z M567.1,250.2c-0.1-2-0.6-3.8-1.3-5.5
			c-0.8-1.6-1.7-3.1-2.9-4.3c-1.2-1.2-2.6-2.1-4.1-2.8c-1.6-0.7-3.2-1-5-1c-1.8,0-3.4,0.3-5,1c-1.6,0.7-2.9,1.6-4.1,2.8
			c-1.2,1.2-2.1,2.6-2.9,4.3c-0.7,1.7-1.1,3.5-1.3,5.4H567.1z"/>
	</g>
	
		<ellipse transform="matrix(0.9179 -0.3968 0.3968 0.9179 -127.0406 291.4183)" class="st2" cx="640.8" cy="452.8" rx="10" ry="5.2"/>
	
		<ellipse transform="matrix(0.9179 -0.3968 0.3968 0.9179 -107.288 347.9709)" class="st2" cx="787.4" cy="433.3" rx="10" ry="5.2"/>
	
		<ellipse transform="matrix(0.9179 -0.3968 0.3968 0.9179 -96.4069 389.4969)" class="st2" cx="893.2" cy="427.8" rx="10" ry="5.2"/>
</g>
<g id="hair">
	<path class="st3" d="M312.3,82.7c0,0,54.4-32,97.9,27.3s-11.9,110.5-5.9,115.9c6,5.4,21.3,16.8,22.7,46.1c1.3,29.3-2,44.7-32.3,53
		s-53-3-62.3,9c-9.3,12-42,8-65,6.7c-23-1.3-23.6,2.1-37-1.3c-17.4-4.5-12.7-2.7-36-4.7s-32.7-10-39.3-5c-6.7,5-29.3-5.8-28-23.4
		c0,0-57.3-7.2-14.5-58.9c0,0,17.7-15.6,5.8-44.1c-21.7-52,34.1-68.4,36.9-88c3.4-24,27.1-48.7,73.7-62.7
		C271.8,39.8,282.3,53.3,312.3,82.7z"/>
</g>
<g id="skin">
	<path class="st4" d="M283.6,317.3c0,0,0.7,7.4,0,12.7c-0.7,5.3,0.3,38.3,0.3,38.3l-19-6.6l-4.7-25.7l8.7-6v-15.7L283.6,317.3z"/>
	<path class="st4" d="M189.6,164c0,0-40,43.3-10.7,102s98.6,52.4,98.6,52.4s77.6-1.1,78.5-76.8c0,0,24.2,5.5,29.6-15.8
		s-7.3-39.7-24.7-30.8l0.7-31.1l-22-71.3l-29.3-3.3L277.5,68L189.6,164z"/>
	<path class="st5" d="M282.3,160.5c-1.5,2.2-2.2,11.5,0,10.6c2.2-0.8,35.8-13.3,38.5-12.3s24.2,11.2,24.2,11.2s-17.4-20.2-24.2-20.2
		S282.3,160.5,282.3,160.5z"/>
	<path class="st5" d="M244.5,156.3c0,0,1.5,8.5,0,10s-29-13.5-29-13.5l3.5-6L244.5,156.3z"/>
	<g>
		<path class="st6" d="M202,160.5c-1.4,0.7-2.8,1.4-4.3,2.1c-1.4,0.7-2.8,1.5-4.2,2.3c-2.7,1.6-5.4,3.2-8,5
			c-1.3,0.9-2.6,1.8-3.8,2.7c-1.3,0.9-2.5,1.9-3.7,2.8l-1.8,1.5l-1.7,1.5c-1.1,1-2.3,2.1-3.4,3.2c-1.1,1.1-2.1,2.2-3.1,3.4l-1.5,1.8
			l-1.4,1.8c-0.5,0.6-0.9,1.3-1.3,1.9c-0.4,0.6-0.8,1.3-1.2,1.9c-0.4,0.7-0.8,1.3-1.1,2l-1,2c-0.5,1.4-1.2,2.8-1.6,4.2
			c-0.5,1.4-0.8,2.9-1.1,4.4l-0.3,2.2c-0.1,0.7-0.1,1.5-0.2,2.2c-0.2,1.5,0,3,0,4.5l0-0.3c0.2,0.7,0.4,1.4,0.7,2.2
			c0.3,0.7,0.6,1.5,0.9,2.2c0.3,0.7,0.7,1.4,1,2.1c0.4,0.7,0.8,1.4,1.2,2c0.4,0.6,0.9,1.3,1.4,1.8c0.5,0.6,1,1.1,1.6,1.6
			c0.6,0.5,1.2,1,1.8,1.4c0.6,0.4,1.3,0.8,2,1.1c0.4,0.1,0.7,0.3,1.1,0.4l1.1,0.3c0.7,0.2,1.5,0.3,2.3,0.4c0.4,0.1,0.8,0.1,1.2,0.1
			c0.4,0,0.8,0,1.2,0c0.8-0.1,1.6-0.1,2.4-0.3c0.8-0.1,1.6-0.3,2.4-0.5c0.8-0.2,1.5-0.5,2.3-0.7l2.3-0.9l2.2-1.1l-2.1,1.4
			c-0.7,0.4-1.4,0.9-2.2,1.3c-0.8,0.4-1.5,0.8-2.3,1.1c-0.8,0.3-1.6,0.6-2.4,0.9c-0.8,0.3-1.7,0.4-2.5,0.6c-0.4,0.1-0.9,0.1-1.3,0.2
			c-0.4,0.1-0.9,0.1-1.3,0.1c-0.9,0-1.8-0.1-2.6-0.2l-1.3-0.3c-0.4-0.1-0.9-0.3-1.3-0.4c-0.8-0.3-1.7-0.7-2.5-1.1
			c-0.8-0.4-1.5-0.9-2.2-1.5c-0.7-0.5-1.4-1.2-2-1.8c-0.6-0.6-1.2-1.3-1.7-2c-1.1-1.4-2-2.9-2.8-4.5c-0.4-0.8-0.7-1.6-1.1-2.4
			c-0.3-0.8-0.6-1.6-0.9-2.5l0-0.1l0-0.1c-0.1-1.7-0.3-3.3-0.2-5c0.1-0.8,0-1.7,0.1-2.5l0.3-2.5c0.3-1.6,0.6-3.3,1.2-4.9
			c0.4-1.6,1.1-3.2,1.7-4.7l1.1-2.2c0.4-0.7,0.8-1.4,1.2-2.2c0.4-0.7,0.9-1.4,1.3-2.1c0.5-0.7,0.9-1.4,1.4-2l1.5-2l1.6-1.9
			c1.1-1.2,2.2-2.4,3.4-3.5c1.2-1.1,2.4-2.2,3.7-3.2c1.3-1,2.6-2,3.9-2.9c1.3-0.9,2.7-1.8,4-2.7c1.4-0.9,2.8-1.7,4.2-2.4
			c2.8-1.6,5.7-2.9,8.7-4.2c1.5-0.6,3-1.2,4.5-1.7C199,161.4,200.5,160.9,202,160.5z"/>
	</g>
	<polygon class="st6" points="310.3,89.3 322.2,93.4 330.1,99.5 336.3,108 339.5,121.7 341.2,142 345,160.6 352.3,174.2 
		365.1,184.3 394.6,121.7 336.3,84 325.8,81.3 311.2,85.8 288.3,68 277.5,68 194.3,122.5 152.4,171.2 183,174 194.3,171.8 
		207.8,164.9 221.4,153 244.6,122.5 264.2,92 275,80.7 288.3,78.2 300.7,82.5 	"/>
	<g>
		<path class="st6" d="M404.3,178c-1,3.2-3.1,6.2-5.9,8.2c-2.8,2-6.3,3-9.7,3.4c-3.4,0.4-6.9,0.2-10.3-0.5l-2.5-0.5
			c-0.8-0.2-1.7-0.3-2.5-0.6c-1.7-0.5-3.4-0.9-5-1.5c-3.3-1.1-6.4-2.8-9.3-4.7l-2.1-1.5c-0.7-0.6-1.3-1.1-2-1.7
			c-0.7-0.6-1.3-1.2-1.9-1.8c-0.6-0.6-1.2-1.3-1.7-2c-2.3-2.7-4.1-5.7-5.6-8.9c-1.5-3.2-2.7-6.5-3.5-9.8c-0.9-3.4-1.6-6.8-2-10.2
			c-0.5-3.4-0.9-6.8-1.2-10.2l-0.8-10.2c-0.3-3.4-0.6-6.7-1.3-9.9c-0.2-0.8-0.3-1.6-0.5-2.4c-0.1-0.4-0.2-0.8-0.3-1.2l-0.4-1.1
			l-0.2-0.6l-0.2-0.5l-0.2-0.5l-0.1-0.3l-0.1-0.1l0-0.1l0,0c0,0,0-0.1,0,0l-1.3-2.2c-0.4-0.8-0.9-1.4-1.4-2
			c-0.5-0.6-0.9-1.3-1.5-1.9c-0.5-0.6-1.1-1.2-1.6-1.8l-1.7-1.7c-2.4-2.1-5.1-3.9-8-5.3c-1.5-0.7-3-1.3-4.5-1.7
			c-0.8-0.2-1.5-0.4-2.3-0.6c-0.8-0.2-1.6-0.3-2.3-0.4l-0.7-0.1l-0.5-0.5c-1.7-1.6-3.7-3.1-5.7-4.4c-2-1.3-4.1-2.5-6.3-3.5
			c-4.4-1.9-9.1-3-13.7-2.6c-2.3,0.2-4.5,0.8-6.6,1.8l-0.4,0.2l-0.2,0.1l-0.1,0l0,0c0.3-0.1,0,0,0.1,0l-0.8,0.5l-0.8,0.5l-0.6,0.5
			c-0.8,0.6-1.6,1.5-2.5,2.3c-3.2,3.6-6.1,7.7-8.8,11.8c-5.5,8.3-10.7,17-16.3,25.4c-2.8,4.2-5.7,8.4-8.6,12.5
			c-3,4.1-6.1,8.1-9.4,12c-3.3,3.9-6.8,7.6-10.6,11c-1,0.8-1.9,1.7-2.9,2.5l-3,2.4l-3.1,2.2c-1,0.8-2.2,1.4-3.3,2.1
			c-4.4,2.6-9.2,4.7-14.3,5.9c-1.3,0.2-2.5,0.5-3.8,0.7l-3.9,0.3c-1.3,0-2.5,0-3.8,0.1c-1.3,0-2.6-0.1-3.8-0.1
			c-5.1-0.2-10.2-0.9-15.1-2.1c-4.9-1.2-9.8-3-14.2-5.4c-4.5-2.4-8.6-5.5-12.2-9.1c-1.8-1.8-3.4-3.8-4.8-5.9
			c-1.4-2.1-2.7-4.3-3.6-6.6c2.1,4.6,5.3,8.6,8.9,12c3.6,3.5,7.8,6.3,12.2,8.5c4.5,2.2,9.2,3.8,14.1,4.8c4.9,1,9.8,1.5,14.8,1.6
			c1.2,0,2.5,0,3.7,0c1.2-0.1,2.5-0.1,3.7-0.2l3.6-0.4c1.2-0.2,2.4-0.5,3.6-0.8c4.7-1.2,9.2-3.3,13.4-5.9c1-0.7,2.1-1.3,3.1-2l3-2.2
			l2.8-2.4c1-0.8,1.8-1.7,2.7-2.5c3.6-3.4,7-7,10.2-10.9c3.2-3.8,6.2-7.8,9.1-11.9c2.9-4.1,5.7-8.2,8.4-12.5c2.7-4.2,5.4-8.5,8-12.7
			c2.7-4.3,5.3-8.6,8.1-12.8c2.8-4.2,5.7-8.5,9.2-12.4c1-1,1.8-1.9,3-2.8l0.9-0.7l0.8-0.5l0.8-0.5l0.2-0.1l0.1,0l0.1-0.1l0.2-0.1
			l0.5-0.2c2.5-1.1,5.2-1.8,7.9-2.1c5.5-0.5,10.9,0.8,15.7,2.9c2.4,1.1,4.7,2.4,6.9,3.8c2.2,1.5,4.2,3,6.2,4.8l-1.2-0.5
			c2,0.2,3.6,0.6,5.4,1.2c1.7,0.5,3.4,1.2,5,2c3.2,1.6,6.2,3.6,8.9,6l1.9,1.9c0.6,0.7,1.2,1.3,1.8,2c0.6,0.6,1.1,1.4,1.6,2.2
			c0.5,0.7,1.1,1.5,1.5,2.2l1.3,2.2c0.1,0.1,0,0.1,0.1,0.1l0,0l0,0.1l0.1,0.2l0.1,0.3l0.3,0.6l0.3,0.6l0.2,0.6l0.4,1.3
			c0.1,0.4,0.2,0.9,0.3,1.3c0.2,0.9,0.4,1.7,0.6,2.6c0.6,3.5,0.9,6.9,1.2,10.3l0.7,10.2c0.2,3.4,0.5,6.7,1,10.1
			c0.4,3.3,1,6.6,1.8,9.9c0.8,3.3,1.8,6.4,3.1,9.5c1.3,3,3,5.9,5,8.5c0.5,0.7,1,1.3,1.6,1.9c0.6,0.6,1.1,1.2,1.7,1.8
			c0.6,0.6,1.2,1.1,1.8,1.7l2,1.5c2.7,1.9,5.6,3.6,8.7,4.8c3.1,1.3,6.3,2.1,9.7,2.9c3.2,0.8,6.6,1,10,0.8c3.3-0.3,6.7-1.1,9.5-2.9
			C401,184,403.1,181.2,404.3,178z"/>
	</g>
	<path class="st7" d="M339.6,92.7c0,0,16.2-3.9,16.4,19.7s4.8,48.8,24.3,39.7c14.3-6.7,14.3-18.2,14.3-18.2s-13,11.6-21.7,8.2
		C356.1,135.3,371.6,71.3,339.6,92.7z"/>
	<path class="st8" d="M352.3,153.9c0,0,11.2,14,25,21.5c9,4.9,19.6,5.9,27,2.5C404.3,178,371,196.5,352.3,153.9z"/>
	<path class="st9" d="M463.2,115.3"/>
	<path class="st7" d="M215,104.7l4.7-16.3l-13.3,18.3c-0.5-25.3,31.3-33.3,31.3-33.3c-26.7-2-36.8,21.4-40.4,33
		c-8.6,27.4-34.9,45.7-34.9,45.7c10.6,1.4,21.1-3.7,26-10l18.7-24c-1,14.8-16,34-16,34c11.3,0.7,28-14.7,36-42c8-27.3,42-42,42-42
		S227.6,86.9,215,104.7z"/>
	<path class="st4" d="M183.6,387.3l55.3-20l13.3-27.8c0,0-103,37.8-96.8,43.2c6.1,5.3,70.8,68.7,70.8,68.7s-6,24.6,2.7,25
		c8.7,0.3,14-27.7,14-27.7L183.6,387.3z"/>
	<path class="st4" d="M312.3,358l21.3,49.9l44.7-73.9c0,0,41.7-3.3,39.2,0s-33.8,13.3-33.8,13.3s-41.3,90.7-49.3,89.5
		c-8-1.2-38-64.6-38-64.6L312.3,358z"/>
	<polygon class="st4" points="255.6,616.7 260.3,630.7 255.6,646 267,656 277.5,656 288.3,648 277.5,630 288.3,608.7 	"/>
	<path class="st10" d="M361,204.7c0,0,7-5.2,11-4s6.3,10.5,6.3,17.3s-2.3,12.5-4.3,12.4s-5-9.6-10.5-6.6"/>
	<path class="st5" d="M363.7,222.2c0,0,3.3-3.3,3.4-3.9c0.1-0.6-3.3-4.6,0-4.6s5.3,3,4.8,4.6C371.5,220,363.7,222.2,363.7,222.2z"/>
	<circle class="st11" cx="364" cy="233.1" r="6"/>
	<path class="st12" d="M469.2,301.2c-16.8-7.2-56.7,9-64.9,10.7c-8.2,1.7-22.6,3.2-28.1,3.1c-26.2-0.7-11.8,13.9-4.2,18.6
		c7.6,4.7,87.9,1.8,99.4-3.5C483,324.7,486,308.4,469.2,301.2z M385.6,328c-3.1,0-5.7-1.8-5.7-4.1c0-2.2,2.5-4.1,5.7-4.1
		c3.1,0,5.7,1.8,5.7,4.1C391.3,326.2,388.8,328,385.6,328z"/>
	<g>
		<g>
			<path class="st13" d="M451.7,305.6c-2-0.4-4-0.3-5.7,0.9c-1.6,1.2-2.5,3.3-1.9,5.2c0.6,2,2.3,3.2,4.2,3.8
				c0.9,0.3,1.9,0.4,2.8,0.9c0.8,0.5,1.4,1.2,2.2,1.6c3.7,2,6.8-1.3,7.5-4.7c0.9-4.7-5.5-6.5-9-7.4c-1.9-0.5-3.5,1.2-3.1,3.1
				c0.3,1.1,0.9,1.9,1.8,2.6c0.4,0.3,2,1.1,2,1.2c0.8-1.1,1.6-2.1,2.4-3.2c-1.4-0.2-2.7-0.6-4-1.1c-2.9-1.3-5.4,3-2.5,4.3
				c2.1,1,4.2,1.5,6.5,1.8c1.7,0.2,2.7-1.8,2.4-3.2c-0.3-1.1-0.9-1.9-1.8-2.6c-0.3-0.3-2-1.1-2-1.2c-1,1-2.1,2.1-3.1,3.1
				c1.8,0.4,3.4,1.4,5.1,1.9c0.7,0.6,0.8,0.6,0.5,0c-0.1-0.6-0.2-0.5-0.3,0.2c-0.1,0.3-0.2,0.6-0.5,0.9c0.1-0.2,0-0.4-0.2-0.5
				c-1.3-0.6-2.1-1.6-3.5-2.1c-0.9-0.3-4-1.3-1.1-0.7C453.6,311,454.9,306.2,451.7,305.6L451.7,305.6z"/>
		</g>
	</g>
	<g>
		<g>
			<path class="st14" d="M467.3,314.3c-0.6,2.2-2.5,3.7-3.7,5.6c-1.2,1.8-2.2,4.5-1.7,6.7c1.3,6.2,8.5,1.5,11-0.9
				c1.7-1.7,2.9-3.7,3.2-6.1c0.3-2.1-0.1-5.2-2-6.5c-1.9-1.4-3.9,0-4.8,1.9c-1.3,2.7-2.5,5.1-4.7,7.2c-2.3,2.3,1.3,5.8,3.5,3.5
				c1.3-1.3,2.5-2.7,3.4-4.2c0.4-0.7,0.8-1.4,1.2-2.1c0.3-0.7,0.6-2,1.1-2.5c-0.6,0.2-1.2,0.5-1.8,0.7c0.1,0,0.3,0,0.4,0
				c-0.6-0.2-1.2-0.5-1.8-0.7c1.6,1.7-0.5,4.5-1.7,5.6c-0.6,0.5-1.2,1-1.8,1.4c-0.4,0.3-0.8,0.5-1.2,0.8c0.6,1,0.9,1,0.9-0.1
				c0.5-0.7,0.8-1.9,1.4-2.6c0.4-0.6,0.9-1.1,1.3-1.6c1.1-1.4,2-2.8,2.5-4.6C473,312.5,468.2,311.2,467.3,314.3L467.3,314.3z"/>
		</g>
	</g>
	<g>
		<g>
			<path class="st15" d="M453.8,323.2c-0.8,0.2-1.8-0.2-2.6-0.1c-1,0.1-2,0.5-2.7,1.2c-1.8,1.8-1.2,4.7,1.1,5.8
				c3.9,1.7,9.3-2.2,7.7-6.5c-0.5-1.3-1.7-2.1-3.1-1.7c-1.5,0.4-3.1,0.8-4.6,1.1c-3.1,0.8-1.8,5.6,1.3,4.8c1.5-0.4,3.1-0.8,4.6-1.1
				c-1-0.6-2.1-1.2-3.1-1.7c0.1,0.4,0.1,0.3,0.1,0c0,0.2-0.2,0.3-0.3,0.3c-0.3,0.1-0.4,0.2-0.8,0.2c0.3,0,0.3,0,0,0
				c0.2,0,0.3,0,0.1,0c-0.3-0.1-0.2,0,0.4,0.3c0.6,0.9,0.6,1.7-0.1,2.2c-0.2,0.1-0.2,0.1,0.1,0c-0.3,0.1-0.2,0.1,0.2,0.1
				c1,0.2,2.1,0.2,3-0.1C458.2,327.1,456.9,322.3,453.8,323.2L453.8,323.2z"/>
		</g>
	</g>
	<g>
		<g>
			<path class="st16" d="M439,321.6c-2.4,0-5.9-0.6-7.8,1.2c-1.8,1.8-1.6,4.8,0.2,6.5c2,1.8,4.8,1.6,7,0.3c1.2-0.7,2.4-1.6,2.9-2.9
				c0.4-1.3,0.2-2.9-0.9-3.8c-1-0.9-2.5-1-3.5,0c-0.9,0.9-1,2.7,0,3.5c0.3-1.3,0.2-1.8-0.3-1.5c-0.2,0.1-0.4,0.2-0.6,0.4
				c-0.3,0.2-0.5,0.3-0.8,0.4c0,0-0.4,0-0.3-0.1c0,0,0.3,0.3,0.2,0.3c0.1-0.1-0.5,1.1-0.6,0.7c0,0,1.2,0,1.4,0c1.1,0,2.2,0,3.3,0
				C442.2,326.6,442.2,321.6,439,321.6L439,321.6z"/>
		</g>
	</g>
	<g>
		<g>
			<path class="st17" d="M432.1,314c-2.7-1.4-5.6-2.4-8.6-2.9c-2.8-0.4-4.5,1.3-5.4,3.9c-0.8,2.4,0.1,5.5,2.8,6.1
				c2.7,0.6,5.9-1.2,8.2-2.5c2.8-1.6,0.3-5.9-2.5-4.3c-1,0.6-2.1,1.1-3.2,1.5c-0.3,0.1-0.6,0.2-1,0.3c-0.5,0.1-0.4,0.2,0.4,0.4
				c0.1-0.2,0.1-0.3,0.2-0.5c0.4-0.6,0.4-0.7,0-0.3c-0.9,0.1,1.2,0.5,1.1,0.5c0.6,0.1,1.1,0.3,1.7,0.5c1.3,0.4,2.5,0.9,3.6,1.5
				C432.4,319.8,434.9,315.5,432.1,314L432.1,314z"/>
		</g>
	</g>
	<path class="st18" d="M415,339.9c0,0,8.3-2.7,10,3.1s6.6,6.2,6.6,6.2s-7,5.6-10.8,2.3C417,348.1,415,339.9,415,339.9z"/>
	<path class="st19" d="M377,308.8c0.2-3.8,41.2,30.2,41.2,30.2l-3.5,3.1C414.7,342.1,376.9,311.9,377,308.8z"/>
	<path class="st4" d="M381,324.9c0,0,2.1-18.5,6.9-16.1c4.8,2.5,2.8,13.2,2.8,13.2s4.3-0.5,1.7,2.9
		C389.7,328.4,383.6,329.9,381,324.9z"/>
	<path class="st20" d="M148.7,185.1c0,0-20,22.5-3.3,41.2C145.3,226.4,116.7,210.3,148.7,185.1z"/>
	<path class="st7" d="M125.6,256c0,0-28.6,17.3-13.6,33.8C112,289.8,104.6,276.7,125.6,256z"/>
	<path class="st7" d="M145.3,226.4c0,0,29.3,19.9,17,23.5c-12.3,3.5-25.6,6.2-25.6,6.2s18.4-6.3,18.6-12.1
		C155.3,238,145.3,226.4,145.3,226.4z"/>
	<path class="st20" d="M393.2,249.8c0,0,27.3,17.5,24.4,28.9c-2.9,11.3-26.3,6.7-26.3,14c0,7.3,6.3,6.7,6.3,6.7s-8,12-30.5,12.6
		c0,0,15.3-5.9,19.7-12.6c4.4-6.7-4.9-16-1.2-16s25,2.7,25-6C410.7,268.7,406.3,258.3,393.2,249.8z"/>
	<path class="st20" d="M168.2,280.9c0,0-27.9,17.2-12.7,18.5c15.2,1.3,34,5.7,23.3,8.5c-10.8,2.8-20.1,8.3-20.1,8.3l7.8-8.3
		c0,0-29.1,2.2-18.1-11.2S168.2,280.9,168.2,280.9z"/>
	<path class="st20" d="M148.7,137.6c0,0,34.1,8.5,33.2-15.8c-1.6-42.9,35.8-45.6,8.7-36c0,0-14.7,11.4-15.4,24.3
		C174.3,126.4,177.4,138.7,148.7,137.6z"/>
</g>
<g id="Layer_8">
	<polyline class="st21" points="272,612.7 272,634.8 276.5,648.3 	"/>
	<polygon class="st22" points="221.5,351.7 249.8,339.6 270.3,366 292,342.4 312,342.4 317.3,361.7 303,375.3 289,433 249.3,428.6 
		235.3,366.7 228.9,370.3 	"/>
	<polygon class="st22" points="266.7,364.2 272.1,366 270.3,429.8 266.3,431 	"/>
	<polygon class="st22" points="246.8,336 262.2,331.4 268.1,361.7 	"/>
	<polygon class="st22" points="270.3,366 286.1,329.7 302.6,342.4 	"/>
	<polygon class="st22" points="213.6,352 226.6,348 229.3,374 221.5,375.3 	"/>
	<line class="st22" x1="297" y1="368.3" x2="300.4" y2="386"/>
	<polygon class="st22" points="297,375.3 304.6,386 322.6,371 317.3,361.7 	"/>
	<path class="st23" d="M246.8,424.3L289,433c0,0,15.7,12.3,20.8,30.3c5.2,18-0.4,56.5-11.1,72.5c0,0-2.8-0.5,0,7s5.1,13.5,4,22
		c-1.2,8.5-18.7,52.5-18.7,52.5l-26.5,4.8c0,0-17.5-43.8-17.5-63.3s4.5-17.5,4.5-23.2s-17.8-52.4-18-67.5
		C226.3,451.3,246.8,424.3,246.8,424.3z"/>
	<path class="st23" d="M270.3,429.8c0,0,2,24.5-0.9,28.5s-7.5,0-7.5,0"/>
	<line class="st23" x1="269.4" y1="476.3" x2="272" y2="617.3"/>
	<path class="st23" d="M276.5,648.3c0,0,10.5,7.5,14,0c0,0,7,9,0,12S276.5,666.8,276.5,648.3z"/>
	<path class="st23" d="M260.3,630.7c0,0-13.3,16.9,6.1,25.2c7.9,3.3,8.5,0,8.5,0s-3.9,7.5-5.9,9.5s-9.1-0.5-12.6-4.5
		C253,656.8,250.8,644.2,260.3,630.7z"/>
</g>
<g id="eyes">
	<path class="st9" d="M279.5,192.7c0,0,12.3,16.2,33.2,14.9c20.8-1.3,27.1-17.7,27.1-17.7l-7.7-0.7l-16.5-9.6L299,181L279.5,192.7z"
		/>
	<path class="st9" d="M180.3,177.3h18.1l20.6-11l19,16c0,0-7.2,14.4-28.2,14.3C194.6,196.7,180.3,177.3,180.3,177.3z"/>
</g>
<g id="face">
	<circle class="st24" cx="213" cy="179.7" r="9.6"/>
	<circle class="st24" cx="311.2" cy="192.7" r="9.6"/>
	<g>
		<path d="M348.6,187c-2.7,1.1-5.4,2.2-8.3,2.8c-1.4,0.3-2.9,0.6-4.5,0.5c-1.5-0.1-3.1-0.5-4.4-1c-2.8-1-5.4-2.2-8.1-3.1
			c-2.7-0.9-5.4-1.8-8.2-2.5l-1-0.2l-0.9-0.1c-0.6-0.1-1.3-0.1-2,0c-1.4,0-2.7,0.2-4.1,0.5c-2.8,0.5-5.5,1.3-8.2,2.1
			c-2.7,0.9-5.4,1.9-8.1,2.9c-1.3,0.5-2.7,1.1-4,1.7c-1.3,0.6-2.6,1.2-3.9,1.8l-8.7,4.2l6.8-6.9c1.1-1.1,2.1-2.1,3.2-3.1
			c1.1-1,2.2-2,3.3-3c2.3-1.9,4.6-3.8,7-5.6c2.4-1.8,5-3.4,7.7-4.8c2.7-1.4,5.6-2.6,8.8-3.2c1.6-0.3,3.3-0.3,5,0
			c0.4,0.1,0.9,0.2,1.3,0.3l1.1,0.4c0.7,0.2,1.4,0.5,2.1,0.8c1.4,0.6,2.8,1.2,4.2,1.9c1.4,0.7,2.7,1.5,4,2.4c2.5,1.8,4.8,4,6.7,6.3
			c0.5,0.6,1,1.2,1.4,1.8l1.3,1.8c0.8,1.2,1.6,2.4,2.4,3.7l0.4,0.6l-0.1,0.4c-0.2,0.9-0.5,1.5-0.8,2.3c-0.3,0.7-0.6,1.4-1,2.1
			c-0.7,1.3-1.6,2.6-2.6,3.7c-0.5,0.6-1,1.1-1.6,1.6c-0.5,0.5-1.1,1-1.7,1.5c-0.6,0.5-1.2,0.9-1.8,1.3c-0.6,0.4-1.3,0.8-1.9,1.1
			c-0.7,0.4-1.3,0.7-2,1c-0.7,0.3-1.4,0.6-2.1,0.8c-1.4,0.5-2.8,0.9-4.2,1.2c-0.7,0.2-1.4,0.3-2.2,0.4c-0.7,0.1-1.4,0.2-2.2,0.3
			l-2.2,0.2l-2.2,0.1l2.1-0.3l2.1-0.4l2.1-0.5c0.7-0.2,1.4-0.3,2.1-0.6c1.4-0.4,2.7-0.9,4-1.5c0.6-0.3,1.3-0.6,1.9-0.9
			c0.6-0.3,1.2-0.7,1.8-1.1c0.6-0.4,1.2-0.8,1.7-1.2c0.6-0.4,1.1-0.9,1.6-1.3c0.5-0.5,1-1,1.5-1.5c0.5-0.5,0.9-1,1.3-1.6
			c0.8-1.1,1.6-2.3,2.2-3.5c0.3-0.6,0.6-1.2,0.8-1.9c0.2-0.6,0.4-1.3,0.5-1.9l0.3,1c-1.1-1-2.1-2.1-3.1-3.2l-1.5-1.6
			c-0.5-0.5-0.9-1.1-1.4-1.6c-0.9-1.1-1.9-2.1-2.9-3c-1-0.9-2.1-1.8-3.2-2.6c-1.1-0.8-2.3-1.5-3.5-2.1c-1.2-0.7-2.5-1.2-3.8-1.7
			c-0.6-0.2-1.3-0.5-2-0.7l-1-0.3c-0.3-0.1-0.6-0.2-0.8-0.2c-1.2-0.2-2.4-0.2-3.7,0c-2.6,0.4-5.2,1.5-7.7,2.7
			c-2.5,1.3-4.9,2.8-7.3,4.4c-2.3,1.6-4.6,3.4-6.8,5.3c-1.1,0.9-2.2,1.9-3.3,2.9c-1.1,1-2.1,2-3.1,3l-2-2.8c1.4-0.6,2.7-1.2,4-1.8
			c1.4-0.6,2.7-1.1,4.1-1.7c2.7-1.1,5.5-2,8.3-2.9c2.8-0.9,5.7-1.6,8.7-2.1c1.5-0.2,3-0.4,4.5-0.5c0.8,0,1.6,0,2.4,0.1
			c0.4,0,0.9,0.1,1.3,0.2l0.5,0.1l0.3,0.1l0.1,0l0.1,0l0.1,0c2.8,0.9,5.6,1.9,8.3,3.1c1.4,0.6,2.7,1.2,4,1.8l3.9,1.9
			c1.3,0.6,2.6,1.1,3.9,1.3c1.3,0.2,2.7,0.1,4.2,0C343,188.5,345.8,187.7,348.6,187z"/>
	</g>
	<g>
		<path d="M209.8,196.7c-0.8,0-1.5,0.1-2.3,0c-0.4,0-0.8-0.1-1.1-0.1c-0.4,0-0.8-0.1-1.1-0.2c-0.8-0.1-1.5-0.3-2.2-0.5
			c-0.7-0.2-1.5-0.5-2.2-0.8c-2.9-1.1-5.5-2.7-8.1-4.5c-2.5-1.8-4.9-3.7-7.1-5.8c-1.1-1.1-2.2-2.1-3.3-3.2c-0.5-0.6-1.1-1.1-1.6-1.7
			c-0.5-0.6-1-1.1-1.5-1.8l-2.9-3.5l4.5,1.4c2.2,0.7,4.8-0.1,7.3-1.2c2.5-1.1,4.9-2.6,7.3-4.1c2.4-1.5,4.8-3.1,7.3-4.6
			c2.5-1.5,5.1-3,7.9-4.1c1.4-0.5,3-1,4.6-1.2c1.6-0.2,3.4-0.1,5,0.3c0.4,0.1,0.8,0.2,1.2,0.4l0.3,0.1l0.3,0.1l0.5,0.2
			c0.3,0.1,0.8,0.4,1.1,0.5l1,0.6c1.4,0.8,2.6,1.8,3.7,2.9c2.3,2.1,4.1,4.4,5.8,6.9c0.8,1.2,1.6,2.5,2.4,3.8c0.7,1.3,1.4,2.6,2.1,4
			l-3.5,1.5c-0.9-2.2-2.1-4.2-3.8-5.6c-1.7-1.5-3.8-2.4-6.2-2.7c-2.3-0.4-4.8-0.4-7.3-0.1c-2.5,0.2-5,0.7-7.5,1.3
			c-5,1.1-10,2.6-15.1,3.8c-2.5,0.6-5.1,1.1-7.8,1.2c-1.3,0-2.7,0-4-0.4c-1.3-0.3-2.5-1-3.3-2c0.9,0.9,2.2,1.4,3.4,1.6
			c1.3,0.2,2.5,0.1,3.8,0c2.5-0.3,5-1,7.5-1.8c2.5-0.8,4.9-1.6,7.4-2.5c2.5-0.8,4.9-1.6,7.5-2.4c2.5-0.7,5.1-1.3,7.8-1.7
			c2.7-0.4,5.4-0.6,8.2-0.2c2.8,0.4,5.6,1.4,7.9,3.3c2.3,1.9,3.9,4.4,5,7l-3.5,1.5c-0.6-1.2-1.3-2.4-2-3.6c-0.7-1.2-1.5-2.4-2.3-3.5
			c-1.6-2.3-3.3-4.4-5.3-6.2c-1-0.9-2-1.7-3.1-2.4l-0.8-0.5c-0.3-0.1-0.5-0.3-0.8-0.4l-0.5-0.2l-0.1-0.1l-0.1,0c0,0,0.1,0,0,0l0,0
			l0,0l-0.2-0.1c-0.3-0.1-0.6-0.2-0.9-0.3c-1.2-0.3-2.3-0.4-3.5-0.2c-1.2,0.2-2.5,0.5-3.7,1c-2.5,0.9-5,2.3-7.4,3.7
			c-2.5,1.4-4.9,2.9-7.4,4.4c-2.5,1.5-5.1,2.9-7.9,4c-1.4,0.6-2.9,1-4.5,1.3c-1.6,0.2-3.3,0.2-5-0.4l1.5-2.1
			c0.4,0.6,0.9,1.2,1.4,1.7c0.5,0.6,0.9,1.2,1.4,1.7c1,1.1,2,2.2,3,3.3c2.1,2.2,4.2,4.2,6.5,6.1c2.3,1.9,4.8,3.6,7.4,4.9
			c0.7,0.3,1.4,0.6,2,0.9c0.7,0.3,1.4,0.5,2.1,0.7c0.4,0.1,0.7,0.2,1.1,0.3c0.4,0.1,0.7,0.2,1.1,0.2
			C208.2,196.6,209,196.6,209.8,196.7z"/>
	</g>
	<polygon points="183,179.7 191.6,178.7 206.5,174.5 221.3,171.7 233.8,175.7 227.8,168.1 217,162.7 209.8,164.5 195.3,172.8 	"/>
	<path class="st25" d="M183,179.7"/>
	<path class="st25" d="M238.3,184.7"/>
	<polygon points="286.1,189.3 307.7,181.8 322.3,184.5 330.8,187.8 339.7,189.9 332.2,181 320.8,174.6 312.9,171.2 301.6,174.6 	"/>
	<path d="M337.1,185.1c0,0,6.5,2.8,11.5,1.5c0,0-1.6,2.9-11.5,2.4"/>
	<circle class="st9" cx="204.4" cy="188.7" r="4"/>
	<circle class="st9" cx="301.4" cy="200.7" r="4"/>
	<circle class="st9" cx="208.6" cy="184.7" r="2.3"/>
	<circle class="st9" cx="305.6" cy="196.7" r="2.3"/>
	<g>
		<path class="st26" d="M259.6,196.7c0,0-0.1,1-0.3,2.7c-0.2,1.7-0.6,4.1-1.4,7c-0.4,1.4-0.8,3-1.4,4.6c-0.6,1.6-1.3,3.3-2.3,5
			c-0.5,0.9-1.1,1.7-1.9,2.5c-0.8,0.8-1.9,1.7-3.6,1.9c-1.7,0.2-3.5,0.5-5.2,1c-1.7,0.5-3.4,1.1-4.9,1.9c-1.4,0.8-2.6,1.8-2.8,2.7
			c-0.1,0.4-0.1,0.9,0.1,1.5l0.2,0.4l0.3,0.4l0,0.1l0,0l0,0c0,0,0,0.1,0,0l0.1,0.1l0.2,0.2l0.4,0.5c0.3,0.4,0.5,0.6,0.7,0.9
			c0.2,0.3,0.5,0.5,0.7,0.8c0.5,0.5,1,1,1.6,1.4c1.1,0.8,2.2,1.5,3.2,2c1,0.5,1.9,0.9,2.7,1.2c1.6,0.6,2.5,0.8,2.5,0.8
			s-0.2,0-0.7,0.1c-0.5,0-1.1,0-2,0c-1.7-0.1-4.2-0.6-7-2.1c-0.7-0.4-1.4-0.8-2-1.3c-0.4-0.2-0.7-0.5-1-0.8c-0.3-0.3-0.7-0.6-1-0.9
			l-0.4-0.4l-0.2-0.2l-0.1-0.1l-0.2-0.2c-0.2-0.2-0.3-0.4-0.5-0.6l-0.4-0.7c-0.6-1-0.9-2.3-0.7-3.7c0.2-1.4,1-2.5,1.7-3.3
			c0.8-0.9,1.7-1.5,2.6-2.1c1.8-1.1,3.8-1.8,5.8-2.4c2-0.5,4-0.9,6.1-1c0.2,0,0.8-0.2,1.3-0.7c0.5-0.5,1-1.1,1.5-1.8
			c0.9-1.3,1.8-2.8,2.5-4.3c0.7-1.4,1.4-2.8,2-4.1c1.2-2.6,2.1-4.8,2.8-6.4C259.3,197.6,259.6,196.7,259.6,196.7z"/>
	</g>
	<path class="st9" d="M226.6,255l83-13c0,0,1.3,42-38,48C237,295.3,226.6,255,226.6,255z"/>
	<circle class="st27" cx="201.1" cy="227.1" r="9.1"/>
	<circle class="st27" cx="330.3" cy="229.8" r="9.5"/>
</g>
</svg>
