<?xml version="1.0" encoding="utf-8"?>
<!-- Generator: Adobe Illustrator 19.2.1, SVG Export Plug-In . SVG Version: 6.00 Build 0)  -->
<svg version="1.1" id="Layer_1" xmlns="http://www.w3.org/2000/svg" xmlns:xlink="http://www.w3.org/1999/xlink" x="0px" y="0px"
	 viewBox="0 0 1160 751.6" style="enable-background:new 0 0 1160 751.6;" xml:space="preserve">
<style type="text/css">
	.st0{display:none;}
	.st1{fill:#3C2415;stroke:#3C2415;stroke-width:4;stroke-miterlimit:10;}
	.st2{fill:#FCBD7D;stroke:#786232;stroke-width:2;stroke-miterlimit:10;}
	.st3{fill:#603913;}
	.st4{fill:#3C2415;}
	.st5{opacity:0.24;fill:#FFFFFF;enable-background:new    ;}
	.st6{opacity:0.36;fill:#FFFFFF;enable-background:new    ;}
	.st7{fill:#FFFFFF;}
	.st8{opacity:0.31;fill:none;stroke:#603913;stroke-miterlimit:10;enable-background:new    ;}
	.st9{fill:#FFFFFF;stroke:#A7A9AC;stroke-miterlimit:10;}
	.st10{fill:#D6B670;stroke:#918E35;stroke-width:2;stroke-miterlimit:10;}
	.st11{fill:#BE1E2D;}
	.st12{fill:#F15A29;}
	.st13{fill:#FFDE17;}
	.st14{fill:#009444;}
	.st15{fill:#2B3990;}
	.st16{fill:#0B0806;}
	.st17{fill:#D52127;}
	.st18{opacity:0.43;fill:#FFFFFF;enable-background:new    ;}
	.st19{fill:none;stroke:#786232;stroke-width:2;stroke-miterlimit:10;}
	.st20{fill:#729BB7;stroke:#303F49;stroke-width:3;stroke-miterlimit:10;}
	.st21{fill:none;stroke:#303F49;stroke-width:3;stroke-miterlimit:10;}
	.st22{fill:#303F49;stroke:#121212;stroke-width:3;stroke-miterlimit:10;}
	.st23{fill:none;stroke:#121212;stroke-width:3;stroke-miterlimit:10;}
	.st24{stroke:#603913;stroke-width:7;stroke-miterlimit:10;}
	.st25{fill:none;stroke:#000000;stroke-width:4;stroke-miterlimit:10;}
	.st26{fill:#786232;}
	.st27{opacity:0.44;fill:#EE2A7B;enable-background:new    ;}
	.st28{fill:none;}
	.st29{font-family:'SaltedMocha-Regular';}
	.st30{font-size:100px;}
	.st31{font-size:160px;}
</style>
<g id="Layer_1_1_" class="st0">
	
		<image style="display:inline;overflow:visible;enable-background:new    ;" width="3264" height="2448" xlink:href="../../../Downloads/IMG_0434 2.JPG"  transform="matrix(1.947719e-11 0.4338 -0.4338 1.947719e-11 1126.0005 -293.0001)">
	</image>
</g>
<g id="hair">
	<path class="st1" d="M273,82.7c0,0,54.4-32,97.9,27.3S359,220.5,365,225.9s21.3,16.8,22.7,46.1c1.3,29.3-2,44.7-32.3,53
		s-53-3-62.3,9s-42,8-65,6.7s-23.6,2.1-37-1.3c-17.4-4.5-12.7-2.7-36-4.7s-32.7-10-39.3-5c-6.7,5-29.3-5.8-28-23.4
		c0,0-57.3-7.2-14.5-58.9c0,0,17.7-15.6,5.8-44.1c-21.7-52,34.1-68.4,36.9-88c3.4-24,27.1-48.7,73.7-62.7
		C232.5,39.8,243,53.3,273,82.7z"/>
</g>
<g id="skin">
	<path class="st2" d="M244.3,317.3c0,0,0.7,7.4,0,12.7c-0.7,5.3,0.3,38.3,0.3,38.3l-19-6.6l-4.7-25.7l8.7-6v-15.7L244.3,317.3z"/>
	<path class="st2" d="M150.3,164c0,0-40,43.3-10.7,102s98.6,52.4,98.6,52.4s77.6-1.1,78.5-76.8c0,0,24.2,5.5,29.6-15.8
		c5.4-21.3-7.3-39.7-24.7-30.8l0.7-31.1l-22-71.3L271,89.3L238.2,68L150.3,164z"/>
	<path class="st3" d="M243,160.5c-1.5,2.2-2.2,11.5,0,10.6c2.2-0.8,35.8-13.3,38.5-12.3s24.2,11.2,24.2,11.2s-17.4-20.2-24.2-20.2
		C274.7,149.8,243,160.5,243,160.5z"/>
	<path class="st3" d="M205.2,156.3c0,0,1.5,8.5,0,10s-29-13.5-29-13.5l3.5-6L205.2,156.3z"/>
	<g>
		<path class="st4" d="M162.7,160.5c-1.4,0.7-2.8,1.4-4.3,2.1c-1.4,0.7-2.8,1.5-4.2,2.3c-2.7,1.6-5.4,3.2-8,5
			c-1.3,0.9-2.6,1.8-3.8,2.7c-1.3,0.9-2.5,1.9-3.7,2.8l-1.8,1.5l-1.7,1.5c-1.1,1-2.3,2.1-3.4,3.2c-1.1,1.1-2.1,2.2-3.1,3.4l-1.5,1.8
			l-1.4,1.8c-0.5,0.6-0.9,1.3-1.3,1.9c-0.4,0.6-0.8,1.3-1.2,1.9c-0.4,0.7-0.8,1.3-1.1,2l-1,2c-0.5,1.4-1.2,2.8-1.6,4.2
			c-0.5,1.4-0.8,2.9-1.1,4.4l-0.3,2.2c-0.1,0.7-0.1,1.5-0.2,2.2c-0.2,1.5,0,3,0,4.5v-0.3c0.2,0.7,0.4,1.4,0.7,2.2
			c0.3,0.7,0.6,1.5,0.9,2.2c0.3,0.7,0.7,1.4,1,2.1c0.4,0.7,0.8,1.4,1.2,2s0.9,1.3,1.4,1.8c0.5,0.6,1,1.1,1.6,1.6s1.2,1,1.8,1.4
			s1.3,0.8,2,1.1c0.4,0.1,0.7,0.3,1.1,0.4l1.1,0.3c0.7,0.2,1.5,0.3,2.3,0.4c0.4,0.1,0.8,0.1,1.2,0.1s0.8,0,1.2,0
			c0.8-0.1,1.6-0.1,2.4-0.3c0.8-0.1,1.6-0.3,2.4-0.5c0.8-0.2,1.5-0.5,2.3-0.7l2.3-0.9l2.2-1.1l-2.1,1.4c-0.7,0.4-1.4,0.9-2.2,1.3
			c-0.8,0.4-1.5,0.8-2.3,1.1s-1.6,0.6-2.4,0.9c-0.8,0.3-1.7,0.4-2.5,0.6c-0.4,0.1-0.9,0.1-1.3,0.2c-0.4,0.1-0.9,0.1-1.3,0.1
			c-0.9,0-1.8-0.1-2.6-0.2l-1.3-0.3c-0.4-0.1-0.9-0.3-1.3-0.4c-0.8-0.3-1.7-0.7-2.5-1.1c-0.8-0.4-1.5-0.9-2.2-1.5
			c-0.7-0.5-1.4-1.2-2-1.8s-1.2-1.3-1.7-2c-1.1-1.4-2-2.9-2.8-4.5c-0.4-0.8-0.7-1.6-1.1-2.4c-0.3-0.8-0.6-1.6-0.9-2.5v-0.1v-0.1
			c-0.1-1.7-0.3-3.3-0.2-5c0.1-0.8,0-1.7,0.1-2.5l0.3-2.5c0.3-1.6,0.6-3.3,1.2-4.9c0.4-1.6,1.1-3.2,1.7-4.7l1.1-2.2
			c0.4-0.7,0.8-1.4,1.2-2.2c0.4-0.7,0.9-1.4,1.3-2.1c0.5-0.7,0.9-1.4,1.4-2l1.5-2l1.6-1.9c1.1-1.2,2.2-2.4,3.4-3.5s2.4-2.2,3.7-3.2
			s2.6-2,3.9-2.9c1.3-0.9,2.7-1.8,4-2.7c1.4-0.9,2.8-1.7,4.2-2.4c2.8-1.6,5.7-2.9,8.7-4.2c1.5-0.6,3-1.2,4.5-1.7
			C159.7,161.4,161.2,160.9,162.7,160.5z"/>
	</g>
	<polygon class="st4" points="271,89.3 282.9,93.4 290.8,99.5 297,108 300.2,121.7 301.9,142 305.7,160.6 313,174.2 325.8,184.3 
		355.3,121.7 297,84 286.5,81.3 271.9,85.8 249,68 238.2,68 155,122.5 113.1,171.2 143.7,174 155,171.8 168.5,164.9 182.1,153 
		205.3,122.5 224.9,92 235.7,80.7 249,78.2 261.4,82.5 	"/>
	<g>
		<path class="st4" d="M365,178c-1,3.2-3.1,6.2-5.9,8.2s-6.3,3-9.7,3.4c-3.4,0.4-6.9,0.2-10.3-0.5l-2.5-0.5
			c-0.8-0.2-1.7-0.3-2.5-0.6c-1.7-0.5-3.4-0.9-5-1.5c-3.3-1.1-6.4-2.8-9.3-4.7l-2.1-1.5c-0.7-0.6-1.3-1.1-2-1.7
			c-0.7-0.6-1.3-1.2-1.9-1.8c-0.6-0.6-1.2-1.3-1.7-2c-2.3-2.7-4.1-5.7-5.6-8.9s-2.7-6.5-3.5-9.8c-0.9-3.4-1.6-6.8-2-10.2
			c-0.5-3.4-0.9-6.8-1.2-10.2l-0.8-10.2c-0.3-3.4-0.6-6.7-1.3-9.9c-0.2-0.8-0.3-1.6-0.5-2.4c-0.1-0.4-0.2-0.8-0.3-1.2l-0.4-1.1
			l-0.2-0.6l-0.2-0.5l-0.2-0.5l-0.1-0.3l-0.1-0.1v-0.1l0,0c0,0,0-0.1,0,0l-1.3-2.2c-0.4-0.8-0.9-1.4-1.4-2s-0.9-1.3-1.5-1.9
			c-0.5-0.6-1.1-1.2-1.6-1.8l-1.7-1.7c-2.4-2.1-5.1-3.9-8-5.3c-1.5-0.7-3-1.3-4.5-1.7c-0.8-0.2-1.5-0.4-2.3-0.6s-1.6-0.3-2.3-0.4
			l-0.7-0.1l-0.5-0.5c-1.7-1.6-3.7-3.1-5.7-4.4s-4.1-2.5-6.3-3.5c-4.4-1.9-9.1-3-13.7-2.6c-2.3,0.2-4.5,0.8-6.6,1.8l-0.4,0.2
			l-0.2,0.1h-0.1l0,0c0.3-0.1,0,0,0.1,0l-0.8,0.5l-0.8,0.5l-0.6,0.5c-0.8,0.6-1.6,1.5-2.5,2.3c-3.2,3.6-6.1,7.7-8.8,11.8
			c-5.5,8.3-10.7,17-16.3,25.4c-2.8,4.2-5.7,8.4-8.6,12.5c-3,4.1-6.1,8.1-9.4,12c-3.3,3.9-6.8,7.6-10.6,11c-1,0.8-1.9,1.7-2.9,2.5
			l-3,2.4l-3.1,2.2c-1,0.8-2.2,1.4-3.3,2.1c-4.4,2.6-9.2,4.7-14.3,5.9c-1.3,0.2-2.5,0.5-3.8,0.7l-3.9,0.3c-1.3,0-2.5,0-3.8,0.1
			c-1.3,0-2.6-0.1-3.8-0.1c-5.1-0.2-10.2-0.9-15.1-2.1c-4.9-1.2-9.8-3-14.2-5.4c-4.5-2.4-8.6-5.5-12.2-9.1c-1.8-1.8-3.4-3.8-4.8-5.9
			c-1.4-2.1-2.7-4.3-3.6-6.6c2.1,4.6,5.3,8.6,8.9,12c3.6,3.5,7.8,6.3,12.2,8.5c4.5,2.2,9.2,3.8,14.1,4.8c4.9,1,9.8,1.5,14.8,1.6
			c1.2,0,2.5,0,3.7,0c1.2-0.1,2.5-0.1,3.7-0.2l3.6-0.4c1.2-0.2,2.4-0.5,3.6-0.8c4.7-1.2,9.2-3.3,13.4-5.9c1-0.7,2.1-1.3,3.1-2l3-2.2
			l2.8-2.4c1-0.8,1.8-1.7,2.7-2.5c3.6-3.4,7-7,10.2-10.9c3.2-3.8,6.2-7.8,9.1-11.9c2.9-4.1,5.7-8.2,8.4-12.5c2.7-4.2,5.4-8.5,8-12.7
			c2.7-4.3,5.3-8.6,8.1-12.8c2.8-4.2,5.7-8.5,9.2-12.4c1-1,1.8-1.9,3-2.8l0.9-0.7l0.8-0.5l0.8-0.5l0.2-0.1h0.1l0.1-0.1l0.2-0.1
			L236,78c2.5-1.1,5.2-1.8,7.9-2.1c5.5-0.5,10.9,0.8,15.7,2.9c2.4,1.1,4.7,2.4,6.9,3.8c2.2,1.5,4.2,3,6.2,4.8l-1.2-0.5
			c2,0.2,3.6,0.6,5.4,1.2c1.7,0.5,3.4,1.2,5,2c3.2,1.6,6.2,3.6,8.9,6l1.9,1.9c0.6,0.7,1.2,1.3,1.8,2c0.6,0.6,1.1,1.4,1.6,2.2
			c0.5,0.7,1.1,1.5,1.5,2.2l1.3,2.2c0.1,0.1,0,0.1,0.1,0.1l0,0v0.1l0.1,0.2l0.1,0.3l0.3,0.6l0.3,0.6l0.2,0.6l0.4,1.3
			c0.1,0.4,0.2,0.9,0.3,1.3c0.2,0.9,0.4,1.7,0.6,2.6c0.6,3.5,0.9,6.9,1.2,10.3l0.7,10.2c0.2,3.4,0.5,6.7,1,10.1
			c0.4,3.3,1,6.6,1.8,9.9c0.8,3.3,1.8,6.4,3.1,9.5c1.3,3,3,5.9,5,8.5c0.5,0.7,1,1.3,1.6,1.9c0.6,0.6,1.1,1.2,1.7,1.8
			c0.6,0.6,1.2,1.1,1.8,1.7l2,1.5c2.7,1.9,5.6,3.6,8.7,4.8c3.1,1.3,6.3,2.1,9.7,2.9c3.2,0.8,6.6,1,10,0.8c3.3-0.3,6.7-1.1,9.5-2.9
			C361.7,184,363.8,181.2,365,178z"/>
	</g>
	<path class="st5" d="M300.3,92.7c0,0,16.2-3.9,16.4,19.7c0.2,23.6,4.8,48.8,24.3,39.7c14.3-6.7,14.3-18.2,14.3-18.2
		s-13,11.6-21.7,8.2C316.8,135.3,332.3,71.3,300.3,92.7z"/>
	<path class="st6" d="M313,153.9c0,0,11.2,14,25,21.5c9,4.9,19.6,5.9,27,2.5C365,178,331.7,196.5,313,153.9z"/>
	<path class="st7" d="M423.9,115.3"/>
	<path class="st5" d="M175.7,104.7l4.7-16.3l-13.3,18.3c-0.5-25.3,31.3-33.3,31.3-33.3c-26.7-2-36.8,21.4-40.4,33
		c-8.6,27.4-34.9,45.7-34.9,45.7c10.6,1.4,21.1-3.7,26-10l18.7-24c-1,14.8-16,34-16,34c11.3,0.7,28-14.7,36-42s42-42,42-42
		S188.3,86.9,175.7,104.7z"/>
	<path class="st2" d="M144.3,387.3l55.3-20l13.3-27.8c0,0-103,37.8-96.8,43.2c6.1,5.3,70.8,68.7,70.8,68.7s-6,24.6,2.7,25
		c8.7,0.3,14-27.7,14-27.7L144.3,387.3z"/>
	<path class="st2" d="M273,358l21.3,49.9L339,334c0,0,41.7-3.3,39.2,0s-33.8,13.3-33.8,13.3s-41.3,90.7-49.3,89.5s-38-64.6-38-64.6
		L273,358z"/>
	<polygon class="st2" points="216.3,616.7 221,630.7 216.3,646 227.7,656 238.2,656 249,648 238.2,630 249,608.7 	"/>
	<path class="st8" d="M321.7,204.7c0,0,7-5.2,11-4s6.3,10.5,6.3,17.3s-2.3,12.5-4.3,12.4s-5-9.6-10.5-6.6"/>
	<path class="st3" d="M324.4,222.2c0,0,3.3-3.3,3.4-3.9c0.1-0.6-3.3-4.6,0-4.6s5.3,3,4.8,4.6C332.2,220,324.4,222.2,324.4,222.2z"/>
	<circle class="st9" cx="324.7" cy="233.1" r="6"/>
	<path class="st10" d="M429.9,301.2c-16.8-7.2-56.7,9-64.9,10.7s-22.6,3.2-28.1,3.1c-26.2-0.7-11.8,13.9-4.2,18.6s87.9,1.8,99.4-3.5
		C443.7,324.7,446.7,308.4,429.9,301.2z M346.3,328c-3.1,0-5.7-1.8-5.7-4.1c0-2.2,2.5-4.1,5.7-4.1c3.1,0,5.7,1.8,5.7,4.1
		S349.5,328,346.3,328z"/>
	<g>
		<g>
			<path class="st11" d="M412.4,305.6c-2-0.4-4-0.3-5.7,0.9c-1.6,1.2-2.5,3.3-1.9,5.2c0.6,2,2.3,3.2,4.2,3.8
				c0.9,0.3,1.9,0.4,2.8,0.9c0.8,0.5,1.4,1.2,2.2,1.6c3.7,2,6.8-1.3,7.5-4.7c0.9-4.7-5.5-6.5-9-7.4c-1.9-0.5-3.5,1.2-3.1,3.1
				c0.3,1.1,0.9,1.9,1.8,2.6c0.4,0.3,2,1.1,2,1.2c0.8-1.1,1.6-2.1,2.4-3.2c-1.4-0.2-2.7-0.6-4-1.1c-2.9-1.3-5.4,3-2.5,4.3
				c2.1,1,4.2,1.5,6.5,1.8c1.7,0.2,2.7-1.8,2.4-3.2c-0.3-1.1-0.9-1.9-1.8-2.6c-0.3-0.3-2-1.1-2-1.2c-1,1-2.1,2.1-3.1,3.1
				c1.8,0.4,3.4,1.4,5.1,1.9c0.7,0.6,0.8,0.6,0.5,0c-0.1-0.6-0.2-0.5-0.3,0.2c-0.1,0.3-0.2,0.6-0.5,0.9c0.1-0.2,0-0.4-0.2-0.5
				c-1.3-0.6-2.1-1.6-3.5-2.1c-0.9-0.3-4-1.3-1.1-0.7C414.3,311,415.6,306.2,412.4,305.6L412.4,305.6z"/>
		</g>
	</g>
	<g>
		<g>
			<path class="st12" d="M428,314.3c-0.6,2.2-2.5,3.7-3.7,5.6c-1.2,1.8-2.2,4.5-1.7,6.7c1.3,6.2,8.5,1.5,11-0.9
				c1.7-1.7,2.9-3.7,3.2-6.1c0.3-2.1-0.1-5.2-2-6.5c-1.9-1.4-3.9,0-4.8,1.9c-1.3,2.7-2.5,5.1-4.7,7.2c-2.3,2.3,1.3,5.8,3.5,3.5
				c1.3-1.3,2.5-2.7,3.4-4.2c0.4-0.7,0.8-1.4,1.2-2.1c0.3-0.7,0.6-2,1.1-2.5c-0.6,0.2-1.2,0.5-1.8,0.7c0.1,0,0.3,0,0.4,0
				c-0.6-0.2-1.2-0.5-1.8-0.7c1.6,1.7-0.5,4.5-1.7,5.6c-0.6,0.5-1.2,1-1.8,1.4c-0.4,0.3-0.8,0.5-1.2,0.8c0.6,1,0.9,1,0.9-0.1
				c0.5-0.7,0.8-1.9,1.4-2.6c0.4-0.6,0.9-1.1,1.3-1.6c1.1-1.4,2-2.8,2.5-4.6C433.7,312.5,428.9,311.2,428,314.3L428,314.3z"/>
		</g>
	</g>
	<g>
		<g>
			<path class="st13" d="M414.5,323.2c-0.8,0.2-1.8-0.2-2.6-0.1c-1,0.1-2,0.5-2.7,1.2c-1.8,1.8-1.2,4.7,1.1,5.8
				c3.9,1.7,9.3-2.2,7.7-6.5c-0.5-1.3-1.7-2.1-3.1-1.7c-1.5,0.4-3.1,0.8-4.6,1.1c-3.1,0.8-1.8,5.6,1.3,4.8c1.5-0.4,3.1-0.8,4.6-1.1
				c-1-0.6-2.1-1.2-3.1-1.7c0.1,0.4,0.1,0.3,0.1,0c0,0.2-0.2,0.3-0.3,0.3c-0.3,0.1-0.4,0.2-0.8,0.2c0.3,0,0.3,0,0,0
				c0.2,0,0.3,0,0.1,0c-0.3-0.1-0.2,0,0.4,0.3c0.6,0.9,0.6,1.7-0.1,2.2c-0.2,0.1-0.2,0.1,0.1,0c-0.3,0.1-0.2,0.1,0.2,0.1
				c1,0.2,2.1,0.2,3-0.1C418.9,327.1,417.6,322.3,414.5,323.2L414.5,323.2z"/>
		</g>
	</g>
	<g>
		<g>
			<path class="st14" d="M399.7,321.6c-2.4,0-5.9-0.6-7.8,1.2c-1.8,1.8-1.6,4.8,0.2,6.5c2,1.8,4.8,1.6,7,0.3
				c1.2-0.7,2.4-1.6,2.9-2.9c0.4-1.3,0.2-2.9-0.9-3.8c-1-0.9-2.5-1-3.5,0c-0.9,0.9-1,2.7,0,3.5c0.3-1.3,0.2-1.8-0.3-1.5
				c-0.2,0.1-0.4,0.2-0.6,0.4c-0.3,0.2-0.5,0.3-0.8,0.4c0,0-0.4,0-0.3-0.1c0,0,0.3,0.3,0.2,0.3c0.1-0.1-0.5,1.1-0.6,0.7
				c0,0,1.2,0,1.4,0c1.1,0,2.2,0,3.3,0C402.9,326.6,402.9,321.6,399.7,321.6L399.7,321.6z"/>
		</g>
	</g>
	<g>
		<g>
			<path class="st15" d="M392.8,314c-2.7-1.4-5.6-2.4-8.6-2.9c-2.8-0.4-4.5,1.3-5.4,3.9c-0.8,2.4,0.1,5.5,2.8,6.1
				c2.7,0.6,5.9-1.2,8.2-2.5c2.8-1.6,0.3-5.9-2.5-4.3c-1,0.6-2.1,1.1-3.2,1.5c-0.3,0.1-0.6,0.2-1,0.3c-0.5,0.1-0.4,0.2,0.4,0.4
				c0.1-0.2,0.1-0.3,0.2-0.5c0.4-0.6,0.4-0.7,0-0.3c-0.9,0.1,1.2,0.5,1.1,0.5c0.6,0.1,1.1,0.3,1.7,0.5c1.3,0.4,2.5,0.9,3.6,1.5
				C393.1,319.8,395.6,315.5,392.8,314L392.8,314z"/>
		</g>
	</g>
	<path class="st16" d="M375.7,339.9c0,0,8.3-2.7,10,3.1s6.6,6.2,6.6,6.2s-7,5.6-10.8,2.3C377.7,348.1,375.7,339.9,375.7,339.9z"/>
	<path class="st17" d="M337.7,308.8c0.2-3.8,41.2,30.2,41.2,30.2l-3.5,3.1C375.4,342.1,337.6,311.9,337.7,308.8z"/>
	<path class="st2" d="M341.7,324.9c0,0,2.1-18.5,6.9-16.1c4.8,2.5,2.8,13.2,2.8,13.2s4.3-0.5,1.7,2.9
		C350.4,328.4,344.3,329.9,341.7,324.9z"/>
	<path class="st18" d="M109.4,185.1c0,0-20,22.5-3.3,41.2C106,226.4,77.4,210.3,109.4,185.1z"/>
	<path class="st5" d="M86.3,256c0,0-28.6,17.3-13.6,33.8C72.7,289.8,65.3,276.7,86.3,256z"/>
	<path class="st5" d="M106,226.4c0,0,29.3,19.9,17,23.5c-12.3,3.5-25.6,6.2-25.6,6.2s18.4-6.3,18.6-12.1
		C116,238,106,226.4,106,226.4z"/>
	<path class="st18" d="M353.9,249.8c0,0,27.3,17.5,24.4,28.9c-2.9,11.3-26.3,6.7-26.3,14s6.3,6.7,6.3,6.7s-8,12-30.5,12.6
		c0,0,15.3-5.9,19.7-12.6s-4.9-16-1.2-16c3.7,0,25,2.7,25-6C371.4,268.7,367,258.3,353.9,249.8z"/>
	<path class="st18" d="M128.9,280.9c0,0-27.9,17.2-12.7,18.5s34,5.7,23.3,8.5c-10.8,2.8-20.1,8.3-20.1,8.3l7.8-8.3
		c0,0-29.1,2.2-18.1-11.2S128.9,280.9,128.9,280.9z"/>
	<path class="st18" d="M109.4,137.6c0,0,34.1,8.5,33.2-15.8c-1.6-42.9,35.8-45.6,8.7-36c0,0-14.7,11.4-15.4,24.3
		C135,126.4,138.1,138.7,109.4,137.6z"/>
</g>
<g id="Layer_8">
	<polyline class="st19" points="232.7,612.7 232.7,634.8 237.2,648.3 	"/>
	<polygon class="st20" points="182.2,351.7 210.5,339.6 231,366 252.7,342.4 272.7,342.4 278,361.7 263.7,375.3 249.7,433 
		210,428.6 196,366.7 189.6,370.3 	"/>
	<polygon class="st20" points="227.4,364.2 232.8,366 231,429.8 227,431 	"/>
	<polygon class="st20" points="207.5,336 222.9,331.4 228.8,361.7 	"/>
	<polygon class="st20" points="231,366 246.8,329.7 263.3,342.4 	"/>
	<polygon class="st20" points="174.3,352 187.3,348 190,374 182.2,375.3 	"/>
	<line class="st21" x1="257.7" y1="368.3" x2="261.1" y2="386"/>
	<polygon class="st20" points="257.7,375.3 265.3,386 283.3,371 278,361.7 	"/>
	<path class="st22" d="M207.5,424.3l42.2,8.7c0,0,15.7,12.3,20.8,30.3c5.2,18-0.4,56.5-11.1,72.5c0,0-2.8-0.5,0,7s5.1,13.5,4,22
		c-1.2,8.5-18.7,52.5-18.7,52.5l-26.5,4.8c0,0-17.5-43.8-17.5-63.3s4.5-17.5,4.5-23.2s-17.8-52.4-18-67.5
		C187,451.3,207.5,424.3,207.5,424.3z"/>
	<path class="st22" d="M231,429.8c0,0,2,24.5-0.9,28.5s-7.5,0-7.5,0"/>
	<line class="st23" x1="230.1" y1="476.3" x2="232.7" y2="617.3"/>
	<path class="st22" d="M237.2,648.3c0,0,10.5,7.5,14,0c0,0,7,9,0,12C244.2,663.3,237.2,666.8,237.2,648.3z"/>
	<path class="st22" d="M221,630.7c0,0-13.3,16.9,6.1,25.2c7.9,3.3,8.5,0,8.5,0s-3.9,7.5-5.9,9.5s-9.1-0.5-12.6-4.5
		C213.7,656.8,211.5,644.2,221,630.7z"/>
</g>
<g id="eyes">
	<path class="st7" d="M240.2,192.7c0,0,12.3,16.2,33.2,14.9c20.8-1.3,27.1-17.7,27.1-17.7l-7.7-0.7l-16.5-9.6l-16.6,1.4L240.2,192.7
		z"/>
	<path class="st7" d="M141,177.3h18.1l20.6-11l19,16c0,0-7.2,14.4-28.2,14.3C155.3,196.7,141,177.3,141,177.3z"/>
</g>
<g id="face">
	<circle class="st24" cx="173.7" cy="179.7" r="9.6"/>
	<circle class="st24" cx="271.9" cy="192.7" r="9.6"/>
	<g>
		<path d="M309.3,187c-2.7,1.1-5.4,2.2-8.3,2.8c-1.4,0.3-2.9,0.6-4.5,0.5c-1.5-0.1-3.1-0.5-4.4-1c-2.8-1-5.4-2.2-8.1-3.1
			c-2.7-0.9-5.4-1.8-8.2-2.5l-1-0.2l-0.9-0.1c-0.6-0.1-1.3-0.1-2,0c-1.4,0-2.7,0.2-4.1,0.5c-2.8,0.5-5.5,1.3-8.2,2.1
			c-2.7,0.9-5.4,1.9-8.1,2.9c-1.3,0.5-2.7,1.1-4,1.7c-1.3,0.6-2.6,1.2-3.9,1.8l-8.7,4.2l6.8-6.9c1.1-1.1,2.1-2.1,3.2-3.1
			s2.2-2,3.3-3c2.3-1.9,4.6-3.8,7-5.6c2.4-1.8,5-3.4,7.7-4.8c2.7-1.4,5.6-2.6,8.8-3.2c1.6-0.3,3.3-0.3,5,0c0.4,0.1,0.9,0.2,1.3,0.3
			l1.1,0.4c0.7,0.2,1.4,0.5,2.1,0.8c1.4,0.6,2.8,1.2,4.2,1.9s2.7,1.5,4,2.4c2.5,1.8,4.8,4,6.7,6.3c0.5,0.6,1,1.2,1.4,1.8l1.3,1.8
			c0.8,1.2,1.6,2.4,2.4,3.7l0.4,0.6l-0.1,0.4c-0.2,0.9-0.5,1.5-0.8,2.3c-0.3,0.7-0.6,1.4-1,2.1c-0.7,1.3-1.6,2.6-2.6,3.7
			c-0.5,0.6-1,1.1-1.6,1.6c-0.5,0.5-1.1,1-1.7,1.5c-0.6,0.5-1.2,0.9-1.8,1.3c-0.6,0.4-1.3,0.8-1.9,1.1c-0.7,0.4-1.3,0.7-2,1
			s-1.4,0.6-2.1,0.8c-1.4,0.5-2.8,0.9-4.2,1.2c-0.7,0.2-1.4,0.3-2.2,0.4c-0.7,0.1-1.4,0.2-2.2,0.3l-2.2,0.2L273,208l2.1-0.3l2.1-0.4
			l2.1-0.5c0.7-0.2,1.4-0.3,2.1-0.6c1.4-0.4,2.7-0.9,4-1.5c0.6-0.3,1.3-0.6,1.9-0.9c0.6-0.3,1.2-0.7,1.8-1.1
			c0.6-0.4,1.2-0.8,1.7-1.2c0.6-0.4,1.1-0.9,1.6-1.3c0.5-0.5,1-1,1.5-1.5s0.9-1,1.3-1.6c0.8-1.1,1.6-2.3,2.2-3.5
			c0.3-0.6,0.6-1.2,0.8-1.9c0.2-0.6,0.4-1.3,0.5-1.9l0.3,1c-1.1-1-2.1-2.1-3.1-3.2l-1.5-1.6c-0.5-0.5-0.9-1.1-1.4-1.6
			c-0.9-1.1-1.9-2.1-2.9-3s-2.1-1.8-3.2-2.6c-1.1-0.8-2.3-1.5-3.5-2.1c-1.2-0.7-2.5-1.2-3.8-1.7c-0.6-0.2-1.3-0.5-2-0.7l-1-0.3
			c-0.3-0.1-0.6-0.2-0.8-0.2c-1.2-0.2-2.4-0.2-3.7,0c-2.6,0.4-5.2,1.5-7.7,2.7c-2.5,1.3-4.9,2.8-7.3,4.4c-2.3,1.6-4.6,3.4-6.8,5.3
			c-1.1,0.9-2.2,1.9-3.3,2.9c-1.1,1-2.1,2-3.1,3l-2-2.8c1.4-0.6,2.7-1.2,4-1.8c1.4-0.6,2.7-1.1,4.1-1.7c2.7-1.1,5.5-2,8.3-2.9
			c2.8-0.9,5.7-1.6,8.7-2.1c1.5-0.2,3-0.4,4.5-0.5c0.8,0,1.6,0,2.4,0.1c0.4,0,0.9,0.1,1.3,0.2l0.5,0.1l0.3,0.1h0.1h0.1h0.1
			c2.8,0.9,5.6,1.9,8.3,3.1c1.4,0.6,2.7,1.2,4,1.8l3.9,1.9c1.3,0.6,2.6,1.1,3.9,1.3s2.7,0.1,4.2,0
			C303.7,188.5,306.5,187.7,309.3,187z"/>
	</g>
	<g>
		<path d="M170.5,196.7c-0.8,0-1.5,0.1-2.3,0c-0.4,0-0.8-0.1-1.1-0.1c-0.4,0-0.8-0.1-1.1-0.2c-0.8-0.1-1.5-0.3-2.2-0.5
			s-1.5-0.5-2.2-0.8c-2.9-1.1-5.5-2.7-8.1-4.5c-2.5-1.8-4.9-3.7-7.1-5.8c-1.1-1.1-2.2-2.1-3.3-3.2c-0.5-0.6-1.1-1.1-1.6-1.7
			c-0.5-0.6-1-1.1-1.5-1.8l-2.9-3.5l4.5,1.4c2.2,0.7,4.8-0.1,7.3-1.2c2.5-1.1,4.9-2.6,7.3-4.1c2.4-1.5,4.8-3.1,7.3-4.6
			s5.1-3,7.9-4.1c1.4-0.5,3-1,4.6-1.2s3.4-0.1,5,0.3c0.4,0.1,0.8,0.2,1.2,0.4l0.3,0.1l0.3,0.1l0.5,0.2c0.3,0.1,0.8,0.4,1.1,0.5
			l1,0.6c1.4,0.8,2.6,1.8,3.7,2.9c2.3,2.1,4.1,4.4,5.8,6.9c0.8,1.2,1.6,2.5,2.4,3.8c0.7,1.3,1.4,2.6,2.1,4l-3.5,1.5
			c-0.9-2.2-2.1-4.2-3.8-5.6c-1.7-1.5-3.8-2.4-6.2-2.7c-2.3-0.4-4.8-0.4-7.3-0.1c-2.5,0.2-5,0.7-7.5,1.3c-5,1.1-10,2.6-15.1,3.8
			c-2.5,0.6-5.1,1.1-7.8,1.2c-1.3,0-2.7,0-4-0.4c-1.3-0.3-2.5-1-3.3-2c0.9,0.9,2.2,1.4,3.4,1.6c1.3,0.2,2.5,0.1,3.8,0
			c2.5-0.3,5-1,7.5-1.8s4.9-1.6,7.4-2.5c2.5-0.8,4.9-1.6,7.5-2.4c2.5-0.7,5.1-1.3,7.8-1.7s5.4-0.6,8.2-0.2c2.8,0.4,5.6,1.4,7.9,3.3
			c2.3,1.9,3.9,4.4,5,7l-3.5,1.5c-0.6-1.2-1.3-2.4-2-3.6c-0.7-1.2-1.5-2.4-2.3-3.5c-1.6-2.3-3.3-4.4-5.3-6.2c-1-0.9-2-1.7-3.1-2.4
			l-0.8-0.5c-0.3-0.1-0.5-0.3-0.8-0.4l-0.5-0.2l-0.1-0.1h-0.1c0,0,0.1,0,0,0l0,0l0,0l-0.2-0.1c-0.3-0.1-0.6-0.2-0.9-0.3
			c-1.2-0.3-2.3-0.4-3.5-0.2s-2.5,0.5-3.7,1c-2.5,0.9-5,2.3-7.4,3.7c-2.5,1.4-4.9,2.9-7.4,4.4s-5.1,2.9-7.9,4
			c-1.4,0.6-2.9,1-4.5,1.3c-1.6,0.2-3.3,0.2-5-0.4l1.5-2.1c0.4,0.6,0.9,1.2,1.4,1.7c0.5,0.6,0.9,1.2,1.4,1.7c1,1.1,2,2.2,3,3.3
			c2.1,2.2,4.2,4.2,6.5,6.1c2.3,1.9,4.8,3.6,7.4,4.9c0.7,0.3,1.4,0.6,2,0.9c0.7,0.3,1.4,0.5,2.1,0.7c0.4,0.1,0.7,0.2,1.1,0.3
			c0.4,0.1,0.7,0.2,1.1,0.2C168.9,196.6,169.7,196.6,170.5,196.7z"/>
	</g>
	<polygon points="143.7,179.7 152.3,178.7 167.2,174.5 182,171.7 194.5,175.7 188.5,168.1 177.7,162.7 170.5,164.5 156,172.8 	"/>
	<path class="st25" d="M143.7,179.7"/>
	<path class="st25" d="M199,184.7"/>
	<polygon points="246.8,189.3 268.4,181.8 283,184.5 291.5,187.8 300.4,189.9 292.9,181 281.5,174.6 273.6,171.2 262.3,174.6 	"/>
	<path d="M297.8,185.1c0,0,6.5,2.8,11.5,1.5c0,0-1.6,2.9-11.5,2.4"/>
	<circle class="st7" cx="165.1" cy="188.7" r="4"/>
	<circle class="st7" cx="262.1" cy="200.7" r="4"/>
	<circle class="st7" cx="169.3" cy="184.7" r="2.3"/>
	<circle class="st7" cx="266.3" cy="196.7" r="2.3"/>
	<g>
		<path class="st26" d="M220.3,196.7c0,0-0.1,1-0.3,2.7c-0.2,1.7-0.6,4.1-1.4,7c-0.4,1.4-0.8,3-1.4,4.6s-1.3,3.3-2.3,5
			c-0.5,0.9-1.1,1.7-1.9,2.5c-0.8,0.8-1.9,1.7-3.6,1.9c-1.7,0.2-3.5,0.5-5.2,1s-3.4,1.1-4.9,1.9c-1.4,0.8-2.6,1.8-2.8,2.7
			c-0.1,0.4-0.1,0.9,0.1,1.5l0.2,0.4l0.3,0.4v0.1l0,0l0,0c0,0,0,0.1,0,0l0.1,0.1l0.2,0.2l0.4,0.5c0.3,0.4,0.5,0.6,0.7,0.9
			c0.2,0.3,0.5,0.5,0.7,0.8c0.5,0.5,1,1,1.6,1.4c1.1,0.8,2.2,1.5,3.2,2s1.9,0.9,2.7,1.2c1.6,0.6,2.5,0.8,2.5,0.8s-0.2,0-0.7,0.1
			c-0.5,0-1.1,0-2,0c-1.7-0.1-4.2-0.6-7-2.1c-0.7-0.4-1.4-0.8-2-1.3c-0.4-0.2-0.7-0.5-1-0.8s-0.7-0.6-1-0.9l-0.4-0.4l-0.2-0.2
			l-0.1-0.1l-0.2-0.2c-0.2-0.2-0.3-0.4-0.5-0.6l-0.4-0.7c-0.6-1-0.9-2.3-0.7-3.7s1-2.5,1.7-3.3c0.8-0.9,1.7-1.5,2.6-2.1
			c1.8-1.1,3.8-1.8,5.8-2.4c2-0.5,4-0.9,6.1-1c0.2,0,0.8-0.2,1.3-0.7s1-1.1,1.5-1.8c0.9-1.3,1.8-2.8,2.5-4.3c0.7-1.4,1.4-2.8,2-4.1
			c1.2-2.6,2.1-4.8,2.8-6.4C220,197.6,220.3,196.7,220.3,196.7z"/>
	</g>
	<path class="st7" d="M187.3,255l83-13c0,0,1.3,42-38,48C197.7,295.3,187.3,255,187.3,255z"/>
	<circle class="st27" cx="161.8" cy="227.1" r="9.1"/>
	<circle class="st27" cx="291" cy="229.8" r="9.5"/>
</g>
<rect x="283.3" y="97.3" class="st28" width="1006.1" height="679"/>
<text transform="matrix(1 0 0 1 569.2339 203.3388)"><tspan x="0" y="0" class="st29 st30">the </tspan><tspan x="142" y="0" class="st29 st31">Joy</tspan><tspan x="330.6" y="0" class="st29 st30"> of </tspan><tspan x="-100.2" y="192" class="st29 st31">Optimizing </tspan><tspan x="44.5" y="384" class="st29 st31">Images</tspan></text>
</svg>
