<?xml version="1.0" encoding="utf-8"?>
<!-- Generator: Adobe Illustrator 19.2.1, SVG Export Plug-In . SVG Version: 6.00 Build 0)  -->
<svg version="1.1" id="Layer_1" xmlns="http://www.w3.org/2000/svg" xmlns:xlink="http://www.w3.org/1999/xlink" x="0px" y="0px"
	 viewBox="0 0 1450.3 844.2" style="enable-background:new 0 0 1450.3 844.2;" xml:space="preserve">
<style type="text/css">
	.st0{fill:#FDD4FF;}
	.st1{fill:#B76C90;}
	.st2{fill:#9E005D;}
</style>
<g>
	<path class="st0" d="M188.1,356c-10.3,10.8-24.9,16.2-38.9,21.2C110.5,391.1,71.7,405,33,418.9c31.8,30.8,69.7,55.3,110.8,71.7
		c9.7,3.9,20.3,7.9,26,16.7c8.4,13.2,2,30.5-4.5,44.7C139.5,608.4,113.7,664.7,88,721c40.3-12.3,80.7-24.6,121-36.9
		c38.8-11.8,92.3-17.7,109.2,19.2c10.2,22.1,3.4,55,25.2,65.8c44.8-31.6,89.7-63.3,134.5-94.9c5.3-3.7,11-7.6,17.5-7.8
		c7.9-0.3,14.8,4.9,20.8,10.1c25.9,22.3,48,49,65.2,78.6c4.4,7.6,10.3,16.5,19.1,16.3c5.9-0.1,10.8-4.5,15.1-8.6
		c22.7-21.9,45.4-43.8,68.2-65.6c4.7-4.5,9.7-9.2,16.1-10.5c7.5-1.6,15.1,1.8,21.6,5.8c36.1,22.2,68.3,66.7,109,55.1
		c13.6-3.9,24.5-13.8,34.9-23.4c37.4-34.6,74.9-69.2,112.3-103.8c30.6,42.8,61.2,85.6,91.9,128.4c13.4-31.6,7.1-138.5,64.7-151.4
		c57.6-12.9,179.1,68.1,190.9,58.4c-21.1-52.1-42.2-104.3-63.3-156.4c-3.9-9.7-7.8-20.8-3.2-30.2c4-8.3,13.4-12.4,22-15.8
		c24.4-9.7,48.9-19.4,73.3-29c-30.6-25.2-61.1-50.4-91.7-75.6c-5.6-4.6-11.6-9.8-13-16.9c-1.6-7.5,2.4-15,6.2-21.7
		c17.7-31.2,35.4-62.5,53.1-93.7c6.1-10.7,11-26.6,0.6-33.2c-4.8-3.1-11.1-2.4-16.8-1.5c-62.4,9-124.8,18.1-187.2,27.1
		c-7.3,1.1-15.3,2-21.8-1.7c-8.8-5.1-11-16.6-12.4-26.7c-3.3-25.1-6.6-50.2-9.9-75.4c-0.8-5.7-1.9-12.1-6.8-15.2
		c-6.9-4.4-15.7,0.8-22.1,5.8c-44.4,34.9-87.8,71-130.3,108.2c-17.4,0.3-23.6-22.5-25.4-39.8s-12.3-39.8-29.1-35.1
		c-4.7,1.3-8.5,4.7-12,8c-39.1,35.7-78.2,71.5-117.2,107.2c-15-46.3-29.9-92.5-44.9-138.8c-39.7,36.4-79.3,72.9-119,109.3
		c-5.3,4.8-11.4,10-18.6,9.5c-7.5-0.6-12.9-7.1-17.3-13.3c-20.2-28.7-36.6-60.2-48.6-93.2c-39.5,51.2-75.3,105.3-107,161.6
		c-54.9-41.4-109.9-82.8-164.8-124.2c0.3,56.8,0.6,113.6,0.9,170.4L188.1,356z"/>
	<g>
		<path class="st1" d="M180.7,348.6c-8.1,8.2-18.6,12.8-29.2,16.7c-13.2,4.9-26.4,9.5-39.6,14.2c-27.2,9.7-54.4,19.5-81.5,29.2
			c-7.2,2.6-10.7,11.7-4.6,17.5C43,443,62.1,458.1,82.5,471c20,12.7,41.1,22.3,62.8,31.5c9,3.8,18,8.6,18,19.5
			c0,11.2-5.8,22-10.3,31.9c-11.6,25.4-23.2,50.8-34.8,76.1C105,658.6,92,687.1,78.9,715.7c-3.6,7.8,2.4,18.3,11.9,15.4
			c26.9-8.2,53.8-16.4,80.7-24.6c22.1-6.8,44.2-14.8,67.1-18.8c16.4-2.9,34.9-4.1,50.7,2c15.9,6.2,21.6,19.9,24.3,35.7
			c3.4,19.6,4.9,42.2,24.7,52.7c3.1,1.7,7.5,2.2,10.6,0c24.9-17.6,49.8-35.2,74.7-52.7c12.1-8.5,24.2-17.1,36.3-25.6
			c6-4.3,12.1-8.5,18.1-12.8c4.7-3.3,10.8-9.2,16.8-10c5.4-0.7,10.3,3.6,14.1,6.9c5.2,4.4,10.2,9.1,15.1,13.9
			c9.2,9.1,17.8,18.7,25.8,28.9c7.9,10.1,15,20.7,21.5,31.7c5.7,9.6,12.3,20.2,24,22.9c14.1,3.3,24.4-7.7,33.5-16.6
			c10.7-10.3,21.5-20.7,32.2-31c10.9-10.5,21.6-21.2,32.7-31.4c4.4-4.1,8.5-6.7,14.6-4.8c5.7,1.8,10.9,5.7,15.7,9.1
			c32.6,22.9,68.4,66.5,113.3,49.6c13.5-5.1,24.3-14.4,34.8-24c12.5-11.6,25.1-23.2,37.6-34.7c25.2-23.3,50.4-46.5,75.5-69.8
			c-5.5-0.7-11-1.4-16.5-2.1c30.6,42.8,61.2,85.6,91.9,128.4c5.6,7.8,15.7,6,19.2-2.5c3.8-9.1,5.2-19.2,6.7-28.9
			c2.1-13.2,3.8-26.5,6.2-39.6c4.3-23.6,10.1-52.8,29.2-68.3c8-6.5,17.7-8.4,28.3-8.2c12.6,0.3,25,3.3,37.4,7.1
			c28.4,8.6,55.4,21.3,82.3,33.8c11.9,5.5,23.8,11.2,36,15.8c7,2.6,17.8,6.7,24.6,1.6c3.4-2.5,6.7-7.3,4.8-11.9
			c-19.3-47.7-38.6-95.3-57.8-143c-3.8-9.3-11.4-22-10.3-32.4c0.9-8.6,10.7-11.8,17.5-14.6c24-9.5,48-19,72.1-28.6
			c6.5-2.6,11.4-12,4.6-17.5c-23.8-19.6-47.6-39.2-71.3-58.8c-6.1-5-12.2-10.1-18.3-15.1c-3.9-3.2-10-7.1-11.9-12.1
			c-1.9-5.2,2.2-11.1,4.6-15.5c4-7.3,8.2-14.5,12.3-21.7c7.6-13.3,15.1-26.7,22.7-40c7-12.3,15-24.5,20.9-37.5
			c4.5-10,7.8-22.1,2.8-32.6c-6.2-12.7-19.9-14-32.4-12.3c-61.1,8.5-122.1,17.7-183.1,26.5c-9.9,1.4-20.3,3.9-23.9-7.7
			c-4.1-13-4.5-27.6-6.2-41c-2-15.2-4-30.4-6-45.6c-1.6-12-6.9-24.5-20.7-25.8c-15.3-1.4-28,11.9-39,20.7
			c-13.1,10.4-26,20.9-38.9,31.4c-26.4,21.7-52.5,43.9-78.3,66.4c2.5-1,4.9-2.1,7.4-3.1c-11.3-0.3-13.7-20.4-14.8-28.5
			c-2.1-15.7-6.8-32.8-20.6-42.4c-6.4-4.4-14.4-5.6-21.9-3.6c-10.1,2.7-17.9,11.8-25.3,18.6c-17,15.5-34,31-50.9,46.6
			c-19.2,17.6-38.4,35.1-57.7,52.7c5.8,1.5,11.7,3.1,17.5,4.6c-15-46.3-29.9-92.5-44.9-138.8c-2.5-7.7-11.6-10.1-17.5-4.6
			c-39,35.8-78,71.7-117.1,107.5c-2.8,2.6-7.1,7.7-11.1,8.2c-3.5,0.4-6.3-3.2-8.3-5.6c-7-8.6-12.7-18.5-18.4-28
			c-12.3-20.7-22.7-42.5-31-65.2c-3.3-9.1-13.6-9.7-19.2-2.5c-39.5,51.3-75.2,105.3-107,161.6c4.8-1.3,9.6-2.5,14.4-3.8
			c-54.9-41.4-109.9-82.8-164.8-124.2c-6.6-4.9-15.8,1.8-15.8,9.1c0.2,44.6,0.5,89.1,0.7,133.7c0.1,10.9,0.5,21.9,0.2,32.8
			c-0.1,2.4-1.1,5.3-2.1,8.4c-2.7,7.8-5.4,15.7-8.1,23.5c-4.4,12.8,15.8,18.3,20.2,5.6c2.7-7.8,5.4-15.7,8.1-23.5
			c4.9-14.1,2.8-29.4,2.7-44.1c-0.2-45.4-0.5-90.9-0.7-136.3c-5.3,3-10.5,6-15.8,9.1c54.9,41.4,109.9,82.8,164.8,124.2
			c4.5,3.4,11.8,0.7,14.4-3.8c31.8-56.3,67.6-110.4,107-161.6c-6.4-0.8-12.8-1.7-19.2-2.5c7.3,19.9,15.9,39.4,26.1,58
			c5.1,9.2,10.5,18.3,16.3,27.1c5.2,7.9,10.3,16.7,17.8,22.7c7.4,6,16.9,8.1,26,4.7c9.6-3.7,17-11.9,24.4-18.7
			c17.3-15.9,34.5-31.7,51.8-47.6c19.5-17.9,39-35.8,58.5-53.8c-5.8-1.5-11.7-3.1-17.5-4.6c15,46.3,29.9,92.5,44.9,138.8
			c2.5,7.7,11.6,10.1,17.5,4.6c30.1-27.5,60.2-55.1,90.3-82.6c7.7-7,15.4-14.1,23.1-21.1c3.5-3.2,9.2-10.5,14.5-8.8
			c4.2,1.4,7.1,7.4,8.7,11c2.8,6.4,3.6,13.1,4.6,20c1.8,12.9,5.6,27.9,15.9,36.9c4.9,4.3,11.1,7.2,17.7,7.4
			c9.3,0.2,17.9-10.9,24.5-16.5c30.4-26.3,61.3-52,92.7-77.2c7.2-5.7,14.2-11.8,21.6-17.2c1.8-1.3,7.2-5.9,9.7-4.8
			c0.3,0.1,1.3,4.3,1.6,5.7c3.8,19.9,5.4,40.4,8,60.4c2,15.3,1.9,34.7,13.4,46.4c13.7,14.1,34.7,7.8,51.7,5.4
			c40.7-5.9,81.5-11.8,122.2-17.7c9.5-1.4,19.1-2.8,28.6-4.1c4.8-0.7,9.5-1.4,14.3-2.1c3.5-0.5,10.4-2.7,13.8-1.1
			c9.1,4.3-9,30.1-11.5,34.3c-11.4,20.2-22.9,40.4-34.3,60.6c-9.6,17-26.3,38.1-13.4,57.7c5.4,8.3,14.2,14.2,21.7,20.4
			c8.8,7.3,17.7,14.6,26.5,21.8c18.3,15.1,36.7,30.2,55,45.3c1.5-5.8,3.1-11.7,4.6-17.5c-20.4,8.1-40.7,16.1-61.1,24.2
			c-15.9,6.3-36.3,11.8-42.4,30c-3.1,9.3-1.1,19.5,2.1,28.4c3.7,10.5,8.3,20.7,12.4,31c8.2,20.4,16.5,40.7,24.7,61.1
			c9.4,23.2,18.8,46.4,28.2,69.6c1.6-4,3.2-7.9,4.8-11.9c-1.4,1,1.8-0.6,1.3-0.5c-1.8,0.5,2.7-0.2,1.1-0.2c-0.9,0-3-0.4,0.4,0.2
			c-0.8-0.1-1.5-0.2-2.3-0.4c-3.8-1-7.5-2.3-11.2-3.7c-4.7-1.8-7.9-3.3-13.5-5.8c-6-2.7-12-5.5-18-8.3
			c-28.1-13.1-56.4-26.4-86.2-35.1c-24.6-7.3-54.8-13.2-77.9,1.7c-23.7,15.3-33.4,44.6-39.1,70.7c-3.3,15.2-5.4,30.7-7.7,46.1
			c-1.7,11.5-3.1,23.7-7.6,34.5c6.4-0.8,12.8-1.7,19.2-2.5c-30.6-42.8-61.2-85.6-91.9-128.4c-4-5.6-11.2-7-16.5-2.1
			c-22.3,20.6-44.5,41.2-66.8,61.8c-11.3,10.4-22.6,20.9-33.9,31.3c-9.4,8.7-18.5,18.4-29.2,25.4c-18.5,12-37.1,7.6-54.6-3.6
			c-18.7-11.9-34.4-27.8-52.7-40.3c-10.4-7.2-22.8-14-35.9-11c-13.1,3-22.8,15.3-32.1,24.2c-11,10.6-22.1,21.3-33.1,31.9
			c-5.4,5.2-10.7,10.3-16.1,15.5c-3.8,3.7-8.6,10.4-13.7,12.3c-7.2,2.7-14.6-15.8-17.4-20.3c-7-11-14.7-21.6-22.9-31.7
			c-8.1-10-16.9-19.6-26.2-28.5c-9.1-8.7-19.4-19.7-32-22.9c-16.3-4.1-29.1,7.1-41.5,15.8c-13.5,9.5-27,19.1-40.6,28.6
			c-27.8,19.6-55.5,39.2-83.3,58.8c3.5,0,7.1,0,10.6,0c-14.6-7.8-13.1-31.3-16-45.2c-3.8-18.3-14-34.4-31.3-42.5
			c-38.7-18-83.8-1.8-121.7,9.7c-31.5,9.6-63,19.2-94.5,28.9c4,5.1,7.9,10.3,11.9,15.4c24.5-53.5,49-107.1,73.5-160.6
			c9.9-21.5,23.4-50.1,3-70.2c-8.6-8.5-20.3-12.1-31.1-16.6c-11.6-4.9-22.9-10.5-33.9-16.7c-24.8-13.9-47.6-31-68.1-50.6
			c-1.5,5.8-3.1,11.7-4.6,17.5c28.8-10.3,57.7-20.7,86.5-31c24.6-8.8,54.2-15.4,73.2-34.6C205,353.8,190.2,339,180.7,348.6z"/>
	</g>
</g>
<g>
	<g>
		<g>
			<path class="st2" d="M323.7,532.2c0-17.7,0-35.3,0-53c0-8.5,0-17,0-25.5c0-7.3-0.9-15.2,0.3-22.5c0.7-3.9,1.5-8.2,5.2-4.1
				c5.2,5.6,9,13,13.3,19.3c9.9,14.7,19.7,29.3,29.6,44c3,4.5,10.1,5.2,13,0c13.5-24.3,27-48.7,40.6-73c6.5-11.7,13-23.4,19.5-35.1
				c5.4-9.6,11.1-19.5,20.7-25.4c-3.7-1.5-7.3-3-11-4.5c13.2,53.6,20,108.5,20.4,163.7c0.1,9.6,15.1,9.7,15,0
				c-0.4-56.5-7.4-112.8-21-167.7c-1.1-4.6-7-7-11-4.5c-10.2,6.3-17.3,15.8-23.3,25.9c-7.1,12-13.6,24.3-20.3,36.5
				c-14.2,25.5-28.3,51-42.5,76.5c4.3,0,8.6,0,13,0c-11.7-17.4-23.4-34.8-35.1-52.2c-4.7-7-9.3-16.3-17.7-19.5
				c-7.2-2.8-14.8,0.1-19,6.4c-3.9,6-4.5,13.4-4.6,20.4c0,10.5,0,20.9,0,31.4c0,20.9,0,41.8,0,62.8
				C308.7,541.9,323.7,541.9,323.7,532.2L323.7,532.2z"/>
		</g>
	</g>
	<g>
		<g>
			<path class="st2" d="M612.5,433.9c10.8-15.1-5.5-35.2-21.8-35.5c-20.1-0.4-33.2,19.3-40.8,35.3c-4.7,9.8-8.3,20.1-10.6,30.8
				c-2,9.1-4.1,19.4-2.1,28.8c1.9,8.9,9.2,15.9,18.7,15c10.4-1,17.4-10,23.5-17.5c16.2-19.8,31.2-40.6,45-62.1
				c-4.7-1.3-9.3-2.5-14-3.8c3,31.7,3.7,63.6,2.1,95.4c-0.5,9.6,14.5,9.6,15,0c1.7-31.8,1-63.7-2.1-95.4c-0.7-7.3-9.8-10.4-14-3.8
				c-9,14.2-18.6,28.1-28.8,41.5c-5.1,6.7-10.3,13.3-15.6,19.8c-2,2.5-9.8,13.7-13.9,10.7c-3.3-2.4-1.5-11.2-1.1-14.3
				c1-7.7,2.8-15.4,5.2-22.8c4.2-13.2,10.6-28.8,21.7-37.7c4.6-3.7,10.8-6.4,16.3-3.1c4,2.4,7.5,7.1,4.4,11.4
				c-2.4,3.3-0.6,8.3,2.7,10.3C606,438.9,610.1,437.2,612.5,433.9L612.5,433.9z"/>
		</g>
	</g>
	<g>
		<g>
			<path class="st2" d="M664.8,400.2c0,31-0.1,62-0.1,93c0,8.1,13.5,10.6,14.7,2c1.4-10.1,1.1-19.9,0.6-30
				c-0.4-8.5-1.2-17.4,0.5-25.8c2.2-11.1,8.9-25.3,21.8-26.4c13.7-1.2,23.5,13.5,26.7,25c5.1,18.1,1.7,37.8,4.9,56.3
				c1.6,9.5,16.1,5.5,14.5-4c-2.9-16.8-0.6-34-3.7-50.8c-2.5-13.8-10-27-21.5-35.2c-10.8-7.7-25.6-8.5-36.8-1.2
				c-10.8,7-17.6,19.3-20.2,31.7c-4,18.7,1.4,37.8-1.2,56.6c4.9,0.7,9.8,1.3,14.7,2c0-31,0.1-62,0.1-93
				C679.8,390.6,664.8,390.6,664.8,400.2L664.8,400.2z"/>
		</g>
	</g>
	<g>
		<g>
			<path class="st2" d="M780,415.7c-4.3,16.1-8.6,33.5-4.3,50.1c3.4,12.9,12.4,24.8,25.1,29.7c26.5,10.3,48.1-16.8,51.8-40.4
				c3-18.8-0.8-38.1,3.6-56.7c2.3-9.4-12.2-13.4-14.5-4c-4.3,17.9-1.5,36.1-3.4,54.3c-1.2,11.5-6.4,24.8-16.8,31.1
				c-11.2,6.8-22.7-0.1-28.5-10.5c-8.4-15.2-2.9-34,1.3-49.6C797,410.3,782.5,406.3,780,415.7L780,415.7z"/>
		</g>
	</g>
	<g>
		<g>
			<path class="st2" d="M944.5,383c-16-0.4-30.1,8.6-39.4,21c-10.6,14.1-13.8,31.8-15.6,48.9c-1.4,13-3.4,33.7,13.7,37.4
				c17.1,3.7,29-15.9,35.2-28.7c8.4-17.6,12.2-37.1,10.6-56.5c-4.9,0.7-9.8,1.3-14.7,2c7,26.6,14,53.1,21,79.7
				c2.5,9.3,16.9,5.4,14.5-4c-7-26.6-14-53.1-21-79.7c-2.1-8-15.5-6.6-14.7,2c1.4,16.7-1.2,33.8-8.5,49c-3.2,6.6-6.9,14-12.5,18.8
				c-5.1,4.4-8.7,3.4-9.4-3.2c-0.8-7.6,0.8-16.1,1.9-23.6c1.2-8,3-16.2,6.3-23.7c5.9-13.1,17.8-24.8,32.9-24.4
				C954.2,398.3,954.2,383.3,944.5,383L944.5,383z"/>
		</g>
	</g>
	<g>
		<g>
			<path class="st2" d="M1032.7,308.2c-1.1,61.4,0.6,122.7,4.9,183.9c0.7,9.6,15.7,9.6,15,0c-4.4-61.2-6-122.6-4.9-183.9
				C1047.9,298.6,1032.9,298.6,1032.7,308.2L1032.7,308.2z"/>
		</g>
	</g>
	<g>
		<g>
			<path class="st2" d="M1116.8,332.2c0,40,0,80,0,120c0,9.7,15,9.7,15,0c0-40,0-80,0-120C1131.8,322.6,1116.8,322.6,1116.8,332.2
				L1116.8,332.2z"/>
		</g>
	</g>
	<g>
		<g>
			<path class="st2" d="M1117.5,510.5c-2.5,7.1,0.9,15,7.1,18.8c3.4,2.1,8.3,0.8,10.3-2.7c1.9-3.5,3.9-7,5.8-10.5
				c1.9-3.4,0.9-8.3-2.7-10.3c-3.5-1.9-8.2-1-10.3,2.7c-1.9,3.5-3.9,7-5.8,10.5c3.4-0.9,6.8-1.8,10.3-2.7c-0.7-0.5-0.6-0.4,0.1,0.2
				c-0.3-0.3-0.5-0.5-0.8-0.8c0.6,0.8,0.7,0.8,0.2,0.1c-0.4-0.8-0.3-0.7,0.1,0.2c-0.1-0.4-0.2-0.7-0.3-1.1c0.1,1.1,0.2,1.2,0.1,0.3
				c0.1-0.9,0-0.8-0.1,0.3c0.1-0.4,0.2-0.7,0.3-1.1c1.3-3.7-1.5-8.4-5.2-9.2C1122.5,504.3,1118.9,506.5,1117.5,510.5L1117.5,510.5z"
				/>
		</g>
	</g>
</g>
</svg>
