<?xml version="1.0" encoding="UTF-8" standalone="no"?>
<svg width="258px" height="44px" viewBox="0 0 258 44" version="1.1" xmlns="http://www.w3.org/2000/svg" xmlns:xlink="http://www.w3.org/1999/xlink" xmlns:sketch="http://www.bohemiancoding.com/sketch/ns">
    <!-- Generator: Sketch 3.3.3 (12081) - http://www.bohemiancoding.com/sketch -->
    <title>Group</title>
    <desc>Created with Sketch.</desc>
    <defs></defs>
    <g id="Page-1" stroke="none" stroke-width="1" fill="none" fill-rule="evenodd" sketch:type="MSPage">
        <g id="Group" sketch:type="MSLayerGroup" transform="translate(2.000000, 3.000000)" stroke="#FFFFFF" stroke-width="5.245" stroke-linecap="round" stroke-linejoin="round">
            <path d="M0.6226,38.3774 L0.6226,5.9954 C0.6226,1.3224 6.2726,-1.0176 9.5766,2.2864 L44.1206,36.8304 C47.4246,40.1344 53.0746,37.7944 53.0746,33.1214 L53.0746,5.9954 C53.0746,1.3224 47.4246,-1.0176 44.1206,2.2864 L26.8486,19.5584" id="Stroke-1" sketch:type="MSShapeGroup"></path>
            <path d="M210.4315,38.3774 L210.4315,5.9954 C210.4315,1.3224 216.0815,-1.0176 219.3855,2.2864 L243.9235,36.8304 C247.2275,40.1344 252.8775,37.7944 252.8775,33.1214 L252.8775,0.1654" id="Stroke-3" sketch:type="MSShapeGroup"></path>
            <path d="M105.5271,33.1216 L105.5271,5.9956 C105.5271,1.3226 111.1771,-1.0174 114.4811,2.2866 L149.0251,36.8306 C152.3291,40.1346 157.9791,37.7946 157.9791,33.1216 L157.9791,5.9956 C157.9791,1.3226 152.3291,-1.0174 149.0251,2.2866 L131.7531,19.5586 L114.4811,36.8306 C111.1771,40.1346 105.5271,37.7946 105.5271,33.1216 L105.5271,33.1216 Z" id="Stroke-5" sketch:type="MSShapeGroup"></path>
            <path d="M79.301,0.7399 L79.301,38.3779" id="Stroke-7" sketch:type="MSShapeGroup"></path>
            <path d="M184.2054,0.1652 L184.2054,38.3772" id="Stroke-9" sketch:type="MSShapeGroup"></path>
        </g>
    </g>
</svg>