<?xml version="1.0" encoding="utf-8"?>
<!-- Generator: Adobe Illustrator 19.2.1, SVG Export Plug-In . SVG Version: 6.00 Build 0)  -->
<svg version="1.1" id="Layer_1" xmlns="http://www.w3.org/2000/svg" xmlns:xlink="http://www.w3.org/1999/xlink" x="0px" y="0px"
	 viewBox="0 0 1450.3 844.2" style="enable-background:new 0 0 1450.3 844.2;" xml:space="preserve">
<style type="text/css">
	.st0{fill:#AAF7A6;}
	.st1{fill:#009245;}
	.st2{fill:#9E005D;}
</style>
<g>
	<path class="st0" d="M212.8,309.2c-22.6-40.3-40.6-83.3-53.6-127.7c56.6,18.5,113.2,37.1,169.9,55.6
		c36.1-63.5,78.4-123.4,126-178.7c18.7,30.5,37.4,61,56.1,91.5c3.9,6.4,8.5,13.3,15.7,15.3c8.8,2.5,17.7-3.2,25.1-8.5
		c55.4-40.2,110.7-80.5,166.1-120.7c11,55.3,22,110.7,33,166c1.2,6,2.9,12.7,8.2,15.7c5,2.9,11.4,1.3,16.9-0.6
		c81-28.5,133.2-105.9,203.5-155.3c15.7,47,31.4,94,47.1,141c3.2,9.5,6.7,19.6,14.7,25.6c14.5,11.1,35.3,3.7,51.8-4.1
		c54.7-25.6,109.4-51.1,164-76.7c-4.7,45.8-9.3,91.5-14,137.3c-0.5,4.5-0.9,9.4,1.4,13.3c2.7,4.6,8.2,6.6,13.3,8.3
		c50.1,16.3,100.2,32.5,150.4,48.8c-21,23.9-42,47.8-63,71.7c-7.5,8.6-15.4,17.9-16.6,29.3c-1.2,11,4.3,21.6,9.6,31.4
		c23.9,44.3,47.9,88.6,71.8,132.9c-101.5-1.3-202.9-8.5-303.6-21.6c-10.4-1.4-21.6-2.6-30.7,2.6c-6.5,3.8-15.9,9.2-14.9,16.7
		c8.7,69.3,22.2,71.7,28.2,158.7c-10.4-32.9-126.9-106.3-141.9-137.3c-52.6,46.9-105.3,93.8-157.9,140.7
		c-10.1,9-24.4,18.5-35.9,11.3c-5.9-3.7-8.6-10.6-11.2-17.1c-9.7-24.5-21.5-48.1-35.2-70.5c-2.7-4.4-6-9.2-11.1-10.2
		c-4.8-1-9.5,1.8-13.6,4.4C626.1,733.9,570,769.4,513.8,805c-6.7-19.2-13.4-38.3-20.2-57.5c-2.5-7.1-5.7-15-12.7-17.8
		c-6.1-2.4-12.8-0.1-18.9,2.2c-52.2,19.8-104.5,39.6-156.7,59.4c10-55.4,20-110.7,30.1-166.1c-84.4-9.3-169.6-10.6-254.2-3.8
		c44.5-51.1,89-102.1,133.6-153.2c-49.3-38.2-102.2-71.6-157.9-99.8c46.2-31.9,96.9-57,150.2-74.4"/>
	<g>
		<path class="st1" d="M221.8,303.9c-22.1-39.7-39.7-81.6-52.5-125.1c-4.3,4.3-8.6,8.6-12.9,12.9c56.6,18.5,113.2,37.1,169.9,55.6
			c4.3,1.4,9.6-0.9,11.9-4.8c35.7-62.7,77.3-121.8,124.4-176.5c-5.5-0.7-11-1.4-16.5-2.1c13.3,21.7,26.7,43.5,40,65.2
			c6.2,10.1,12.1,20.5,18.7,30.3c5.8,8.6,13.5,16.1,24.4,17c11.6,1,21.5-5.6,30.4-12c10.2-7.4,20.4-14.8,30.6-22.2
			c20.8-15.1,41.5-30.2,62.3-45.3c23.7-17.2,47.4-34.4,71-51.6c-5.1-2.1-10.3-4.2-15.4-6.3c7.3,36.9,14.7,73.8,22,110.7
			c3.6,18,7.1,36,10.7,54c3.1,15.5,11.9,28.5,29.6,25.9c14.1-2.1,28.4-9.7,40.9-16.4c12.5-6.7,24.4-14.5,35.8-23
			c22.8-17,43.7-36.4,64.4-55.8c23.5-22.1,47-44.6,73.5-63.3c-5.1-2.1-10.3-4.2-15.4-6.3c9.6,28.6,19.1,57.2,28.7,85.9
			c4.7,14.1,9.4,28.2,14.1,42.3c4,11.9,7.1,25.1,14.5,35.3c15.5,21.5,41.9,18,63.5,8.9c26.8-11.2,52.9-24.5,79.2-36.8
			c31-14.5,62-29,93-43.5c-5.3-3-10.5-6-15.8-9.1c-4.6,44.9-9.2,89.7-13.7,134.6c-1,10-0.7,20,7.5,27.1c7.7,6.7,19.2,8.8,28.7,11.9
			c21.2,6.9,42.5,13.8,63.7,20.7c24.2,7.9,48.4,15.7,72.6,23.6c-1.5-5.8-3.1-11.7-4.6-17.5c-18.7,21.3-37.3,42.5-56,63.8
			c-8,9.1-17.1,18.2-22.4,29.3c-5.4,11.4-5.6,23.7-1.1,35.5c4.7,12.4,11.8,23.9,18.1,35.6c6.8,12.7,13.7,25.3,20.5,38
			c13.7,25.3,27.3,50.6,41,75.9c3-5.3,6-10.5,9.1-15.8c-85.5-1.1-170.9-6.3-255.8-15.8c-10.6-1.2-21.2-2.4-31.8-3.8
			c-9.7-1.2-19.6-3.2-29.5-3.2c-14.8-0.1-36.2,8.1-41.5,23.7c-2.5,7.5,0.1,16.4,1.3,24c1,6.7,2.2,13.4,3.6,20
			c2.2,10.6,4.9,21,7.7,31.5c7.9,29.9,12.5,59.7,14.7,90.5c6.9-0.9,13.8-1.9,20.6-2.8c-3.4-10.1-10.6-18.6-17.8-26.2
			c-9.7-10.3-20.4-19.6-31.2-28.7c-23.8-20.2-48.8-39-71.9-60c-5-4.6-10-9.3-14.6-14.4c-0.9-1-1.8-2-2.7-3.1c-0.4-0.5-0.8-1-1.2-1.5
			c0.6,0.8,0.6,0.7,0,0c-1.4-1.9-2.6-3.8-3.7-5.9c-3.2-6.4-11.8-6.3-16.5-2.1c-30,26.7-60,53.4-90,80.1c-15,13.4-30,26.7-45,40.1
			c-7,6.2-14,12.5-21,18.7c-5.3,4.7-12.9,12-20.5,12.5c-6,0.4-8.3-5.4-10.3-10.1c-3.5-8.2-6.7-16.6-10.4-24.7
			c-7.8-17.2-16.5-34.1-26.6-50.1c-3.9-6.1-8.5-12-15.6-14.4c-9.4-3.2-18,1.4-25.8,6.3c-16.7,10.5-33.4,21.1-50.1,31.7
			c-38.7,24.5-77.4,49-116.1,73.5c5.1,2.1,10.3,4.2,15.4,6.3c-4.1-11.7-8.2-23.3-12.3-35c-3.7-10.7-6.8-22-11.8-32.1
			c-4.6-9.3-12.8-16.5-23.6-16.8c-11.5-0.3-23,5.9-33.5,9.8c-46.8,17.7-93.5,35.5-140.3,53.2c4.3,4.3,8.6,8.6,12.9,12.9
			c10-55.4,20-110.7,30.1-166.1c1.3-7.2-2.9-12.5-10.1-13.3c-84.4-9.2-169.6-10.5-254.2-3.8c2.5,6,4.9,11.9,7.4,17.9
			c44.5-51.1,89-102.1,133.6-153.2c4.9-5.6,3.4-12.2-2.1-16.5c-49.4-38.1-102.2-71.5-157.9-99.8c0,6,0,12.1,0,18.1
			c45.6-31.3,95.2-56.1,147.7-73.4c12.8-4.2,7.3-24.5-5.6-20.2C150,301.8,98.5,327.1,51.5,359.4c-6.1,4.2-7.5,14.3,0,18.1
			c55.6,28.3,108.5,61.7,157.9,99.8c-0.7-5.5-1.4-11-2.1-16.5C162.7,511.9,118.2,563,73.7,614c-5.4,6.2-2.3,18.7,7.4,17.9
			c84.7-6.7,169.8-5.4,254.2,3.8c-3.4-4.4-6.7-8.9-10.1-13.3c-10,55.4-20,110.7-30.1,166.1c-1.3,7.1,4.7,16,12.9,12.9
			c41.7-15.8,83.4-31.6,125.1-47.4c10.5-4,21-8.1,31.6-12c3.3-1.2,9-4.2,12.5-2.5c2.5,1.2,3.9,4.7,4.9,7.1
			c8.4,19.7,14.4,40.8,21.5,61.1c2.2,6.1,9.3,10.1,15.4,6.3c34.5-21.9,69.1-43.7,103.6-65.6c17.1-10.8,34.1-21.6,51.2-32.4
			c4.2-2.6,8.3-5.3,12.5-7.9c1.9-1.2,5.3-4.2,7.6-3.7c2.1,0.5,4.1,5.4,5.1,7.1c3,4.9,5.9,9.9,8.7,14.9c8.7,15.7,16.6,32,23.3,48.7
			c6,14.9,14.2,31,33.1,29.5c17.3-1.4,30.2-14.9,42.4-25.7c15.3-13.7,30.7-27.3,46-41c34-30.3,68-60.6,101.9-90.8
			c-5.5-0.7-11-1.4-16.5-2.1c4.5,8.9,12.1,16.5,19.3,23.3c10.2,9.8,21,18.9,31.9,27.8c23.8,19.6,48.5,38.3,70.6,59.9
			c4.7,4.6,9.3,9.3,13.4,14.4c0.4,0.5,2.1,2.8,3.4,4.9c0.7,1.1,1.2,2.2,1.8,3.2c1.2,2.2-0.4-1.5,0.5,1.2c3.6,10.6,21.5,9.6,20.6-2.8
			c-2-28.2-5.3-56.3-12.2-83.8c-5.2-20.9-11-41.5-14.3-62.9c-0.7-4.3-3.5-11.1-0.1-14.3c5.5-5.1,12.6-7.7,19.9-7.7
			c9,0,18,1.8,26.8,2.9c10.6,1.3,21.2,2.6,31.8,3.8c40.3,4.5,80.6,8.1,121,10.8c45.8,3,91.6,4.8,137.4,5.3
			c8.2,0.1,12.8-8.9,9.1-15.8c-24.9-46-50.9-91.6-74.6-138.2c-5-9.8-7.7-19.3-1.9-29.3c5.6-9.7,14.2-17.9,21.5-26.3
			c17.2-19.6,34.4-39.2,51.6-58.8c5.3-6,3.2-15-4.6-17.5c-50.4-16.4-101.2-32-151.3-49.1c-5.5-1.9-6.6-2.9-6.3-8.9
			c0.4-6.1,1.2-12.3,1.9-18.4c1.4-13.5,2.7-26.9,4.1-40.4c2.7-26.9,5.5-53.8,8.2-80.8c0.9-8.7-9.4-12.1-15.8-9.1
			c-49.8,23.3-99.6,46.6-149.4,69.8c-14.4,6.7-44.4,25.6-58.1,8.5c-6.5-8.1-8.8-20.1-12-29.7c-4.3-12.8-8.6-25.6-12.8-38.4
			c-10-29.9-20-59.8-29.9-89.7c-2-5.9-9.6-10.4-15.4-6.3C929.9,84.3,893.6,125,852,159.7c-19.9,16.5-41.3,31.4-65,42
			c-5.7,2.6-11.8,5.4-17.9,6.7c-6.7,1.5-6.7-3.4-7.9-9.1c-3.5-16.7-6.6-33.4-10-50.1c-7.7-38.7-15.4-77.3-23.1-116
			c-1.2-6.2-10.1-10.1-15.4-6.3c-37.9,27.5-75.8,55.1-113.6,82.6c-18.7,13.6-37,28-56.3,40.8c-3.4,2.2-8.1,5.6-12.4,4.9
			c-3.5-0.6-5.8-3.9-7.7-6.6c-6.2-9-11.6-18.7-17.3-28c-13.8-22.5-27.6-45-41.4-67.5c-3.3-5.4-11.9-7.4-16.5-2.1
			c-48.2,56-91,116.6-127.7,180.8c4-1.6,7.9-3.2,11.9-4.8c-56.6-18.5-113.2-37.1-169.9-55.6c-7.6-2.5-15.1,5.5-12.9,12.9
			c13.3,45.3,31.6,89,54.6,130.2C210.3,326.3,228.4,315.7,221.8,303.9L221.8,303.9z"/>
	</g>
</g>
<g>
	<g>
		<path class="st2" d="M482.9,621.3c-5.4-47.1-11.1-95.6-3.4-142.8c1.9-11.5,4.4-23.2,8.3-34.3c1.2-3.3,2.9-7.7,5.9-9.8
			c3.5-2.4,7.4,0,10.3,2.3c16.7,13.3,26.5,35.2,34.9,54.3c11.2,25.3,20.3,51.5,27.6,78.1c2.5,9.3,17,5.4,14.5-4
			c-7.1-26.1-16.1-51.6-26.8-76.5c-9.6-22.3-20.7-46.5-39.5-62.5c-8.8-7.5-20.7-11-30.5-3.1c-8.8,7.1-11.8,19.4-14.5,29.8
			c-6.6,25.4-8.9,51.8-8.7,78c0.2,30.2,3.6,60.4,7,90.4c0.5,4,3.1,7.5,7.5,7.5C479.1,628.8,483.3,625.4,482.9,621.3L482.9,621.3z"/>
	</g>
</g>
<g>
	<g>
		<path class="st2" d="M470.7,551c31.2-2.5,62.5-5,93.7-7.5c9.6-0.8,9.6-15.8,0-15c-31.2,2.5-62.5,5-93.7,7.5
			C461.1,536.7,461.1,551.8,470.7,551L470.7,551z"/>
	</g>
</g>
<g>
	<g>
		<path class="st2" d="M573.8,470.5c6,28.4-4.3,62.9,18.9,85.7c9.3,9.1,23.8,14.9,36.6,10.1c14.5-5.4,14.7-23.5,15.9-36.6
			c1.8-18.6,0.7-37.2-2.5-55.5c-1.7-9.5-16.1-5.5-14.5,4c3,17,3.6,34.4,1.9,51.5c-0.4,3.8-0.8,7.6-1.5,11.3c-0.4,2.7-0.6,7.8-2.6,10
			c-3.3,3.8-11.3,1.8-15.1,0c-13.1-6.1-18-20.9-19.4-34.3c-1.7-16.8,0.1-33.6-3.4-50.3C586.2,457.1,571.8,461.1,573.8,470.5
			L573.8,470.5z"/>
	</g>
</g>
<g>
	<g>
		<path class="st2" d="M688.6,401.1c4,50.5,8.1,101,12.1,151.5c0.8,9.6,15.8,9.6,15,0c-4-50.5-8.1-101-12.1-151.5
			C702.8,391.5,687.8,391.4,688.6,401.1L688.6,401.1z"/>
	</g>
</g>
<g>
	<g>
		<path class="st2" d="M646.2,462.7c34.6-2.8,69.1-5.5,103.7-8.3c9.6-0.8,9.6-15.8,0-15c-34.6,2.8-69.1,5.5-103.7,8.3
			C636.7,448.5,636.6,463.5,646.2,462.7L646.2,462.7z"/>
	</g>
</g>
<g>
	<g>
		<path class="st2" d="M773.8,471.5c-6.7-3.7-13.5-0.6-17.3,5.7c-4,6.6-4.1,15.4-4.3,22.9c-0.5,15.6,4.2,31.9,18.4,40.3
			c13,7.6,28.1,3.8,36.6-8.5c8-11.6,9.7-29.1,5.1-42.3c-5.5-15.9-22.5-28.2-39.6-22.1c-9,3.2-5.1,17.7,4,14.5
			c11-3.9,19.9,5.3,22.2,15.4c2.1,9.1,0.7,22.9-7,29.5c-8.2,7-18.9-1.2-22.3-9.3c-2.4-5.7-2.6-12.1-2.4-18.2c0.1-3.4,0.3-7,0.9-10.4
			c0.2-1,0.5-1.9,0.7-2.9c0.2-0.4,0.4-0.8,0.6-1.2c1.1-1.3,0-1.4-3.2-0.3C774.7,489.1,782.3,476.1,773.8,471.5L773.8,471.5z"/>
	</g>
</g>
<g>
	<g>
		<path class="st2" d="M822.5,470.6c1.6,20.8,3.2,41.7,4.9,62.5c0.7,9.5,14.9,9.8,15,0c0.2-15.5,3.7-30.9,10.7-44.8
			c0.8-1.5,1.6-3.1,2.5-4.6c0.5-1,2.7-3.3,2.8-4.4c0.2-0.3,0.5-0.5,0.8-0.7c-2.7-1-3.5-0.8-2.5,0.5c-0.1,1.2,1.3,3.9,1.6,5
			c2.6,8.7,4.9,17.4,6.8,26.3c1.9,8.6,14.3,6.1,14.7-2c0.6-10.1,4-19.6,9.6-28c2.7-4,5.9-7.5,9.5-10.7c2.9-2.5,9-8.2,13-7.7
			c-1.3-0.3-2.5-0.7-3.8-1c-0.9-0.5,0.2,2.1,0.4,3c0.5,2.5,1,5,1.4,7.6c0.9,5,1.7,10.1,2.3,15.2c1.2,10.2,1.9,20.5,2.2,30.8
			c0.3,9.6,15.3,9.7,15,0c-0.4-15.5-1.9-30.9-4.4-46.1c-1-6.2-1.4-14-4.9-19.4c-4.4-6.7-12-5.6-18.2-2.4
			c-21.8,11.2-35.8,34.7-37.1,58.9c4.9-0.7,9.8-1.3,14.7-2c-1.3-6-2.8-12-4.4-17.9c-1.5-5.4-2.7-11.4-5.3-16.4
			c-5.3-10.6-17.2-9.9-23.9-1.1c-12.8,17.1-18.3,41.1-18.5,62.1c5,0,10,0,15,0c-1.6-20.8-3.2-41.7-4.9-62.5
			C836.8,461.1,821.8,461,822.5,470.6L822.5,470.6z"/>
	</g>
</g>
<g>
	<g>
		<path class="st2" d="M993.2,473.7c5.3-13-7.8-25.7-20.5-24.3c-14.8,1.7-22.5,15.5-25.3,28.8c-1.6,7.7-2.6,15.5-3,23.4
			c-0.4,7-1.1,15.3,1.6,21.9c6.7,16.2,24.1,3.5,31.7-4.8c10.1-11.2,15.8-26,15.4-41.1c-4.7,1.3-9.3,2.5-14,3.8
			c5.7,11.3,11.5,22.6,17.2,34c4.4,8.6,17.3,1,13-7.6c-5.7-11.3-11.5-22.6-17.2-34c-3.4-6.7-14.2-3.5-14,3.8
			c0.2,9.9-2.6,19.3-8.4,27.3c-2.7,3.8-6.2,7.3-10.1,9.9c-0.6,0.4-1.3,0.8-1.9,1.2c-1.6,0.7-0.8,1.4,2.2,1.9
			c0.1-0.2-0.4-1.3-0.4-1.6c0.2-2.9-0.2-6-0.2-9c0.1-11.1,0.7-24.5,5.6-34.7c1.8-3.8,5.3-8.2,9.9-8.3c3.3-0.1,5.3,2.5,4,5.5
			c-1.5,3.8,1.7,8.2,5.2,9.2C988.3,480.2,991.7,477.5,993.2,473.7L993.2,473.7z"/>
	</g>
</g>
<g>
	<g>
		<path class="st2" d="M1025.7,376.2c3.6,44.5,7.1,89,10.7,133.6c0.8,9.6,15.8,9.6,15,0c-3.6-44.5-7.1-89-10.7-133.6
			C1039.9,366.6,1024.9,366.5,1025.7,376.2L1025.7,376.2z"/>
	</g>
</g>
<g>
	<g>
		<path class="st2" d="M986.9,416.5c29.2-2.3,58.5-4.7,87.7-7c9.6-0.8,9.6-15.8,0-15c-29.2,2.3-58.5,4.7-87.7,7
			C977.4,402.3,977.3,417.3,986.9,416.5L986.9,416.5z"/>
	</g>
</g>
<g>
	<g>
		<path class="st2" d="M1093.7,449c1.1,13.3,2.1,26.6,3.2,39.9c0.8,9.6,15.8,9.6,15,0c-1.1-13.3-2.1-26.6-3.2-39.9
			C1107.9,439.4,1092.9,439.3,1093.7,449L1093.7,449z"/>
	</g>
</g>
<g>
	<g>
		<path class="st2" d="M1096.5,427.2c1.9,1.1,4,2.7,6.1,3.3c2.4,0.7,5.2-0.1,7.3-1.3c3.7-2.1,5.9-5.9,6.5-10
			c1.2-9.2-8-15.9-16.5-13.9c-3.8,0.9-6.5,5.5-5.2,9.2c1.3,4,5.1,6.2,9.2,5.2c-1,0.1-1.2,0.1-0.6,0.1c0.4,0,0.4,0-0.2-0.1
			c-0.6-0.1-0.6-0.1,0.1,0.1c-0.3-0.1-0.5-0.2-0.8-0.3c1,0.7-0.1-0.2-0.4-0.5c-0.3-0.4-0.3-0.4-0.1-0.1c0.3,0.5,0.2,0.3-0.2-0.5
			c-0.1-0.6-0.1-1.2,0-1.8c-0.4,1.7,0.6-0.8,0.1,0c-0.4,0.7,1-0.8-0.1,0c0.4-0.3,2.2-1,0.8-0.7c1.9,0.3,3.9,0.5,5.8,0.8
			c-1.4-0.8-2.8-1.7-4.3-2.5c-3.4-2-8.4-0.9-10.3,2.7C1091.9,420.5,1092.9,425,1096.5,427.2L1096.5,427.2z"/>
	</g>
</g>
<g>
	<g>
		<path class="st2" d="M1153.4,420.7c-13,3.8-15.5,17.8-15.8,29.6c-0.4,14.1,0.8,29.8,12.3,39.6c10.8,9.2,25.8,8.5,35.7-1.7
			c10.2-10.4,11.8-26.9,10.2-40.7c-1.8-15.4-12.5-32.6-30.3-30.3c-4,0.5-7.5,3.1-7.5,7.5c0,3.7,3.5,8,7.5,7.5
			c12.6-1.6,15.6,13,15.7,22.6c0.1,9.1-1.4,24.6-12.8,26.7c-11,1.9-15.3-12.7-15.8-20.8c-0.3-5.1-2.3-23.5,4.8-25.5
			C1166.6,432.4,1162.7,417.9,1153.4,420.7L1153.4,420.7z"/>
	</g>
</g>
<g>
	<g>
		<path class="st2" d="M1211.7,421.5c1.8,19.8,3.6,39.7,5.4,59.5c0.6,6.6,10.5,11.2,14,3.8c5.5-11.8,10.9-23.7,16.4-35.5
			c3.4-7.1,7.8-17.3,16-19.9c2.2-0.7,2.3-1,2.9,1c0.6,2.4,0.8,4.8,1,7.2c0.6,6.3,1,12.5,1.4,18.8c0.8,13.5,1,27.1,0.8,40.7
			c-0.2,9.7,14.8,9.7,15,0c0.3-16.5-0.1-33.1-1.3-49.6c-0.9-12.1-0.1-32.6-16.9-33.5c-13-0.7-23,11-28.6,21.4
			c-7.3,13.5-13.2,27.9-19.6,41.8c4.7,1.3,9.3,2.5,14,3.8c-1.8-19.8-3.6-39.7-5.4-59.5C1225.8,412,1210.8,411.9,1211.7,421.5
			L1211.7,421.5z"/>
	</g>
</g>
<g>
	<g>
		<g>
			<path class="st2" d="M318.7,317.6c-15.1-4.7-33.1-1.4-41.7,13c-8.5,14.2-2.1,30.3,11.5,38.4c14.4,8.5,32.3,6.4,46.4,15.8
				c3,2,5.6,4.3,8,6.9c1.9,2,6.1,6,6.1,9c-0.1,4.6-14.7,6.7-18.3,7.6c-19.5,4.7-40,5.7-59.9,2.9c-4-0.6-8,1-9.2,5.2
				c-1,3.5,1.2,8.7,5.2,9.2c17.9,2.5,35.6,2.6,53.5-0.1c9.1-1.4,18.1-3.4,26.8-6.3c6.7-2.2,13.6-5.7,16-12.8
				c5.1-15.2-13-30.5-24.7-36.9c-7.5-4.1-15.6-6.1-23.9-7.7c-7.7-1.5-16.3-2.8-22.3-8.4c-5.1-4.7-5.5-11.5-1.1-16.9
				c5.7-7,15.6-6.7,23.5-4.3C324,334.9,327.9,320.5,318.7,317.6L318.7,317.6z"/>
		</g>
	</g>
	<g>
		<g>
			<path class="st2" d="M392,357.5c7.9-15.6,12.2-33.2,11.1-50.7c-0.4-6.7-2-14-7.1-18.7c-5.2-4.9-13.3-5.4-19-1.2
				c-5.3,3.9-7.8,10.4-8.9,16.7c-1.4,8.7-1.3,17.9-1.6,26.7c-0.3,9.9-0.4,19.7-0.2,29.6c0.1,8.9,0.1,18.2,2.5,26.9
				c4.8,17.5,20.1,29.4,37.9,31.1c4,0.4,7.5-3.7,7.5-7.5c0-4.4-3.5-7.1-7.5-7.5c-14.8-1.5-23.5-14.1-24.8-28
				c-1.7-17.6-0.8-35.9,0-53.6c0.3-6.2-0.4-13.8,2.2-19.7c0.2-0.5,1-2.7,1.7-2.7c1.1,0,2,4.6,2.1,5.2c2.8,15-2,32.5-8.7,45.9
				C374.6,358.5,387.6,366.1,392,357.5L392,357.5z"/>
		</g>
	</g>
	<g>
		<g>
			<path class="st2" d="M444.5,393c0-36.8,0-73.6,0-110.3c0-2.3,0-4.6,0-7c0-1.6,0.6-4.4,0-6c0-0.6,0-1.3,0.1-1.9
				c-2.3,0.8-2.9,1.3-1.7,1.6c0,0.1,0.5,1.2,0.8,1.8c1.6,3.7,2,8.3,2.9,12.2c1,4.5,2,9,3,13.5c4,18,7.9,35.9,11.9,53.9
				c1.5,7,13.1,7.3,14.5,0c2.9-15.9,5.8-31.9,8.7-47.8c1.3-7.2,2.3-14.6,4.2-21.7c1.2-4.6,4.2-11.5,10.1-9.4
				c-1.7-1.7-3.5-3.5-5.2-5.2c5.5,39.8,6.8,80.2,4.5,120.3c-0.6,9.6,14.4,9.6,15,0c2.4-41.5,0.6-83.1-5-124.3
				c-0.4-2.6-3-4.4-5.2-5.2c-7.7-2.8-16.2,0.3-21.6,6.1c-6,6.4-7.5,15.4-9,23.7c-3.6,19.8-7.3,39.7-10.9,59.5c4.8,0,9.6,0,14.5,0
				c-3.7-16.7-7.4-33.4-11.1-50.1c-1.8-8.3-3.6-16.7-5.5-25c-1.6-6.8-4.4-13.6-11.3-16.3c-5.9-2.3-12.9-0.8-16.3,4.9
				c-3.7,6.2-2.1,15.5-2.1,22.4c0,17.2,0,34.5,0,51.7c0,19.5,0,39.1,0,58.6C429.5,402.6,444.5,402.7,444.5,393L444.5,393z"/>
		</g>
	</g>
	<g>
		<g>
			<path class="st2" d="M540.5,306c0,24,0,48,0,72c0,9.7,15,9.7,15,0c0-24,0-48,0-72C555.5,296.3,540.5,296.3,540.5,306L540.5,306z"
				/>
		</g>
	</g>
	<g>
		<g>
			<path class="st2" d="M541.1,238.1c-1.9,6.8-0.8,14.2,3.1,20.2c1.7,2.5,5.3,4.7,8.5,3.4c7-2.7,11.1-8.1,11.9-15.6
				c0.4-4-3.7-7.5-7.5-7.5c-4.4,0-7.1,3.5-7.5,7.5c0.1-0.6-0.4,0.6-0.4,0.6c0.4-0.6-0.8,0.9-0.3,0.4c0.4-0.4-1.2,0.6-0.2,0.2
				c2.8,1.1,5.6,2.3,8.5,3.4c-2-3-2.4-5.4-1.6-8.6C558.1,232.7,543.6,228.7,541.1,238.1L541.1,238.1z"/>
		</g>
	</g>
	<g>
		<g>
			<path class="st2" d="M584.1,343.5c25,0,50,0,75,0c9.7,0,9.7-15,0-15c-25,0-50,0-75,0C574.4,328.5,574.4,343.5,584.1,343.5
				L584.1,343.5z"/>
		</g>
	</g>
</g>
</svg>
