<?xml version="1.0" encoding="utf-8"?>
<!-- Generator: Adobe Illustrator 19.2.1, SVG Export Plug-In . SVG Version: 6.00 Build 0)  -->
<svg version="1.1" id="Layer_1" xmlns="http://www.w3.org/2000/svg" xmlns:xlink="http://www.w3.org/1999/xlink" x="0px" y="0px"
	 viewBox="0 0 1117.1 800" style="enable-background:new 0 0 1117.1 800;" xml:space="preserve">
<style type="text/css">
	.st0{fill:#42210B;stroke:#3B2314;stroke-width:4;stroke-miterlimit:10;}
	.st1{fill:#FBBC7D;stroke:#776232;stroke-width:2;stroke-miterlimit:10;}
	.st2{fill:#603813;}
	.st3{fill:#3B2314;}
	.st4{fill:#42210B;}
	.st5{opacity:0.24;fill:#FFFFFF;enable-background:new    ;}
	.st6{opacity:0.36;fill:#FFFFFF;enable-background:new    ;}
	.st7{opacity:0.31;fill:none;stroke:#603813;stroke-miterlimit:10;enable-background:new    ;}
	.st8{fill:#FFFFFF;stroke:#A6A8AB;stroke-miterlimit:10;}
	.st9{opacity:0.43;fill:#FFFFFF;enable-background:new    ;}
	.st10{fill:none;stroke:#776232;stroke-width:2;stroke-miterlimit:10;}
	.st11{fill:#729AB6;stroke:#303F49;stroke-width:3;stroke-miterlimit:10;}
	.st12{fill:none;stroke:#303F49;stroke-width:3;stroke-miterlimit:10;}
	.st13{fill:#303F49;stroke:#121112;stroke-width:3;stroke-miterlimit:10;}
	.st14{fill:none;stroke:#121112;stroke-width:3;stroke-miterlimit:10;}
	.st15{fill:#FFFFFF;}
	.st16{stroke:#603813;stroke-width:7;stroke-miterlimit:10;}
	.st17{fill:none;stroke:#000000;stroke-width:4;stroke-miterlimit:10;}
	.st18{fill:#776232;}
	.st19{opacity:0.44;fill:#EC297B;enable-background:new    ;}
	.st20{fill:#F2F2F2;}
	.st21{fill:#B3B3B3;}
</style>
<path class="st0" d="M370.3,128.7c0,0,54.4-32,97.9,27.3s-11.9,110.5-5.9,115.9s21.3,16.8,22.7,46.1c1.3,29.3-2,44.7-32.3,53
	s-53-3-62.3,9s-42,8-65,6.7s-23.6,2.1-37-1.3c-17.4-4.5-12.7-2.7-36-4.7s-32.7-10-39.3-5c-6.7,5-29.3-5.8-28-23.4
	c0,0-57.3-7.2-14.5-58.9c0,0,17.7-15.6,5.8-44.1c-21.7-52,34.1-68.4,36.9-88c3.4-24,27.1-48.7,73.7-62.7
	C329.8,85.8,340.3,99.3,370.3,128.7z"/>
<path class="st1" d="M341.6,363.3c0,0,0.7,7.4,0,12.7c-0.7,5.3,0.3,38.3,0.3,38.3l-19-6.6l-4.7-25.7l8.7-6v-15.7L341.6,363.3z"/>
<path class="st1" d="M247.6,210c0,0-40,43.3-10.7,102s98.6,52.4,98.6,52.4s77.6-1.1,78.5-76.8c0,0,24.2,5.5,29.6-15.8
	s-7.3-39.7-24.7-30.8l0.7-31.1l-22-71.3l-29.3-3.3L335.5,114L247.6,210z"/>
<path class="st2" d="M342.7,198.3c-1.5,2.2-2.2,11.5,0,10.6c2.2-0.8,35.8-13.3,38.5-12.3s24.2,11.2,24.2,11.2s-17.4-20.2-24.2-20.2
	S342.7,198.3,342.7,198.3z"/>
<path class="st2" d="M302.5,202.3c0,0,1.5,8.5,0,10s-29-13.5-29-13.5l3.5-6L302.5,202.3z"/>
<g>
	<path class="st3" d="M260,206.5c-1.4,0.7-2.8,1.4-4.3,2.1c-1.4,0.7-2.8,1.5-4.2,2.3c-2.7,1.6-5.4,3.2-8,5c-1.3,0.9-2.6,1.8-3.8,2.7
		c-1.3,0.9-2.5,1.9-3.7,2.8l-1.8,1.5l-1.7,1.5c-1.1,1-2.3,2.1-3.4,3.2c-1.1,1.1-2.1,2.2-3.1,3.4l-1.5,1.8l-1.4,1.8
		c-0.5,0.6-0.9,1.3-1.3,1.9c-0.4,0.6-0.8,1.3-1.2,1.9c-0.4,0.7-0.8,1.3-1.1,2l-1,2c-0.5,1.4-1.2,2.8-1.6,4.2
		c-0.5,1.4-0.8,2.9-1.1,4.4l-0.3,2.2c-0.1,0.7-0.1,1.5-0.2,2.2c-0.2,1.5,0,3,0,4.5v-0.3c0.2,0.7,0.4,1.4,0.7,2.2
		c0.3,0.7,0.6,1.5,0.9,2.2c0.3,0.7,0.7,1.4,1,2.1c0.4,0.7,0.8,1.4,1.2,2s0.9,1.3,1.4,1.8c0.5,0.6,1,1.1,1.6,1.6s1.2,1,1.8,1.4
		s1.3,0.8,2,1.1c0.4,0.1,0.7,0.3,1.1,0.4l1.1,0.3c0.7,0.2,1.5,0.3,2.3,0.4c0.4,0.1,0.8,0.1,1.2,0.1s0.8,0,1.2,0
		c0.8-0.1,1.6-0.1,2.4-0.3c0.8-0.1,1.6-0.3,2.4-0.5c0.8-0.2,1.5-0.5,2.3-0.7l2.3-0.9l2.2-1.1l-2.1,1.4c-0.7,0.4-1.4,0.9-2.2,1.3
		s-1.5,0.8-2.3,1.1c-0.8,0.3-1.6,0.6-2.4,0.9c-0.8,0.3-1.7,0.4-2.5,0.6c-0.4,0.1-0.9,0.1-1.3,0.2c-0.4,0.1-0.9,0.1-1.3,0.1
		c-0.9,0-1.8-0.1-2.6-0.2l-1.3-0.3c-0.4-0.1-0.9-0.3-1.3-0.4c-0.8-0.3-1.7-0.7-2.5-1.1s-1.5-0.9-2.2-1.5c-0.7-0.5-1.4-1.2-2-1.8
		c-0.6-0.6-1.2-1.3-1.7-2c-1.1-1.4-2-2.9-2.8-4.5c-0.4-0.8-0.7-1.6-1.1-2.4c-0.3-0.8-0.6-1.6-0.9-2.5v-0.1v-0.1
		c-0.1-1.7-0.3-3.3-0.2-5c0.1-0.8,0-1.7,0.1-2.5l0.3-2.5c0.3-1.6,0.6-3.3,1.2-4.9c0.4-1.6,1.1-3.2,1.7-4.7l1.1-2.2
		c0.4-0.7,0.8-1.4,1.2-2.2c0.4-0.7,0.9-1.4,1.3-2.1c0.5-0.7,0.9-1.4,1.4-2l1.5-2l1.6-1.9c1.1-1.2,2.2-2.4,3.4-3.5s2.4-2.2,3.7-3.2
		s2.6-2,3.9-2.9c1.3-0.9,2.7-1.8,4-2.7c1.4-0.9,2.8-1.7,4.2-2.4c2.8-1.6,5.7-2.9,8.7-4.2c1.5-0.6,3-1.2,4.5-1.7
		C257,207.4,258.5,206.9,260,206.5z"/>
</g>
<polygon class="st4" points="368.3,135.3 380.2,139.4 388.1,145.5 394.3,154 397.5,167.7 399.2,188 403,206.6 410.3,220.2 
	423.1,230.3 452.6,167.7 394.3,130 383.8,127.3 369.2,131.8 346.3,114 335.5,114 252.3,168.5 210.4,217.2 241,220 252.3,217.8 
	265.8,210.9 279.4,199 302.6,168.5 322.2,138 333,126.7 346.3,124.2 358.7,128.5 "/>
<g>
	<path class="st3" d="M462.3,224c-1,3.2-3.1,6.2-5.9,8.2s-6.3,3-9.7,3.4c-3.4,0.4-6.9,0.2-10.3-0.5l-2.5-0.5
		c-0.8-0.2-1.7-0.3-2.5-0.6c-1.7-0.5-3.4-0.9-5-1.5c-3.3-1.1-6.4-2.8-9.3-4.7l-2.1-1.5c-0.7-0.6-1.3-1.1-2-1.7
		c-0.7-0.6-1.3-1.2-1.9-1.8s-1.2-1.3-1.7-2c-2.3-2.7-4.1-5.7-5.6-8.9s-2.7-6.5-3.5-9.8c-0.9-3.4-1.6-6.8-2-10.2
		c-0.5-3.4-0.9-6.8-1.2-10.2l-0.8-10.2c-0.3-3.4-0.6-6.7-1.3-9.9c-0.2-0.8-0.3-1.6-0.5-2.4c-0.1-0.4-0.2-0.8-0.3-1.2l-0.4-1.1
		l-0.2-0.6l-0.2-0.5l-0.2-0.5l-0.1-0.3l-0.1-0.1v-0.1l0,0c0,0,0-0.1,0,0l-1.3-2.2c-0.4-0.8-0.9-1.4-1.4-2s-0.9-1.3-1.5-1.9
		c-0.5-0.6-1.1-1.2-1.6-1.8l-1.7-1.7c-2.4-2.1-5.1-3.9-8-5.3c-1.5-0.7-3-1.3-4.5-1.7c-0.8-0.2-1.5-0.4-2.3-0.6
		c-0.8-0.2-1.6-0.3-2.3-0.4l-0.7-0.1l-0.5-0.5c-1.7-1.6-3.7-3.1-5.7-4.4c-2-1.3-4.1-2.5-6.3-3.5c-4.4-1.9-9.1-3-13.7-2.6
		c-2.3,0.2-4.5,0.8-6.6,1.8l-0.4,0.2l-0.2,0.1h-0.1l0,0c0.3-0.1,0,0,0.1,0l-0.8,0.5l-0.8,0.5l-0.6,0.5c-0.8,0.6-1.6,1.5-2.5,2.3
		c-3.2,3.6-6.1,7.7-8.8,11.8c-5.5,8.3-10.7,17-16.3,25.4c-2.8,4.2-5.7,8.4-8.6,12.5c-3,4.1-6.1,8.1-9.4,12s-6.8,7.6-10.6,11
		c-1,0.8-1.9,1.7-2.9,2.5l-3,2.4l-3.1,2.2c-1,0.8-2.2,1.4-3.3,2.1c-4.4,2.6-9.2,4.7-14.3,5.9c-1.3,0.2-2.5,0.5-3.8,0.7l-3.9,0.3
		c-1.3,0-2.5,0-3.8,0.1c-1.3,0-2.6-0.1-3.8-0.1c-5.1-0.2-10.2-0.9-15.1-2.1c-4.9-1.2-9.8-3-14.2-5.4c-4.5-2.4-8.6-5.5-12.2-9.1
		c-1.8-1.8-3.4-3.8-4.8-5.9c-1.4-2.1-2.7-4.3-3.6-6.6c2.1,4.6,5.3,8.6,8.9,12c3.6,3.5,7.8,6.3,12.2,8.5c4.5,2.2,9.2,3.8,14.1,4.8
		c4.9,1,9.8,1.5,14.8,1.6c1.2,0,2.5,0,3.7,0c1.2-0.1,2.5-0.1,3.7-0.2l3.6-0.4c1.2-0.2,2.4-0.5,3.6-0.8c4.7-1.2,9.2-3.3,13.4-5.9
		c1-0.7,2.1-1.3,3.1-2l3-2.2l2.8-2.4c1-0.8,1.8-1.7,2.7-2.5c3.6-3.4,7-7,10.2-10.9c3.2-3.8,6.2-7.8,9.1-11.9
		c2.9-4.1,5.7-8.2,8.4-12.5c2.7-4.2,5.4-8.5,8-12.7c2.7-4.3,5.3-8.6,8.1-12.8c2.8-4.2,5.7-8.5,9.2-12.4c1-1,1.8-1.9,3-2.8l0.9-0.7
		l0.8-0.5l0.8-0.5l0.2-0.1h0.1l0.1-0.1l0.2-0.1l0.5-0.2c2.5-1.1,5.2-1.8,7.9-2.1c5.5-0.5,10.9,0.8,15.7,2.9c2.4,1.1,4.7,2.4,6.9,3.8
		c2.2,1.5,4.2,3,6.2,4.8l-1.2-0.5c2,0.2,3.6,0.6,5.4,1.2c1.7,0.5,3.4,1.2,5,2c3.2,1.6,6.2,3.6,8.9,6l1.9,1.9c0.6,0.7,1.2,1.3,1.8,2
		c0.6,0.6,1.1,1.4,1.6,2.2c0.5,0.7,1.1,1.5,1.5,2.2l1.3,2.2c0.1,0.1,0,0.1,0.1,0.1l0,0v0.1l0.1,0.2l0.1,0.3l0.3,0.6l0.3,0.6l0.2,0.6
		l0.4,1.3c0.1,0.4,0.2,0.9,0.3,1.3c0.2,0.9,0.4,1.7,0.6,2.6c0.6,3.5,0.9,6.9,1.2,10.3l0.7,10.2c0.2,3.4,0.5,6.7,1,10.1
		c0.4,3.3,1,6.6,1.8,9.9c0.8,3.3,1.8,6.4,3.1,9.5c1.3,3,3,5.9,5,8.5c0.5,0.7,1,1.3,1.6,1.9c0.6,0.6,1.1,1.2,1.7,1.8s1.2,1.1,1.8,1.7
		l2,1.5c2.7,1.9,5.6,3.6,8.7,4.8c3.1,1.3,6.3,2.1,9.7,2.9c3.2,0.8,6.6,1,10,0.8c3.3-0.3,6.7-1.1,9.5-2.9
		C459,230,461.1,227.2,462.3,224z"/>
</g>
<path class="st5" d="M397.6,138.7c0,0,16.2-3.9,16.4,19.7s4.8,48.8,24.3,39.7c14.3-6.7,14.3-18.2,14.3-18.2s-13,11.6-21.7,8.2
	C414.1,181.3,429.6,117.3,397.6,138.7z"/>
<path class="st6" d="M410.3,199.9c0,0,11.2,14,25,21.5c9,4.9,19.6,5.9,27,2.5C462.3,224,429,242.5,410.3,199.9z"/>
<path class="st5" d="M273,150.7l4.7-16.3l-13.3,18.3c-0.5-25.3,31.3-33.3,31.3-33.3c-26.7-2-36.8,21.4-40.4,33
	c-8.6,27.4-34.9,45.7-34.9,45.7c10.6,1.4,21.1-3.7,26-10l18.7-24c-1,14.8-16,34-16,34c11.3,0.7,28-14.7,36-42s42-42,42-42
	S285.6,132.9,273,150.7z"/>
<path class="st1" d="M241.6,433.3l55.3-20l13.3-27.8c0,0-103,37.8-96.8,43.2c6.1,5.3,70.8,68.7,70.8,68.7s-6,24.6,2.7,25
	c8.7,0.3,14-27.7,14-27.7L241.6,433.3z"/>
<path class="st1" d="M370.3,404l33.3,63.5l30.8,42.2c0,0,41.7,0.7,39.2,4C471,517,431.7,527,431.7,527s-30.8-32.7-39.4-44.2
	c-4.8-6.5-38-64.6-38-64.6L370.3,404z"/>
<polygon class="st1" points="313.6,662.7 318.3,676.7 313.6,692 325,702 335.5,702 346.3,694 335.5,676 346.3,654.7 "/>
<path class="st7" d="M419,250.7c0,0,7-5.2,11-4s6.3,10.5,6.3,17.3s-2.3,12.5-4.3,12.4s-5-9.6-10.5-6.6"/>
<path class="st2" d="M421.7,268.2c0,0,3.3-3.3,3.4-3.9s-3.3-4.6,0-4.6s5.3,3,4.8,4.6S421.7,268.2,421.7,268.2z"/>
<circle class="st8" cx="422" cy="279.1" r="6"/>
<path class="st9" d="M206.7,231.1c0,0-20,22.5-3.3,41.2C203.3,272.4,174.7,256.3,206.7,231.1z"/>
<path class="st5" d="M183.6,302c0,0-28.6,17.3-13.6,33.8C170,335.8,162.6,322.7,183.6,302z"/>
<path class="st5" d="M203.3,272.4c0,0,29.3,19.9,17,23.5c-12.3,3.5-25.6,6.2-25.6,6.2s18.4-6.3,18.6-12.1
	C213.3,284,203.3,272.4,203.3,272.4z"/>
<path class="st9" d="M451.2,295.8c0,0,27.3,17.5,24.4,28.9c-2.9,11.3-26.3,6.7-26.3,14s6.3,6.7,6.3,6.7s-8,12-30.5,12.6
	c0,0,15.3-5.9,19.7-12.6c4.4-6.7-4.9-16-1.2-16s25,2.7,25-6C468.7,314.7,464.3,304.3,451.2,295.8z"/>
<path class="st9" d="M226.2,326.9c0,0-27.9,17.2-12.7,18.5s34,5.7,23.3,8.5c-10.8,2.8-20.1,8.3-20.1,8.3l7.8-8.3
	c0,0-29.1,2.2-18.1-11.2S226.2,326.9,226.2,326.9z"/>
<path class="st9" d="M206.7,183.6c0,0,34.1,8.5,33.2-15.8c-1.6-42.9,35.8-45.6,8.7-36c0,0-14.7,11.4-15.4,24.3
	C232.3,172.4,235.4,184.7,206.7,183.6z"/>
<polyline class="st10" points="330,658.7 330,680.8 334.5,694.3 "/>
<polygon class="st11" points="279.5,397.7 307.8,385.6 328.3,412 350,388.4 370,388.4 375.3,407.7 361,421.3 347,479 307.3,474.6 
	293.3,412.7 286.9,416.3 "/>
<polygon class="st11" points="324.7,410.2 330.1,412 328.3,475.8 324.3,477 "/>
<polygon class="st11" points="304.8,382 320.2,377.4 326.1,407.7 "/>
<polygon class="st11" points="328.3,412 344.1,375.7 360.6,388.4 "/>
<polygon class="st11" points="271.6,398 284.6,394 287.3,420 279.5,421.3 "/>
<line class="st12" x1="355" y1="414.3" x2="358.4" y2="432"/>
<polygon class="st11" points="355,421.3 362.6,432 380.6,417 375.3,407.7 "/>
<path class="st13" d="M304.8,470.3L347,479c0,0,15.7,12.3,20.8,30.3c5.2,18-0.4,56.5-11.1,72.5c0,0-2.8-0.5,0,7s5.1,13.5,4,22
	c-1.2,8.5-18.7,52.5-18.7,52.5l-26.5,4.8c0,0-17.5-43.8-17.5-63.3s4.5-17.5,4.5-23.2s-17.8-52.4-18-67.5
	C284.3,497.3,304.8,470.3,304.8,470.3z"/>
<path class="st13" d="M328.3,475.8c0,0,2,24.5-0.9,28.5s-7.5,0-7.5,0"/>
<line class="st14" x1="327.4" y1="522.3" x2="330" y2="663.3"/>
<path class="st13" d="M334.5,694.3c0,0,10.5,7.5,14,0c0,0,7,9,0,12S334.5,712.8,334.5,694.3z"/>
<path class="st13" d="M318.3,676.7c0,0-13.3,16.9,6.1,25.2c7.9,3.3,8.5,0,8.5,0s-3.9,7.5-5.9,9.5s-9.1-0.5-12.6-4.5
	S308.8,690.2,318.3,676.7z"/>
<path class="st15" d="M337.5,238.7c0,0,12.3,16.2,33.2,14.9c20.8-1.3,27.1-17.7,27.1-17.7l-7.7-0.7l-16.5-9.6L357,227L337.5,238.7z"
	/>
<path class="st15" d="M238.3,223.3h18.1l20.6-11l19,16c0,0-7.2,14.4-28.2,14.3C252.6,242.7,238.3,223.3,238.3,223.3z"/>
<circle class="st16" cx="271" cy="225.7" r="9.6"/>
<circle class="st16" cx="369.2" cy="238.7" r="9.6"/>
<g>
	<path d="M406.6,233c-2.7,1.1-5.4,2.2-8.3,2.8c-1.4,0.3-2.9,0.6-4.5,0.5c-1.5-0.1-3.1-0.5-4.4-1c-2.8-1-5.4-2.2-8.1-3.1
		c-2.7-0.9-5.4-1.8-8.2-2.5l-1-0.2l-0.9-0.1c-0.6-0.1-1.3-0.1-2,0c-1.4,0-2.7,0.2-4.1,0.5c-2.8,0.5-5.5,1.3-8.2,2.1
		c-2.7,0.9-5.4,1.9-8.1,2.9c-1.3,0.5-2.7,1.1-4,1.7c-1.3,0.6-2.6,1.2-3.9,1.8l-8.7,4.2l6.8-6.9c1.1-1.1,2.1-2.1,3.2-3.1s2.2-2,3.3-3
		c2.3-1.9,4.6-3.8,7-5.6s5-3.4,7.7-4.8c2.7-1.4,5.6-2.6,8.8-3.2c1.6-0.3,3.3-0.3,5,0c0.4,0.1,0.9,0.2,1.3,0.3l1.1,0.4
		c0.7,0.2,1.4,0.5,2.1,0.8c1.4,0.6,2.8,1.2,4.2,1.9c1.4,0.7,2.7,1.5,4,2.4c2.5,1.8,4.8,4,6.7,6.3c0.5,0.6,1,1.2,1.4,1.8l1.3,1.8
		c0.8,1.2,1.6,2.4,2.4,3.7l0.4,0.6l-0.1,0.4c-0.2,0.9-0.5,1.5-0.8,2.3c-0.3,0.7-0.6,1.4-1,2.1c-0.7,1.3-1.6,2.6-2.6,3.7
		c-0.5,0.6-1,1.1-1.6,1.6c-0.5,0.5-1.1,1-1.7,1.5s-1.2,0.9-1.8,1.3c-0.6,0.4-1.3,0.8-1.9,1.1c-0.7,0.4-1.3,0.7-2,1s-1.4,0.6-2.1,0.8
		c-1.4,0.5-2.8,0.9-4.2,1.2c-0.7,0.2-1.4,0.3-2.2,0.4c-0.7,0.1-1.4,0.2-2.2,0.3l-2.2,0.2l-2.2,0.1l2.1-0.3l2.1-0.4l2.1-0.5
		c0.7-0.2,1.4-0.3,2.1-0.6c1.4-0.4,2.7-0.9,4-1.5c0.6-0.3,1.3-0.6,1.9-0.9c0.6-0.3,1.2-0.7,1.8-1.1c0.6-0.4,1.2-0.8,1.7-1.2
		c0.6-0.4,1.1-0.9,1.6-1.3c0.5-0.5,1-1,1.5-1.5s0.9-1,1.3-1.6c0.8-1.1,1.6-2.3,2.2-3.5c0.3-0.6,0.6-1.2,0.8-1.9
		c0.2-0.6,0.4-1.3,0.5-1.9l0.3,1c-1.1-1-2.1-2.1-3.1-3.2l-1.5-1.6c-0.5-0.5-0.9-1.1-1.4-1.6c-0.9-1.1-1.9-2.1-2.9-3
		s-2.1-1.8-3.2-2.6s-2.3-1.5-3.5-2.1c-1.2-0.7-2.5-1.2-3.8-1.7c-0.6-0.2-1.3-0.5-2-0.7l-1-0.3c-0.3-0.1-0.6-0.2-0.8-0.2
		c-1.2-0.2-2.4-0.2-3.7,0c-2.6,0.4-5.2,1.5-7.7,2.7c-2.5,1.3-4.9,2.8-7.3,4.4c-2.3,1.6-4.6,3.4-6.8,5.3c-1.1,0.9-2.2,1.9-3.3,2.9
		c-1.1,1-2.1,2-3.1,3l-2-2.8c1.4-0.6,2.7-1.2,4-1.8c1.4-0.6,2.7-1.1,4.1-1.7c2.7-1.1,5.5-2,8.3-2.9s5.7-1.6,8.7-2.1
		c1.5-0.2,3-0.4,4.5-0.5c0.8,0,1.6,0,2.4,0.1c0.4,0,0.9,0.1,1.3,0.2l0.5,0.1l0.3,0.1h0.1h0.1h0.1c2.8,0.9,5.6,1.9,8.3,3.1
		c1.4,0.6,2.7,1.2,4,1.8l3.9,1.9c1.3,0.6,2.6,1.1,3.9,1.3s2.7,0.1,4.2,0C401,234.5,403.8,233.7,406.6,233z"/>
</g>
<g>
	<path d="M267.8,242.7c-0.8,0-1.5,0.1-2.3,0c-0.4,0-0.8-0.1-1.1-0.1c-0.4,0-0.8-0.1-1.1-0.2c-0.8-0.1-1.5-0.3-2.2-0.5
		s-1.5-0.5-2.2-0.8c-2.9-1.1-5.5-2.7-8.1-4.5c-2.5-1.8-4.9-3.7-7.1-5.8c-1.1-1.1-2.2-2.1-3.3-3.2c-0.5-0.6-1.1-1.1-1.6-1.7
		c-0.5-0.6-1-1.1-1.5-1.8l-2.9-3.5l4.5,1.4c2.2,0.7,4.8-0.1,7.3-1.2c2.5-1.1,4.9-2.6,7.3-4.1c2.4-1.5,4.8-3.1,7.3-4.6s5.1-3,7.9-4.1
		c1.4-0.5,3-1,4.6-1.2s3.4-0.1,5,0.3c0.4,0.1,0.8,0.2,1.2,0.4l0.3,0.1l0.3,0.1l0.5,0.2c0.3,0.1,0.8,0.4,1.1,0.5l1,0.6
		c1.4,0.8,2.6,1.8,3.7,2.9c2.3,2.1,4.1,4.4,5.8,6.9c0.8,1.2,1.6,2.5,2.4,3.8c0.7,1.3,1.4,2.6,2.1,4l-3.5,1.5
		c-0.9-2.2-2.1-4.2-3.8-5.6c-1.7-1.5-3.8-2.4-6.2-2.7c-2.3-0.4-4.8-0.4-7.3-0.1c-2.5,0.2-5,0.7-7.5,1.3c-5,1.1-10,2.6-15.1,3.8
		c-2.5,0.6-5.1,1.1-7.8,1.2c-1.3,0-2.7,0-4-0.4c-1.3-0.3-2.5-1-3.3-2c0.9,0.9,2.2,1.4,3.4,1.6c1.3,0.2,2.5,0.1,3.8,0
		c2.5-0.3,5-1,7.5-1.8s4.9-1.6,7.4-2.5c2.5-0.8,4.9-1.6,7.5-2.4c2.5-0.7,5.1-1.3,7.8-1.7c2.7-0.4,5.4-0.6,8.2-0.2
		c2.8,0.4,5.6,1.4,7.9,3.3c2.3,1.9,3.9,4.4,5,7l-3.5,1.5c-0.6-1.2-1.3-2.4-2-3.6c-0.7-1.2-1.5-2.4-2.3-3.5c-1.6-2.3-3.3-4.4-5.3-6.2
		c-1-0.9-2-1.7-3.1-2.4l-0.8-0.5c-0.3-0.1-0.5-0.3-0.8-0.4l-0.5-0.2l-0.1-0.1h-0.1c0,0,0.1,0,0,0l0,0l0,0l-0.2-0.1
		c-0.3-0.1-0.6-0.2-0.9-0.3c-1.2-0.3-2.3-0.4-3.5-0.2s-2.5,0.5-3.7,1c-2.5,0.9-5,2.3-7.4,3.7c-2.5,1.4-4.9,2.9-7.4,4.4
		s-5.1,2.9-7.9,4c-1.4,0.6-2.9,1-4.5,1.3c-1.6,0.2-3.3,0.2-5-0.4l1.5-2.1c0.4,0.6,0.9,1.2,1.4,1.7c0.5,0.6,0.9,1.2,1.4,1.7
		c1,1.1,2,2.2,3,3.3c2.1,2.2,4.2,4.2,6.5,6.1c2.3,1.9,4.8,3.6,7.4,4.9c0.7,0.3,1.4,0.6,2,0.9c0.7,0.3,1.4,0.5,2.1,0.7
		c0.4,0.1,0.7,0.2,1.1,0.3s0.7,0.2,1.1,0.2C266.2,242.6,267,242.6,267.8,242.7z"/>
</g>
<polygon points="241,225.7 249.6,224.7 264.5,220.5 279.3,217.7 291.8,221.7 285.8,214.1 275,208.7 267.8,210.5 253.3,218.8 "/>
<path class="st17" d="M241,225.7"/>
<path class="st17" d="M296.3,230.7"/>
<polygon points="344.1,235.3 365.7,227.8 380.3,230.5 388.8,233.8 397.7,235.9 390.2,227 378.8,220.6 370.9,217.2 359.6,220.6 "/>
<path d="M395.1,231.1c0,0,6.5,2.8,11.5,1.5c0,0-1.6,2.9-11.5,2.4"/>
<circle class="st15" cx="262.4" cy="234.7" r="4"/>
<circle class="st15" cx="359.4" cy="246.7" r="4"/>
<circle class="st15" cx="266.6" cy="230.7" r="2.3"/>
<circle class="st15" cx="363.6" cy="242.7" r="2.3"/>
<g>
	<path class="st18" d="M317.6,242.7c0,0-0.1,1-0.3,2.7c-0.2,1.7-0.6,4.1-1.4,7c-0.4,1.4-0.8,3-1.4,4.6s-1.3,3.3-2.3,5
		c-0.5,0.9-1.1,1.7-1.9,2.5s-1.9,1.7-3.6,1.9c-1.7,0.2-3.5,0.5-5.2,1s-3.4,1.1-4.9,1.9c-1.4,0.8-2.6,1.8-2.8,2.7
		c-0.1,0.4-0.1,0.9,0.1,1.5l0.2,0.4l0.3,0.4v0.1l0,0l0,0c0,0,0,0.1,0,0l0.1,0.1l0.2,0.2l0.4,0.5c0.3,0.4,0.5,0.6,0.7,0.9
		s0.5,0.5,0.7,0.8c0.5,0.5,1,1,1.6,1.4c1.1,0.8,2.2,1.5,3.2,2s1.9,0.9,2.7,1.2c1.6,0.6,2.5,0.8,2.5,0.8s-0.2,0-0.7,0.1
		c-0.5,0-1.1,0-2,0c-1.7-0.1-4.2-0.6-7-2.1c-0.7-0.4-1.4-0.8-2-1.3c-0.4-0.2-0.7-0.5-1-0.8s-0.7-0.6-1-0.9l-0.4-0.4l-0.2-0.2
		l-0.1-0.1l-0.2-0.2c-0.2-0.2-0.3-0.4-0.5-0.6l-0.4-0.7c-0.6-1-0.9-2.3-0.7-3.7c0.2-1.4,1-2.5,1.7-3.3c0.8-0.9,1.7-1.5,2.6-2.1
		c1.8-1.1,3.8-1.8,5.8-2.4c2-0.5,4-0.9,6.1-1c0.2,0,0.8-0.2,1.3-0.7s1-1.1,1.5-1.8c0.9-1.3,1.8-2.8,2.5-4.3c0.7-1.4,1.4-2.8,2-4.1
		c1.2-2.6,2.1-4.8,2.8-6.4C317.3,243.6,317.6,242.7,317.6,242.7z"/>
</g>
<circle class="st19" cx="259.1" cy="273.1" r="9.1"/>
<circle class="st19" cx="388.3" cy="275.8" r="9.5"/>
<path class="st15" d="M304.8,323.7c0,0,16.7-26,37.1-21.7S380.7,331,304.8,323.7z"/>
<g>
	<path class="st20" d="M393.2,309.9c25.2,2.7,52.2,5.1,74.6-6.7c21.8-11.5,34.8-34.2,47.6-55.2c32.2-53.2,71.7-105.2,127.1-133.4
		C696.8,87,761.3,85.1,821,97c28.5,5.6,57.2,14.7,79.7,33c36.4,29.7,50.6,78.7,57.4,125.2c3.7,25.4,5.8,51.6-0.4,76.6
		c-5.9,24-19.1,45.7-33.8,65.6c-21.5,29.1-47.1,55.8-78.1,74.5c-35.2,21.2-76.2,31.3-117,36c-41.5,4.8-84.2,4.1-124.4-7.2
		c-40.2-11.4-78-34.1-102.9-67.8c-13.8-18.6-23.2-40.1-36.4-59.2c-17.5-25.4-41.5-46.3-69-60.2"/>
	<g>
		<path class="st21" d="M393.2,312.9c24,2.6,49.7,5,72.3-5.3c20.8-9.4,34.4-28.7,46-47.6c25-40.5,50.8-80.5,87-112
			c18.4-16,39.2-29.4,62-38.4c23.7-9.4,49-14.5,74.4-16.1c25.7-1.6,51.5,0.2,76.9,4.7c24.7,4.3,49.8,10.7,71.7,23.4
			c41.7,24.3,60,70.7,68.7,116c5,25.9,8.6,53,5.3,79.3c-3.4,26.5-15.9,50.2-31,71.8c-29.6,42.1-67.5,78.3-116.1,97
			c-25,9.7-51.4,15.3-78,18.6c-27.2,3.3-54.8,4.4-82.1,1.7c-49.3-4.9-98.5-23.4-133.3-59.7c-18-18.7-29-41.9-42.4-63.8
			c-12.4-20.2-28-38.1-46.7-52.7c-9.4-7.3-19.5-13.7-30.1-19.1c-3.4-1.7-6.5,3.4-3,5.2c22.5,11.5,42.5,27.3,58.6,46.8
			c17,20.6,27.5,45.3,42.6,67.2c27.8,40.3,72.4,65.7,119.5,76.5c53.1,12.2,111.2,8.6,163.8-4.6c25.5-6.4,50.3-16,72.5-30.2
			c21.5-13.7,40.3-31.1,56.9-50.4c16.7-19.3,32.5-40.5,43.2-63.8c11.5-25.1,14.3-51.7,12.1-79c-3.7-46.1-14-96.9-43.9-133.6
			c-31.9-39.2-85-51.3-133.1-56.2c-51.1-5.2-104.4,0.8-150.1,25.4c-42.7,23-75.7,60.1-102.9,99.6c-13.5,19.6-24.6,41-38.6,60.2
			c-7.2,9.8-15.7,19-26.2,25.2c-11.6,6.8-25,9.5-38.3,10c-12.5,0.5-25.1-0.8-37.5-2.1C389.4,306.5,389.4,312.5,393.2,312.9
			L393.2,312.9z"/>
	</g>
</g>
<g>
	<g>
		<path d="M767.5,177c-10-42.9-86.4-56.8-99.2-8.6c-5.9,22.4,12,39.6,31.1,47.4c20.8,8.6,55.5,11.2,63.4,36.8
			c5.5,17.7-13.6,23.7-27.5,24.5c-14.3,0.7-28.1-3.6-39.6-12c-3.1-2.3-6.1,2.9-3,5.2c17.6,13,42.6,17.1,63,8.3
			c9.5-4.1,15.2-12.3,13.9-22.9c-1.4-10.5-8.5-19.1-16.8-25.2c-20-14.5-47.3-13.4-66.6-29c-9.1-7.4-15-18.2-12.4-30.1
			c2.3-10.6,10.3-19.9,20.2-24.2c24.2-10.8,61.6,4.9,67.8,31.5C762.6,182.3,768.4,180.7,767.5,177L767.5,177z"/>
	</g>
</g>
<g>
	<g>
		<path d="M774.1,237.2c-2.2,8,0.6,16.9,7.5,21.8c7.9,5.7,16.9,3,21.2-5.4c3.8-7.5,3.5-17.6-2.5-23.9c-5.7-5.9-15.5-7.3-22.1-2.3
			c-3.1,2.3-0.1,7.5,3,5.2c4.2-3.1,9.9-3,13.9,0.5c4.4,3.7,5,10.3,3.3,15.5c-0.9,2.8-2.9,6.5-5.9,7.4c-2.9,0.9-6.4-0.8-8.5-2.7
			c-4.1-3.7-5.5-9.3-4.1-14.5C780.9,235.1,775.1,233.5,774.1,237.2L774.1,237.2z"/>
	</g>
</g>
<g>
	<g>
		<path d="M538.8,331.9c7.6-4,16.9-0.5,22.2,5.8c5.6,6.7,7.3,15.9,7.9,24.4c1.3,19.8-1.7,39.7-4.1,59.4c-1.1,9.2-2.9,18.8-2.5,28.1
			c0.2,5,1.8,11.1,7,12.9c7,2.4,12.6-4.9,16.4-9.5c5.7-6.8,10.3-14.3,14-22.4c-1.8-0.2-3.7-0.5-5.5-0.7c5,14.1,10.6,29.2,22.6,38.9
			c4.7,3.8,11,7,15.7,1.4s5.2-15.3,6-22.2c2.2-19.6,0.1-39.5-0.8-59.1c-1-20.6-1.6-41.1-1.9-61.7c-0.2-16.6-3.6-40.3,10.9-52.3
			c3-2.5-1.3-6.7-4.2-4.2c-9.9,8.2-12.2,21.3-12.7,33.5c-0.6,17.2,0.2,34.7,0.7,51.9c0.5,18.4,1.5,36.8,2.4,55.3
			c0.5,8.8,0.8,17.6,0.4,26.4c-0.3,8.5-0.7,18.4-4.1,26.4c-3.9,9.3-16.8-8.7-19.1-12.6c-4.3-7.3-7.2-15.3-10-23.2
			c-0.8-2.2-4.3-3.3-5.5-0.7c-3.7,8.1-8.3,15.7-14.2,22.5c-2.3,2.7-7.8,10.2-10.9,4.9c-1.6-2.7-1.2-6.6-1-9.6
			c1.2-19.4,4.7-38.6,6.1-58.1c1.1-15.7,2.4-34.6-5.8-48.8c-6.5-11.3-20.7-18.1-32.9-11.7C532.4,328.6,535.4,333.7,538.8,331.9
			L538.8,331.9z"/>
	</g>
</g>
<g>
	<g>
		<path d="M604.9,375c11.7-0.7,23.5-0.5,35.1,0.8c11,1.2,21.6,4.1,32.5,6.1c8.6,1.6,17.8,2.3,25.9-1.7c7.3-3.6,12-10.4,14.4-18
			c4-12.4,4.8-37-14-36.4c-17.2,0.6-29.2,20.8-35.6,34.4c-9.1,19.5-12.7,40.8-16.1,61.9c-0.6,3.7,4.8,5.4,5.8,1.6
			c2.1-8.5,8.5-14.9,17-17.1c-1.3-1-2.5-1.9-3.8-2.9c2.1,15.5-11.4,29.9-5,45.3c0.9,2.3,4.1,3.1,5.5,0.7
			c9.3-15.9,20.8-34.4,40.5-37.4c3.1-0.5,2.6-5,0-5.8c-13.3-4-26.5,8.3-24.4,21.7c0.3,1.9,2.9,2.7,4.4,1.8
			c7.1-4.2,13.3-9.5,18.5-15.9c-1.7-0.4-3.3-0.9-5-1.3c2,6.5-8,16.2,1.8,20.5c9.7,4.3,15.9-11.3,18.8-17.5
			c11.1-23.6,19.5-48.4,25.2-73.9c0.8-3.8-4.8-5.4-5.8-1.6c-5.3,21.4-14.7,41.8-18.4,63.6c-1.7,9.9,0.4,22,8.7,28.6
			c12.2,9.7,24-2.8,30.2-12.9c2-3.3-3.2-6.3-5.2-3c-3.3,5.3-7.9,12.8-14.8,13.3c-6.5,0.5-10.4-5.7-12.2-11
			c-2.8-8.2-0.7-15.9,1.4-23.9c4.7-17.9,11.6-35.1,16-53c-1.9-0.5-3.9-1.1-5.8-1.6c-4.4,19.9-10.5,39.3-18.3,58.1
			c-2,4.8-4.1,9.6-6.3,14.3c-2,4.3-3.8,9.6-7.3,13c-2,2-4.8,2.7-4.7-0.9c0.1-1.4,1.1-3.1,1.5-4.4c1.1-3.1,1.7-6.1,0.8-9.2
			c-0.6-2-3.5-3.2-5-1.3c-4.9,6-10.6,11-17.3,15c1.5,0.6,2.9,1.2,4.4,1.8c-1.4-9.2,8.5-17,17.1-14.4c0-1.9,0-3.9,0-5.8
			c-21.3,3.2-34.1,23-44.1,40.2c1.8,0.2,3.7,0.5,5.5,0.7c-5.9-14.2,7.2-28.9,5.2-43.7c-0.3-1.9-1.7-3.4-3.8-2.9
			c-10.5,2.7-18.5,10.8-21.2,21.2c1.9,0.5,3.9,1.1,5.8,1.6c2.5-15.7,5.2-31.5,10.1-46.6c4.7-14.3,12-30.6,24.2-40.2
			c6.1-4.8,16.6-8.6,20.6,0.7c2.9,6.6,1.5,15.6-0.6,22.2c-2.4,7.7-7.4,14.2-15.4,16.4c-8.1,2.2-16.9,0.1-24.8-1.7
			c-20.5-4.7-41.1-7-62.1-5.6C601,369.3,601,375.3,604.9,375L604.9,375z"/>
	</g>
</g>
<g>
	<g>
		<path d="M717.4,378.7c8.8-3.1,16.4-5.2,25.7-2.9c5.2,1.3,11.1,1.6,14.7-3.1c2.4-3-1.8-7.3-4.2-4.2c-3.9,4.9-13,0-18.4,0
			c-6.7,0-13.1,2.2-19.4,4.4C712.2,374.2,713.8,380,717.4,378.7L717.4,378.7z"/>
	</g>
</g>
<g>
	<g>
		<path d="M783.2,313.7c-0.7-4.3,7.1-6.8,10-8.1c4.2-1.8,8.4-3.5,12.7-5c8-2.7,16.3-4.4,24.8-4.1c7.5,0.3,19.4,2.3,24.2,8.7
			c3.6,4.7-1,8.1-4.2,11.3c-3,3-6.1,6-9.2,9c-12.8,12-26.9,22-40.3,33.3c-11.1,9.3-20.3,22.9-16.1,37.9c1,3.7,6.8,2.1,5.8-1.6
			c-5-17.7,11.8-30.2,24-39.4c12.9-9.8,25.2-20.3,36.8-31.6c4-3.9,10.5-8.7,10.8-14.8c0.3-6.1-5.2-10.4-10-13.1
			c-12.6-6.9-27.7-6.8-41.3-3.3c-8.4,2.1-16.6,5.4-24.4,9.1c-5.5,2.7-10.5,6.7-9.4,13.4C778,319.1,783.8,317.5,783.2,313.7
			L783.2,313.7z"/>
	</g>
</g>
<g>
	<g>
		<path d="M786.9,411.9c-1.7,2.1-0.5,5.3,2.1,6c3,0.8,5.6-2.1,6.1-4.8c0.5-2.6-1.2-5.7-4.2-5.1c-3.5,0.7-4,4.4-3.7,7.4
			c0.1,0.9,0.9,1.8,1.9,1.4c1.9-0.7,3.1-2.2,3.2-4.2c0.1-1.8-2.4-1.9-2.9-0.4c0,0.1-0.1,0.2-0.1,0.2c0.2-0.3,0.5-0.6,0.7-0.9
			c0.3,0,0.6,0,0.8,0.1c0.2,0.3,0.5,0.6,0.7,0.9c-0.2,0.4-0.4,0.8-0.6,1.1c1.9-0.3,1.1-3.2-0.8-2.9c-1.4,0.3-2.1,2.1-1.1,3.2
			c1.1,1.2,2.8,0.4,3.3-1c-1-0.1-2-0.3-2.9-0.4c0,0.6-0.4,1.1-1,1.3c0.6,0.5,1.3,1,1.9,1.4c-0.1-1.1-0.4-2.8,0.4-3.8
			c0.7-0.9,1.7-0.8,1.7,0.4c0,1-0.6,2.2-1.4,2.7c-0.4,0.3-0.9,0.4-1.3,0.1c-0.1-0.1-0.6-0.6-0.4-0.8
			C790.2,412.6,788.1,410.4,786.9,411.9L786.9,411.9z"/>
	</g>
</g>
<ellipse transform="matrix(0.9993 -3.702389e-02 3.702389e-02 0.9993 -6.021 31.6588)" class="st15" cx="851.8" cy="178.4" rx="39.6" ry="39.6"/>
<circle class="st15" cx="891.1" cy="213.1" r="23.5"/>
</svg>
