<svg id="Layer_1" data-name="Layer 1" xmlns="http://www.w3.org/2000/svg" viewBox="0 0 200 200"><defs><style>.cls-1{fill:#7ce5e5;}.cls-2{fill:#fff;}.cls-3{fill:#3ece49;}.cls-4{fill:#39b54a;}.cls-5{fill:#603813;}</style></defs><title>tree</title><rect class="cls-1" width="202.73" height="201.59"/><path class="cls-2" d="M83.06,31.08c-0.43-9.62-7.8-17.76-17.76-17.76a16.38,16.38,0,0,0-3,.28C60.28,5.91,53.68,0,45.2,0A18.54,18.54,0,0,0,28.73,10.94a17.13,17.13,0,0,0-9.12-2.58c-8.55,0-16.76,6.92-17.68,15.49-8,1.64-14.82,9-14.44,17.41C-12.08,50.88-4.71,59,5.24,59a18.12,18.12,0,0,0,11.61-4.45,17.49,17.49,0,0,0,4.32.54,16.24,16.24,0,0,0,2.23-.16,17.41,17.41,0,0,0,15.26,9,17,17,0,0,0,6.09-1.16,17.11,17.11,0,0,0,10.11,3.25c9.29,0,18.19-8.17,17.76-17.76,0-.38,0-0.75-0.09-1.12C78.7,44.34,83.38,38.09,83.06,31.08Z"/><path class="cls-2" d="M208.49,106.94a19.43,19.43,0,0,0-2.68-9,17.84,17.84,0,0,0-.28-8.22l-0.27-.78a13.37,13.37,0,0,0-3.18-6,13.42,13.42,0,0,0-5-4.57,13.22,13.22,0,0,0-6.6-2.11,13.35,13.35,0,0,0-6.09,0,17.18,17.18,0,0,0-12.74-5.58,18.56,18.56,0,0,0-15.76,9.5,17.6,17.6,0,0,0-3.57-.36A18.38,18.38,0,0,0,135,93.42a15.87,15.87,0,0,0-3,9.87c0.43,9.62,7.8,17.76,17.76,17.76a16.68,16.68,0,0,0,4.46-.62,17.5,17.5,0,0,0,15.91,10.29,18.47,18.47,0,0,0,14.24-7.22,17.27,17.27,0,0,0,6.39,1.21C200,124.7,208.91,116.53,208.49,106.94Z"/><path class="cls-3" d="M202.73,190.59c-4.39-.47-8.79-0.77-13.2-1l-3.16-.51a5.38,5.38,0,0,0,2.6-4.66c-0.53-5.5-4.58-8.64-10.11-8.52-1.16,0-4.72,1.6-6.5,1.87,0.51-.47,0-2.21,0-2.76l-0.82-5.8c-0.49-3.44-5.4-5.09-8.08-3.29a72.11,72.11,0,0,0-6.84,5.22A8.87,8.87,0,0,0,152,170c-4.09,0-7.18,2.57-10.21,5l-3.51,2.87c-0.15-1.7-.37-3.4-0.66-5.12-0.8-4.7-7.95-5.28-10.05-1.31l-3.31,6.24a5.48,5.48,0,0,0-.67,3.08l-0.8-.39a5.36,5.36,0,0,0-7.89,3.34q-22.07,3.6-44.28,6.13a5.12,5.12,0,0,0-2.57-.36,476.56,476.56,0,0,1-65.54,1.73c-6.08-.26-7.64,9.72-1.46,10.8,32.94,5.78,66.85,4.62,100.12,3.16,29.17-1.28,58.78-5.77,88.06-4.6a64.63,64.63,0,0,0,13.49,1C209.91,201.19,209.68,191.33,202.73,190.59Z"/><path class="cls-4" d="M187.46,70.37a20.7,20.7,0,0,0-4.64-9.29c2.49-13.49-5.4-28.41-20.25-30.61-9.37-1.39-18.51,2-23.66,10.24A22.25,22.25,0,0,0,137,44.54l-0.67,0-0.19-.18a11.84,11.84,0,0,0,3.18-5.1,38.92,38.92,0,0,0-.15-24c-1.51-4.5-5.73-8.47-10.79-8.22a39.84,39.84,0,0,0-20.92,7.58C102.24,7.44,94.12,2.28,85,2A24.9,24.9,0,0,0,72.31,5.12a22.82,22.82,0,0,0-8.61,2.32c-10.08,5-15,16.12-16.32,26.77-0.16,1.29-.26,2.64-0.32,4a14.74,14.74,0,0,0-1.49-.49c-15.46-4.17-25,12-26.12,25.15a26.24,26.24,0,0,0,1.91,12,134.9,134.9,0,0,0-6.57,11.8c-2.13,4.34-3.63,9.09-2,13.9,1.79,5.33,6,8.39,11,10.23A39,39,0,0,0,38,113a10.91,10.91,0,0,0,15,4c4.81-2.59,9.44-5.44,14-8.43,0.93,0.64,1.88,1.26,2.85,1.83,8,4.71,18.39,6.18,26.51,1a24.28,24.28,0,0,0,8.14-8.82,80.93,80.93,0,0,0,31.84-5.37c5.35,3,12,3.85,17.92,3.61,8.08-.32,16.95-1.65,23.64-6.52C185.65,88.58,189.5,79.94,187.46,70.37ZM38.54,90a21.81,21.81,0,0,0,2.32.36,20,20,0,0,1-2.69.28Zm78.87-54.83c0,0.21,0,.42,0,0.63l-0.49-.14Z"/><path class="cls-5" d="M158.19,96.16a99.83,99.83,0,0,0-31.3-11c0.6-.17,1.2-0.33,1.81-0.48,4.95-1.17,10-1.94,14.91-3q3.45,1.9,7,3.67c2.27,1.14,4.27-2.27,2-3.42q-1.59-.8-3.17-1.63a50.64,50.64,0,0,0,9-3.36c4-2,.49-7.95-3.49-6-9,4.44-19.28,4.82-28.88,7.2A73.25,73.25,0,0,0,113.32,83a13.62,13.62,0,0,0-4.15,1.89,62.12,62.12,0,0,1-10.23,3.72c0.47-7.39.32-14.86,0.16-22.33,1.22-5.36,5.18-10,8.76-14.06a82.35,82.35,0,0,1,15.48-13.48c2.1-1.42.12-4.84-2-3.42A86.3,86.3,0,0,0,104,50.72a64.26,64.26,0,0,0-5,6.5c-0.09-11.73.45-23.39,4-34.69,1.36-4.26-5.33-6.08-6.68-1.84-7.29,22.86-2.5,47-4.49,70.47a2.82,2.82,0,0,0,1.48,2.92c0,0.49,0,1,0,1.48a4.74,4.74,0,0,0-1.09-1.15A110.72,110.72,0,0,1,79.78,82.86,3.42,3.42,0,0,0,76.45,79H76.21c-2.14-2-4.29-4.32-6.51-6.47A94.21,94.21,0,0,0,62.19,66a1.88,1.88,0,0,0,.12-1.9c-2.44-5.28-2-11.26-2.74-16.9a41.37,41.37,0,0,0-5.31-15.29c-1.28-2.2-4.7-.2-3.42,2A39.12,39.12,0,0,1,56,50.57c0.35,4.17.54,8.29,1.68,12.25a68.94,68.94,0,0,0-14.53-7.61c-4.17-1.58-6,5.09-1.84,6.65,9.86,3.72,17.9,10.07,25.28,17.47H45.81c-3.24,0-6.68.4-9.73-.86-1.74-.72-3.79.78-4.26,2.42-0.57,2,.7,3.55,2.42,4.26,3,1.25,6.37,1.11,9.6,1.11l10.87,0,18.63,0A150,150,0,0,0,86.89,98.92a110.4,110.4,0,0,1-20,72.94,105.29,105.29,0,0,1-15.08,16.91c-2.26,2.05-.46,5.91,2.45,5.91q26.63,0,53.24-1.12c2.46-.1,4.53-2.92,3-5.21l-4.11-6.11a3.51,3.51,0,0,0-.27-2.36c-7.22-15.34-8.17-32.76-5.9-49.35a166,166,0,0,1,5.66-25.19c1.17-3.88,2.18-8.08,4.26-11.59A10.49,10.49,0,0,1,112.43,91l3-1.37a4.1,4.1,0,0,1,2.66.64,3.17,3.17,0,0,0,2.24.5,4.84,4.84,0,0,0,1.77.57,89.15,89.15,0,0,1,15.7,3.49v0a47.5,47.5,0,0,0,.73,15.41c0.52,2.49,4.34,1.44,3.82-1.05a43.85,43.85,0,0,1-.71-13.1,93.62,93.62,0,0,1,13.06,6C158.6,104.29,162.09,98.32,158.19,96.16ZM76.74,177.87l-0.37.07,0.57-.84,0.39-.58Q77,177.2,76.74,177.87Z"/><path class="cls-4" d="M119.94,187.58l-0.1-.45c-0.49-2.11-2.73-2.5-4.36-1.66q2.26-5.7,4.79-11.28c1.28-2.82-2.2-6.23-4.62-3.57l-1.8,2a3.06,3.06,0,0,0-4.72-.74q-3.48,3.55-6.7,7.31a3,3,0,0,0-5-2.06,31,31,0,0,0-7,8.79,3.3,3.3,0,0,0-3.4,1.36c-0.61.81-1.26,1.59-1.93,2.35a4.38,4.38,0,0,0-.74-0.11,21.51,21.51,0,0,0-1.32-5c-0.78-2-3.5-2.94-5-1.29a19.15,19.15,0,0,0-1.21-2.12c-1-1.45-3.33-2.13-4.62-.6a25.72,25.72,0,0,0-3.63,5.64A4.28,4.28,0,0,0,66.83,185q-0.24-1.87-.62-3.73a2.82,2.82,0,0,0-1.65-1.9,11.69,11.69,0,0,0-1.33-5.13c-1.13-2.15-4.91-1.78-5.38.7l-3.64,19.16c-5-4.56-9.18-10.25-13.54-15.26-2.17-2.49-6.56.82-4.62,3.57L49.11,201a3.14,3.14,0,0,0,4.7.46l0.87,0.67A3,3,0,0,0,59,200.44,3,3,0,0,0,60.23,199a3,3,0,0,0,1.43-.73c0.32,0.05.68,0.08,1,.14a12.45,12.45,0,0,0,2.81.28,7.18,7.18,0,0,0,.89-0.1,114.23,114.23,0,0,0,12.8.65,3,3,0,0,0,4.23.11l0.19-.16c3.13-.07,6.27-0.19,9.43-0.32,4.73-.19,10.34.1,15.63-0.55a2.75,2.75,0,0,0,.89-0.12c4.73-.69,9.16-2.21,12.4-5.61A3,3,0,0,0,119.94,187.58Z"/><path class="cls-3" d="M92.41,27.95c-2.34-3-5.79-3.89-9.28-3.54,0.09-3.27-.14-6.85-1.85-9.3-2.66-3.82-7.58-3.57-11.59-2.34a20.74,20.74,0,0,0-7.33,4.07,13.35,13.35,0,0,0-4.13-3.21c-7-3.41-15.74-.23-21.46,5.52a9.43,9.43,0,0,0-4.09.13c-8.78,2.13-9.75,12.25-6.26,19.18a24.12,24.12,0,0,0,9.88,10c-1.59,6,3.12,11.37,9,12.51a22.4,22.4,0,0,0,7.05.1,20.1,20.1,0,0,0,10.32,5.3,5.93,5.93,0,0,0,2,0,6.6,6.6,0,0,0,1.26.21C71.72,67,74.6,60.4,76.42,56c7-.43,13.89-6.7,16.56-13.19C94.91,38.11,95.7,32.17,92.41,27.95Z"/><path class="cls-3" d="M164.33,50.68c-0.48-4.5-3-6.79-6.26-7.63,0.77-5.4-1.21-10.83-7.46-12.67-6-1.78-13,1.38-17,6.45a9.74,9.74,0,0,0-1.94-.1,21.09,21.09,0,0,0-15.05.74A9.84,9.84,0,0,0,110.84,44a19.64,19.64,0,0,0-5.75,12.19c-0.54,6.39,4,9.47,8.76,8.82,2.84,6.34,6.82,11.83,15.22,9.09a19.32,19.32,0,0,0,5.72-3.4c1.77-1.38,1.57-1.17,3.85-1a27.72,27.72,0,0,0,12.12-1.84C157.44,65.21,165.18,58.66,164.33,50.68Z"/><path class="cls-3" d="M78.45,72.5A15.92,15.92,0,0,0,70.71,74,11.76,11.76,0,0,0,65,73.86c-1.62.31-3.24,0.87-4.83,1.32L59,75.52c-2.35-2-6.36-2.34-8.52,1.05a7,7,0,0,0-.1,7.28,9.39,9.39,0,0,0-2.53.35C38.12,87,39.74,98,44.89,104.08a4.59,4.59,0,0,0,6.76.64c2.59,1,5.78.09,7.07-3.51l0.27-.73c2.9,2.32,7.4,2.52,11.15-1.35a19,19,0,0,0,4.81-10.48,9.53,9.53,0,0,1,3.45-.57c3.28,0.13,6,.37,8.17-2.78C90.56,79.46,84.43,72.91,78.45,72.5Z"/></svg>